<svg xmlns="http://www.w3.org/2000/svg" width="25.001" height="25.042" viewBox="0 0 25.001 25.042">
    <g id="Group_54" data-name="Group 54" transform="translate(0 0)">
        <path id="Path_11" data-name="Path 11" d="M-654.627-137.441a1.528,1.528,0,0,1,.757.617c1.611,2.2,3.231,4.4,4.841,6.6a.474.474,0,0,0,.442.218c1.027-.01,2.054,0,3.08-.005a.925.925,0,0,1,.814.362.968.968,0,0,1,.18.509c.014,1.353-.014,2.706.019,4.058a.949.949,0,0,1-.894.937c-.219,0-.439,0-.684,0-.047.39-.095.766-.137,1.143-.089.793-.173,1.587-.262,2.38a.989.989,0,0,1-1.225.981.945.945,0,0,1-.73-1.042c.057-.682.14-1.361.216-2.041.09-.8.186-1.6.275-2.4a.991.991,0,0,1,1.067-.972c.138,0,.277,0,.435,0v-1.939h-21.091v1.939h16.508a1.011,1.011,0,0,1,1.077.667.975.975,0,0,1-.835,1.281c-.105.01-.212.007-.318.007h-14.791c.06.513.116,1,.175,1.493q.308,2.571.617,5.142c.06.5.107,1,.194,1.5a1.927,1.927,0,0,0,1.9,1.642c.2.007.391,0,.587,0q5.7,0,11.393,0a1.95,1.95,0,0,0,1.962-1.324c.06-.167.083-.347.127-.521a.969.969,0,0,1,1.148-.738.99.99,0,0,1,.764,1.117,3.907,3.907,0,0,1-3.945,3.42q-4.926.008-9.852,0c-.66,0-1.321-.019-1.98,0a3.988,3.988,0,0,1-4.118-3.738c-.178-1.872-.439-3.736-.663-5.6q-.131-1.092-.26-2.183c-.008-.063-.018-.126-.031-.215-.21,0-.412,0-.613,0a.974.974,0,0,1-1.017-1.017q-.009-1.919,0-3.838a.969.969,0,0,1,1.022-1.01c1.059-.006,2.119-.007,3.178,0a.432.432,0,0,0,.4-.208q2.424-3.313,4.856-6.621a1.487,1.487,0,0,1,.764-.609h.391a3.071,3.071,0,0,1,.343.177.988.988,0,0,1,.162,1.479q-2.037,2.777-4.077,5.552c-.046.062-.086.128-.141.209h11.277c-.06-.088-.1-.155-.148-.219l-2.878-3.917c-.415-.564-.837-1.123-1.242-1.695a.968.968,0,0,1,.482-1.542.741.741,0,0,0,.085-.045Z" transform="translate(669.495 137.441)" fill="#fff"/>
        <path id="Path_12" data-name="Path 12" d="M-512.114,176.343c0,.619,0,1.238,0,1.858a.984.984,0,0,1-.971,1.062.98.98,0,0,1-.983-1.05q-.005-1.882,0-3.764a.98.98,0,0,1,.983-1.05.984.984,0,0,1,.971,1.062C-512.112,175.088-512.114,175.716-512.114,176.343Z" transform="translate(521.701 -158.14)" fill="#fff"/>
        <path id="Path_13" data-name="Path 13" d="M-432.421,176.345c0,.619,0,1.238,0,1.858a.984.984,0,0,1-.973,1.061.98.98,0,0,1-.981-1.052q0-1.882,0-3.764a.98.98,0,0,1,.985-1.048.98.98,0,0,1,.969,1.04C-432.417,175.074-432.421,175.709-432.421,176.345Z" transform="translate(445.919 -158.14)" fill="#fff"/>
        <path id="Path_14" data-name="Path 14" d="M-354.676,176.315c0-.619,0-1.238,0-1.858a.983.983,0,0,1,.975-1.058.981.981,0,0,1,.979,1.054q0,1.882,0,3.764a.979.979,0,0,1-.987,1.046.98.98,0,0,1-.967-1.042C-354.68,177.586-354.676,176.95-354.676,176.315Z" transform="translate(370.131 -158.141)" fill="#fff"/>
    </g>
</svg>
