<svg id="Group_66" data-name="Group 66"
    xmlns="http://www.w3.org/2000/svg"
    xmlnsXlink="http://www.w3.org/1999/xlink" width="12.893" height="13.387" viewBox="0 0 12.893 13.387">
    <defs>
        <clipPath id="clip-path">
            <rect id="Rectangle_145" data-name="Rectangle 145" width="12.893" height="13.387" fill="#c95dff" />
        </clipPath>
    </defs>
    <g id="Group_65" data-name="Group 65" clip-path="url(#clip-path)">
        <path id="Path_149" data-name="Path 149" d="M11.336,13.386H1.557a.122.122,0,0,0-.033-.019A1.769,1.769,0,0,1,0,11.507Q0,7.187,0,2.866a2.21,2.21,0,0,1,.027-.4A1.766,1.766,0,0,1,1.8.991h.678c0-.16,0-.307,0-.454A.5.5,0,0,1,2.977,0a.5.5,0,0,1,.492.543c0,.147,0,.293,0,.439H9.424c0-.053,0-.1,0-.138,0-.113,0-.227,0-.34a.494.494,0,1,1,.989-.018c.008.164,0,.329,0,.506.254,0,.492,0,.731,0a1.639,1.639,0,0,1,.835.225,1.756,1.756,0,0,1,.912,1.61q0,2.673,0,5.347c0,1.129,0,2.257,0,3.386a1.777,1.777,0,0,1-1.306,1.763c-.083.023-.167.042-.25.063M11.9,5.213H1c0,.042-.007.076-.007.11q0,3.124,0,6.247a.782.782,0,0,0,.833.823h9.24a1,1,0,0,0,.195-.013.793.793,0,0,0,.643-.845q0-3.091,0-6.182v-.14m-.009-1.006c0-.516.015-1.021-.005-1.525a.7.7,0,0,0-.608-.674A6.662,6.662,0,0,0,10.415,2c0,.152,0,.3,0,.455a.5.5,0,1,1-.991-.008c0-.151,0-.3,0-.455H3.469c0,.051,0,.094,0,.137,0,.113,0,.227,0,.34a.494.494,0,1,1-.989.017c-.008-.164,0-.328,0-.5H1.85a.788.788,0,0,0-.859.85c0,.414,0,.828,0,1.242v.132Z" transform="translate(0 0.001)" fill="#c95dff" />
    </g>
</svg>