<svg xmlns="http://www.w3.org/2000/svg" width="59.366" height="68.446" viewBox="0 0 59.366 68.446">
    <g id="Group_37" data-name="Group 37" transform="translate(-775.075 -833.076)">
        <path id="Path_136" data-name="Path 136" d="M1735.473,196.993c-8.057,0-16.116-.067-24.172.033a5.33,5.33,0,0,1-5.546-5.543c.089-8.546.037-17.093.026-25.639a5.09,5.09,0,0,1,3.347-5.128.986.986,0,0,0,.439-.653,7.62,7.62,0,0,0,.027-1.154,3.175,3.175,0,0,1,3.35-3.189,60.58,60.58,0,0,1,21.6,4.234,2.267,2.267,0,0,0,1.823,0,60.629,60.629,0,0,1,21.449-4.228,3.221,3.221,0,0,1,3.491,3.371,1.569,1.569,0,0,1,0,.309c-.141.814.163,1.23.962,1.59a4.6,4.6,0,0,1,2.827,4.421q.047,13.283.007,26.566a4.956,4.956,0,0,1-5.151,5.012q-12.241.02-24.481,0m1.213-3.122c.335-.114.6-.2.86-.293a63.6,63.6,0,0,1,20.091-3.723c1.03-.022,1.2-.189,1.2-1.234q0-14.6,0-29.2c0-1.08-.18-1.259-1.27-1.23a60.778,60.778,0,0,0-20.186,3.985.935.935,0,0,0-.714,1.051q.03,14.907.014,29.814Zm-2.516-.094a.813.813,0,0,0,.038-.186q0-15.326-.017-30.652a.949.949,0,0,0-.524-.677,59.751,59.751,0,0,0-20.386-4.075c-1.064-.025-1.244.162-1.244,1.258q0,14.554,0,29.108c0,1.114.169,1.273,1.307,1.3a60.239,60.239,0,0,1,14.253,1.979c2.2.585,4.375,1.293,6.571,1.948m27.142-30.5v1.013q0,12.206,0,24.411c0,2.324-1.231,3.567-3.562,3.622a65.478,65.478,0,0,0-11.181,1.289c-1.077.213-2.141.5-3.211.748l.031.164h.688q7.8,0,15.6,0c2.015,0,2.962-.959,2.962-2.992q0-12.437,0-24.875c0-.438.022-.877-.011-1.313a2.4,2.4,0,0,0-1.319-2.066m-51.725-.032a2.723,2.723,0,0,0-1.335,2.546q.014,12.859.006,25.718c0,2.075.939,3.014,3.015,3.015q7.761,0,15.523,0h.718a.977.977,0,0,0-.55-.31,64.811,64.811,0,0,0-13.578-1.881c-2.649-.075-3.8-1.225-3.8-3.857q0-12.087,0-24.173Z" transform="translate(-930.68 704.496)" fill="#c95dff"/>
        <path id="Path_137" data-name="Path 137" d="M1740.677,39.748l-5.731-1.906c0,.686-.027,1.269.016,1.847a.738.738,0,0,0,.349.495,3.791,3.791,0,0,1,2.108,3.661c-.012.823.013,1.648-.007,2.471a1.232,1.232,0,0,1-1.352,1.342q-2.355.026-4.71,0a1.175,1.175,0,0,1-1.282-1.168,29.056,29.056,0,0,1,.05-3.468,3.277,3.277,0,0,1,1.834-2.693.888.888,0,0,0,.561-1.023,1.191,1.191,0,0,1,0-.308c.176-1.306.027-2.347-1.622-2.575-.327-.045-.723-.711-.8-1.144-.108-.578.358-.964.9-1.192q3.8-1.59,7.6-3.194,7.673-3.228,15.342-6.466a2,2,0,0,1,1.694,0q11.394,4.821,22.8,9.61c.623.262,1.08.608,1.035,1.351-.043.707-.521.992-1.129,1.192-3.051,1-6.1,2.022-9.144,3.037-.118.039-.233.091-.417.163.6,1.794,1.19,3.565,1.782,5.336.467,1.4.134,1.968-1.3,2.208-4.615.772-9.219,1.626-13.852,2.258a14.922,14.922,0,0,1-4.189-.44c-3.631-.575-7.253-1.2-10.881-1.8-1.59-.26-1.912-.773-1.4-2.319l1.745-5.279m27.24,5.283a28.41,28.41,0,0,1-1.144-3.574,4.714,4.714,0,0,0-3.459-3.725c-.1-.035-.189-.081-.284-.119a23.287,23.287,0,0,0-11.307-1.3,17.013,17.013,0,0,0-7.682,2.563c-.251.165-.566.366-.655.619-.64,1.81-1.229,3.637-1.847,5.5.269.066.463.129.663.162,3.2.532,6.39,1.074,9.589,1.584a13.405,13.405,0,0,0,3.425.379c2.424-.259,4.823-.759,7.233-1.162,1.8-.3,3.592-.6,5.468-.919m-33.164-9.836c2.315.771,4.406,1.483,6.512,2.148a1.323,1.323,0,0,0,.879-.164c1.3-.664,2.538-1.47,3.881-2.027a22.053,22.053,0,0,1,8.384-1.469,22.9,22.9,0,0,1,11.188,2.424c.8.425,1.553,1.19,2.367,1.249a7.8,7.8,0,0,0,2.7-.826l3.959-1.335c-.263-.134-.367-.2-.478-.243q-9.482-4-18.972-7.981a1.556,1.556,0,0,0-1.073.074q-8.108,3.389-16.2,6.822l-3.146,1.329m.187,9.96c0-.655.038-1.223-.01-1.784a1.082,1.082,0,0,0-1.128-1.042,1.116,1.116,0,0,0-1.3.934c-.062.624-.014,1.259-.014,1.892Z" transform="translate(-949.952 808.84)" fill="#c95dff"/>
        <path id="Path_138" data-name="Path 138" d="M1881.593,255.946c1.014.134,1.573.535,1.627,1.321s-.4,1.292-1.4,1.366a66.124,66.124,0,0,0-14.36,2.649,2.6,2.6,0,0,1-.529.084,1.235,1.235,0,0,1-1.494-.988,1.249,1.249,0,0,1,1-1.43c1.731-.478,3.451-1.028,5.212-1.359,3.3-.619,6.629-1.1,9.945-1.643" transform="translate(-1057.386 624.956)" fill="#c95dff"/>
        <path id="Path_139" data-name="Path 139" d="M1867.288,285.475c-1,0-1.505-.374-1.623-1.038a1.241,1.241,0,0,1,1-1.426,67.034,67.034,0,0,1,15.291-2.716,1.232,1.232,0,0,1,1.445,1.063,1.213,1.213,0,0,1-1.2,1.391c-3.125.445-6.262.821-9.374,1.346-1.639.277-3.235.808-4.851,1.222-.3.076-.595.138-.684.158" transform="translate(-1057.568 605.637)" fill="#c95dff"/>
        <path id="Path_140" data-name="Path 140" d="M1881.938,234.655a1.215,1.215,0,0,1,1.294,1.157,1.188,1.188,0,0,1-1.151,1.291c-2.015.252-4.055.363-6.048.73-2.675.493-5.316,1.173-7.971,1.774-.375.085-.747.184-1.123.263a1.177,1.177,0,0,1-1.477-.854,1.21,1.21,0,0,1,.886-1.491c1.406-.411,2.814-.817,4.237-1.162a63.827,63.827,0,0,1,11.122-1.69c.077,0,.154-.013.231-.017" transform="translate(-1057.388 641.853)" fill="#c95dff"/>
        <path id="Path_141" data-name="Path 141" d="M1748.853,234.437a67.1,67.1,0,0,1,14.913,2.639c.947.279,1.35.826,1.173,1.591a1.4,1.4,0,0,1-1.863.889c-1.968-.483-3.911-1.1-5.9-1.456-2.8-.5-5.636-.827-8.461-1.2-1.009-.132-1.585-.6-1.507-1.363s.69-1.167,1.647-1.1" transform="translate(-963.57 642.031)" fill="#c95dff"/>
        <path id="Path_142" data-name="Path 142" d="M1749.154,280.079a66.744,66.744,0,0,1,14.24,2.51c.3.086.593.163.894.227a1.145,1.145,0,0,1,.981,1.2,1.115,1.115,0,0,1-.994,1.192,3.067,3.067,0,0,1-1.283-.11,65.327,65.327,0,0,0-14-2.558c-1.04-.079-1.554-.563-1.48-1.368.071-.769.659-1.164,1.639-1.1" transform="translate(-963.815 605.81)" fill="#c95dff"/>
        <path id="Path_143" data-name="Path 143" d="M1748.958,256.762a66.828,66.828,0,0,1,14.313,2.543,5.618,5.618,0,0,0,.97.219,1.076,1.076,0,0,1,1.018,1.07,1.064,1.064,0,0,1-.872,1.267,3.476,3.476,0,0,1-1.5-.112,66.28,66.28,0,0,0-13.928-2.508c-.967-.07-1.5-.554-1.448-1.331a1.231,1.231,0,0,1,1.449-1.148" transform="translate(-963.813 624.311)" fill="#c95dff"/>
        <path id="Path_144" data-name="Path 144" d="M1748.785,201.942c2.24.274,4.482.538,6.721.826a1.249,1.249,0,0,1,1.258,1.364,1.2,1.2,0,0,1-1.472,1.1c-2.347-.238-4.691-.515-7.034-.8a1.217,1.217,0,0,1-1.048-1.312c.074-.732.683-1.167,1.574-1.18" transform="translate(-963.575 667.813)" fill="#c95dff"/>
        <path id="Path_145" data-name="Path 145" d="M1749.359,183.283c1.1.112,2.2.212,3.291.341a1.213,1.213,0,0,1,1.16,1.286,1.19,1.19,0,0,1-1.345,1.167c-1.279-.073-2.559-.189-3.83-.346a1.23,1.23,0,1,1,.26-2.447c.154,0,.308.013.461.021,0-.007,0-.015,0-.023" transform="translate(-963.818 682.621)" fill="#c95dff"/>
    </g>
</svg>
