<svg id="Group_651" data-name="Group 651" xmlns="http://www.w3.org/2000/svg"
    xmlns:xlink="http://www.w3.org/1999/xlink" width="18.754" height="18.803"
    viewBox="0 0 18.754 18.803">
    <defs>
        <clipPath id="clip-path">
            <rect id="Rectangle_896" data-name="Rectangle 896" width="18.754" height="18.803"
                fill="#c95dff" />
        </clipPath>
    </defs>
    <g id="Group_650" data-name="Group 650" clip-path="url(#clip-path)">
        <path id="Path_455" data-name="Path 455"
            d="M4.97,54.864a1.356,1.356,0,0,1-.56-.423Q2.34,52.117.265,49.8a.813.813,0,0,1-.114-1.069.763.763,0,0,1,1.13-.141,2.62,2.62,0,0,1,.307.314q1.323,1.488,2.644,2.979c.024.027.049.053.111.119v-.247q0-6.471,0-12.942a1.26,1.26,0,0,1,.119-.543A.763.763,0,0,1,5.33,37.9a.8.8,0,0,1,.6.708c.007.091.007.183.007.275q0,6.425,0,12.85v.214l.056.039a1.134,1.134,0,0,1,.1-.147Q7.443,50.309,8.8,48.781a1.285,1.285,0,0,1,.365-.3.765.765,0,0,1,.943.213.787.787,0,0,1,0,.985c-.232.284-.486.55-.731.823q-1.813,2.011-3.631,4.017a2.715,2.715,0,0,1-.484.342Z"
            transform="translate(0 -36.061)" fill="#c95dff" />
        <path id="Path_456" data-name="Path 456"
            d="M180.748,2.922l-1.095,1.232q-.92,1.037-1.839,2.075a.772.772,0,0,1-1.075.083.8.8,0,0,1-.174-1.042,1.477,1.477,0,0,1,.149-.186l4.2-4.665L180.929.4c.5-.543.909-.54,1.395.008Q184.4,2.756,186.476,5.1a.809.809,0,0,1,.214.809.768.768,0,0,1-1.289.352,6.067,6.067,0,0,1-.485-.526q-1.2-1.352-2.4-2.706c-.032-.036-.058-.077-.087-.115l-.048.018v.208q0,6.482,0,12.963a.771.771,0,0,1-.643.848.8.8,0,0,1-.941-.7c-.009-.1-.009-.2-.009-.293q0-6.4,0-12.8V2.942l-.041-.02"
            transform="translate(-167.97 0.001)" fill="#c95dff" />
    </g>
</svg>