<svg id="Group_44" data-name="Group 44"
    xmlns="http://www.w3.org/2000/svg"
    xmlns:xlink="http://www.w3.org/1999/xlink" width="35.605" height="21.193" viewBox="0 0 35.605 21.193">
    <defs>
        <clipPath id="clip-path">
            <rect id="Rectangle_114" data-name="Rectangle 114" width="35.605" height="21.193" fill="#fff"/>
        </clipPath>
    </defs>
    <g id="Group_41" data-name="Group 41" clip-path="url(#clip-path)">
        <path id="Path_147" data-name="Path 147" d="M35.605,10.876c-.37.541-.7,1.113-1.117,1.617a25.005,25.005,0,0,1-8.017,6.595,19.027,19.027,0,0,1-6.849,2.018,19.255,19.255,0,0,1-12.85-3.412A27.1,27.1,0,0,1,.34,11.507a1.4,1.4,0,0,1,0-1.823A26.445,26.445,0,0,1,7.975,2.742,19.386,19.386,0,0,1,16.016.087,19.018,19.018,0,0,1,27.747,2.812a26.354,26.354,0,0,1,7.536,6.9,4.137,4.137,0,0,1,.322.606Zm-17.725,7.2A7.478,7.478,0,1,0,10.324,10.8a7.5,7.5,0,0,0,7.556,7.278" transform="translate(0 0)" fill="#fff"/>
        <path id="Path_148" data-name="Path 148" d="M159.535,76.222a4.029,4.029,0,1,1-3.937-4.034,4.023,4.023,0,0,1,3.937,4.034" transform="translate(-137.699 -65.622)" fill="#fff"/>
    </g>
</svg>
