<svg id="Group_814" data-name="Group 814"
    xmlns="http://www.w3.org/2000/svg" width="14.223" height="27.416" viewBox="0 0 14.223 27.416">
    <path className="hover:fill-purple-600" id="Path_93" data-name="Path 93" d="M-3984.569,400.508c.461.036.922.071,1.382.109.318.026.636.056.963.085v4.361c-.131,0-.253,0-.374,0-.919.013-1.84,0-2.757.048a1.718,1.718,0,0,0-1.824,1.8c-.053,1.193-.011,2.391-.011,3.626h4.806c-.213,1.649-.42,3.255-.631,4.888h-4.187v12.5h-5.039V415.439h-4.2v-4.88h4.2c0-.137,0-.241,0-.344.006-1.277-.026-2.555.026-3.83a6.1,6.1,0,0,1,1.6-4.1,5.571,5.571,0,0,1,3.018-1.615c.312-.065.628-.112.942-.166Z" transform="translate(3996.446 -400.508)" fill="#b8b8b8" />
</svg>