<svg id="Group_901" data-name="Group 901" xmlns="http://www.w3.org/2000/svg"
    xmlns:xlink="http://www.w3.org/1999/xlink" width="14.877" height="14.878"
    viewBox="0 0 14.877 14.878">
    <defs>
        <clipPath id="clip-path">
            <rect id="Rectangle_1210" data-name="Rectangle 1210" width="14.877" height="14.878"
                fill="#c95dff" />
        </clipPath>
    </defs>
    <g id="Group_900" data-name="Group 900" clip-path="url(#clip-path)">
        <path id="Path_477" data-name="Path 477"
            d="M0,273.83a.6.6,0,0,1,.613-.332c2.25.007,4.5,0,6.751.007a.191.191,0,0,0,.224-.169,2.162,2.162,0,0,1,4.145.017l.043.149h.2c.794,0,1.587,0,2.381,0a.469.469,0,1,1,.008.934q-1.205,0-2.41,0h-.184a2.2,2.2,0,0,1-1,1.384,2.117,2.117,0,0,1-1.335.3,2.18,2.18,0,0,1-1.9-1.684H7.354c-2.25,0-4.5,0-6.751,0a.577.577,0,0,1-.6-.349ZM9.651,275.2a1.231,1.231,0,1,0-1.228-1.226A1.238,1.238,0,0,0,9.651,275.2"
            transform="translate(0 -261.252)" fill="#c95dff" />
        <path id="Path_478" data-name="Path 478"
            d="M9.963,0a5.118,5.118,0,0,1,.6.2,2.159,2.159,0,0,1,1.208,1.49h.154q1.227,0,2.454,0a.476.476,0,0,1,.478.349.445.445,0,0,1-.209.511.761.761,0,0,1-.333.072c-.789.006-1.578,0-2.367,0h-.177a2.181,2.181,0,0,1-.468.931,2.076,2.076,0,0,1-2.057.725A2.081,2.081,0,0,1,7.581,2.763c-.036-.116-.089-.142-.2-.141-2.255,0-4.51,0-6.766.007A.6.6,0,0,1,0,2.3V2.034a.572.572,0,0,1,.6-.349c2.254.007,4.508,0,6.762,0h.171c.016-.05.028-.086.038-.122a2.062,2.062,0,0,1,1-1.277A5.583,5.583,0,0,1,9.324,0Zm-.3.927A1.231,1.231,0,1,0,10.889,2.16,1.232,1.232,0,0,0,9.663.928"
            transform="translate(0 -0.001)" fill="#c95dff" />
        <path id="Path_479" data-name="Path 479"
            d="M0,137.841a.545.545,0,0,1,.583-.352c.784.012,1.568,0,2.352,0h.156a2.175,2.175,0,0,1,4.246,0H14.37a.464.464,0,0,1,.466.646.473.473,0,0,1-.478.284q-3.086,0-6.172,0H7.337a2.2,2.2,0,0,1-.94,1.35,2.081,2.081,0,0,1-1.207.352,2.195,2.195,0,0,1-2.1-1.7H2.414c-.61,0-1.22-.009-1.83,0A.547.547,0,0,1,0,138.073Zm5.212,1.343a1.227,1.227,0,1,0-1.229-1.225,1.228,1.228,0,0,0,1.229,1.225"
            transform="translate(0 -130.521)" fill="#c95dff" />
    </g>
</svg>