<svg xmlns="http://www.w3.org/2000/svg" width="235.827" height="58.834" viewBox="0 0 235.827 58.834">
    <g id="Group_35" data-name="Group 35" transform="translate(0 0)">
        <path id="Path_10" data-name="Path 10" d="M39.721,21.633V10.556H18.387V21.633H39.721Z" transform="translate(3.769 2.163)" fill="#c95dff"/>
        <path id="Path_11" data-name="Path 11" d="M113.811,19.693V8.616h-5.58V0H97.565V8.616H92.478V19.693h21.334Z" transform="translate(18.954 0)" fill="#c95dff"/>
        <path id="Path_12" data-name="Path 12" d="M234.966,29.64a19.2,19.2,0,0,0-2.421-4.842,17.581,17.581,0,0,0-3.816-3.98,15.446,15.446,0,0,0-5.045-2.544l-30.2-9.354-3.258,12.14c-.354.1-.7.2-1.05.333a14.445,14.445,0,0,0-4.35,2.544,15.948,15.948,0,0,0-3.281,3.857,14.216,14.216,0,0,0-1.846,4.84l-1.313,6.319a11.368,11.368,0,0,0-.2,2.5,1.939,1.939,0,0,0,.616,1.6h-2.353a1.518,1.518,0,0,0-.518-.082H155.577a1.53,1.53,0,0,0-.519.082h-3.091q-2.3,0-2.3-2.626V22.3h-11.9V40.758a2.266,2.266,0,0,1-.657,1.6,2.164,2.164,0,0,1-1.642.7H130.96a2.074,2.074,0,0,1-1.764-.821,2.469,2.469,0,0,1-.369-2.051L131.617,26.4l-12.062-1.97-3.282,16.33a2.56,2.56,0,0,1-.944,1.682,2.777,2.777,0,0,1-1.764.616h-3.036a2.316,2.316,0,0,1-1.436-.657,2.23,2.23,0,0,1-.78-1.805V24.429H96.579V40.677a2.365,2.365,0,0,1-.657,1.682,2.157,2.157,0,0,1-1.64.7h-3.01a1.525,1.525,0,0,0-.519-.082H70.4a1.53,1.53,0,0,0-.519.082h-1.86a2.1,2.1,0,0,1-1.64-.739,2.4,2.4,0,0,1-.657-1.641V24.348h-11.9V40.84a2.134,2.134,0,0,1-.657,1.559,2.229,2.229,0,0,1-1.642.657H17.067a5.045,5.045,0,0,1-3.651-1.477,4.842,4.842,0,0,1-1.518-3.61v-16H0V38.706a17.687,17.687,0,0,0,1.435,7.1,18.891,18.891,0,0,0,3.9,5.826,18.052,18.052,0,0,0,5.784,3.939,17.692,17.692,0,0,0,7.1,1.436H49.4a16.352,16.352,0,0,0,5.58-.945,12.307,12.307,0,0,0,4.84-3.322A12.586,12.586,0,0,0,64.5,56.02a14.851,14.851,0,0,0,5.415.986H92.394a15.079,15.079,0,0,0,5.374-.945,11.9,11.9,0,0,0,4.637-3.322,11.638,11.638,0,0,0,4.8,3.322,16.217,16.217,0,0,0,5.457.945,13.124,13.124,0,0,0,4.964-.945,12.267,12.267,0,0,0,4.472-3.322,8.835,8.835,0,0,0,2.338,2.051,13.651,13.651,0,0,0,2.873,1.313,17.333,17.333,0,0,0,3.037.7,20.592,20.592,0,0,0,2.749.206,16.9,16.9,0,0,0,5.662-.986,12.206,12.206,0,0,0,4.923-3.281,11.749,11.749,0,0,0,4.717,3.322,16.01,16.01,0,0,0,5.539.945h45.212a9.743,9.743,0,0,0,4.635-1.027,11.671,11.671,0,0,0,5.457-5.538v6.565h14.032a10.724,10.724,0,0,0,4.635-1.068,14.71,14.71,0,0,0,4.021-2.789,13.683,13.683,0,0,0,2.83-3.98,10.914,10.914,0,0,0,1.068-4.717v-9.6a16.408,16.408,0,0,0-.862-5.21M201.2,43.056h-9.847a1.291,1.291,0,0,1-.9-.534,1.832,1.832,0,0,1-.328-1.107l1.148-6.976a1.6,1.6,0,0,1,.575-1.066,1.447,1.447,0,0,1,1.15-.328h6.728a1.407,1.407,0,0,1,1.476,1.477Zm22.811-.082h-11.4a7.7,7.7,0,0,0,.287-1.027,13.142,13.142,0,0,0,.2-2.749V35.835a14.4,14.4,0,0,0-1.23-5.949,16.087,16.087,0,0,0-1.3-2.341l10.98,3.45a3.48,3.48,0,0,1,1.806,1.435,3.538,3.538,0,0,1,.656,1.846Z" transform="translate(0 1.828)" fill="#c95dff"/>
    </g>
</svg>
