<svg xmlns="http://www.w3.org/2000/svg" width="27.419" height="27.416" viewBox="0 0 27.419 27.416">
    <g id="Group_815" data-name="Group 815" transform="translate(0)">
        <path className="hover:fill-purple-600" id="Path_94" data-name="Path 94" d="M-3850.941,406.827v14.778c-.034.191-.066.383-.1.574a6.7,6.7,0,0,1-4.259,5.249,13.756,13.756,0,0,1-1.958.5h-14.778a15,15,0,0,1-1.536-.333,6.839,6.839,0,0,1-4.779-6.566q-.019-6.813,0-13.625a6.6,6.6,0,0,1,1.27-3.984,6.778,6.778,0,0,1,5.755-2.906q6.625-.006,13.25,0a7.833,7.833,0,0,1,1.385.1,6.662,6.662,0,0,1,5.266,4.277A13.827,13.827,0,0,1-3850.941,406.827Zm-13.7,1.677a5.727,5.727,0,0,0-5.715,5.7,5.732,5.732,0,0,0,5.71,5.729,5.731,5.731,0,0,0,5.716-5.7A5.734,5.734,0,0,0-3864.646,408.5Zm7.412-.006a1.715,1.715,0,0,0,1.723-1.709,1.726,1.726,0,0,0-1.7-1.71,1.714,1.714,0,0,0-1.716,1.688A1.7,1.7,0,0,0-3857.234,408.5Z" transform="translate(3878.36 -400.508)" fill="#b8b8b8" />
    </g>
</svg>