<svg id="Group_1030" data-name="Group 1030"
    xmlns="http://www.w3.org/2000/svg"
    xmlns:xlink="http://www.w3.org/1999/xlink" width="493.367" height="280.533" viewBox="0 0 493.367 280.533">
    <defs>
        <clipPath id="clip-path">
            <rect id="Rectangle_1401" data-name="Rectangle 1401" width="493.367" height="280.533" fill="none"/>
        </clipPath>
        <clipPath id="clip-path-5">
            <rect id="Rectangle_1386" data-name="Rectangle 1386" width="32.073" height="39.077" fill="none"/>
        </clipPath>
        <clipPath id="clip-path-8">
            <rect id="Rectangle_1393" data-name="Rectangle 1393" width="16.021" height="33.988" fill="none"/>
        </clipPath>
        <clipPath id="clip-path-9">
            <rect id="Rectangle_1394" data-name="Rectangle 1394" width="21.998" height="38.85" fill="none"/>
        </clipPath>
        <clipPath id="clip-path-10">
            <rect id="Rectangle_1395" data-name="Rectangle 1395" width="16.005" height="25.981" fill="none"/>
        </clipPath>
        <clipPath id="clip-path-11">
            <rect id="Rectangle_1396" data-name="Rectangle 1396" width="16.575" height="29.858" fill="none"/>
        </clipPath>
        <clipPath id="clip-path-12">
            <rect id="Rectangle_1397" data-name="Rectangle 1397" width="24.448" height="10.835" fill="none"/>
        </clipPath>
        <clipPath id="clip-path-13">
            <rect id="Rectangle_1398" data-name="Rectangle 1398" width="23.228" height="11.537" fill="none"/>
        </clipPath>
    </defs>
    <g id="Group_1029" data-name="Group 1029" clip-path="url(#clip-path)">
        <g id="Group_997" data-name="Group 997">
            <g id="Group_996" data-name="Group 996" clip-path="url(#clip-path)">
                <path id="Path_509" data-name="Path 509" d="M560.848,157.119h99.661l-16.235,11.715v23.048a4.813,4.813,0,0,1-4.813,4.813H560.848a4.813,4.813,0,0,1-4.813-4.813V161.932a4.813,4.813,0,0,1,4.813-4.813" transform="translate(-167.141 -47.229)" fill="#f5f5f5"/>
                <path id="Path_510" data-name="Path 510" d="M568.86,180.333c0,.1,15.031.174,33.568.174S636,180.429,636,180.333s-15.028-.174-33.572-.174-33.568.078-33.568.174" transform="translate(-170.996 -54.155)" fill="#e0e0e0"/>
                <path id="Path_511" data-name="Path 511" d="M568.86,192.986c0,.1,15.031.174,33.568.174S636,193.082,636,192.986s-15.028-.174-33.572-.174-33.568.078-33.568.174" transform="translate(-170.996 -57.958)" fill="#e0e0e0"/>
                <rect id="Rectangle_1363" data-name="Rectangle 1363" width="4.664" height="15.623" transform="translate(237.683 24.843)" fill="#e0e0e0"/>
                <rect id="Rectangle_1364" data-name="Rectangle 1364" width="4.664" height="17.886" transform="translate(198.729 22.579)" fill="#e0e0e0"/>
                <rect id="Rectangle_1365" data-name="Rectangle 1365" width="4.664" height="21.614" transform="translate(208.468 18.851)" fill="#e0e0e0"/>
                <rect id="Rectangle_1366" data-name="Rectangle 1366" width="4.664" height="20.428" transform="translate(218.206 20.037)" fill="#e0e0e0"/>
                <rect id="Rectangle_1367" data-name="Rectangle 1367" width="4.664" height="27.339" transform="translate(227.945 13.126)" fill="#e0e0e0"/>
                <rect id="Rectangle_1368" data-name="Rectangle 1368" width="4.664" height="27.206" transform="translate(247.423 13.259)" fill="#e0e0e0"/>
                <rect id="Rectangle_1369" data-name="Rectangle 1369" width="4.664" height="18.271" transform="translate(257.161 22.194)" fill="#e0e0e0"/>
                <rect id="Rectangle_1370" data-name="Rectangle 1370" width="4.664" height="26.007" transform="translate(266.9 14.457)" fill="#e0e0e0"/>
                <rect id="Rectangle_1371" data-name="Rectangle 1371" width="4.664" height="31.866" transform="translate(276.639 8.598)" fill="#e0e0e0"/>
                <rect id="Rectangle_1372" data-name="Rectangle 1372" width="4.664" height="26.141" transform="translate(286.377 14.325)" fill="#e0e0e0"/>
                <path id="Path_512" data-name="Path 512" d="M575.059,39.016l38.569-5.893A39.016,39.016,0,1,1,579.342.236Z" transform="translate(-161.132 0)" fill="#ebebeb"/>
                <path id="Path_513" data-name="Path 513" d="M607.707.513l-4.683,29.9L632.372,24.9S628.056,8.144,607.707.513" transform="translate(-181.265 -0.154)" fill="#e0e0e0"/>
                <path id="Path_514" data-name="Path 514" d="M28.746,151.094A19.124,19.124,0,1,1,48.175,170a19.194,19.194,0,0,1-19.429-18.9m28.264-.456a9.144,9.144,0,1,0-9,9.333,9.174,9.174,0,0,0,9-9.333" transform="translate(-8.64 -39.55)" fill="#f5f5f5"/>
                <path id="Path_515" data-name="Path 515" d="M28.746,151.1A19.193,19.193,0,0,1,47.56,131.577l.161,10.025a9.186,9.186,0,0,0,.294,18.37L48.175,170a19.186,19.186,0,0,1-19.429-18.9" transform="translate(-8.64 -39.551)" fill="#e0e0e0"/>
                <path id="Path_516" data-name="Path 516" d="M53.193,129.371a21.85,21.85,0,0,1,22.373,21.766l-11.674.188c-.1-5.925-4.6-9.655-10.5-9.56Z" transform="translate(-15.989 -38.887)" fill="#ebebeb"/>
                <rect id="Rectangle_1373" data-name="Rectangle 1373" width="24.308" height="28.898" transform="translate(120.04 178.996)" fill="#f5f5f5"/>
                <rect id="Rectangle_1374" data-name="Rectangle 1374" width="109.853" height="32.599" transform="translate(11.025 177.111)" fill="#e0e0e0"/>
                <path id="Path_517" data-name="Path 517" d="M195.77,255.973H168.618v-2.742H195.77a1.371,1.371,0,0,1,0,2.742" transform="translate(-50.686 -76.12)" fill="#e0e0e0"/>
                <path id="Path_518" data-name="Path 518" d="M195.77,298.663H168.618v-2.742H195.77a1.371,1.371,0,1,1,0,2.742" transform="translate(-50.686 -88.952)" fill="#e0e0e0"/>
                <rect id="Rectangle_1375" data-name="Rectangle 1375" width="12.978" height="32.599" transform="translate(99.262 177.111)" fill="#ebebeb"/>
                <rect id="Rectangle_1376" data-name="Rectangle 1376" width="12.979" height="32.599" transform="translate(21.472 177.472)" fill="#ebebeb"/>
                <path id="Path_519" data-name="Path 519" d="M196.287,262.7c0,.08-5.261.144-11.749.144s-11.75-.064-11.75-.144,5.26-.144,11.75-.144,11.749.064,11.749.144" transform="translate(-51.939 -78.922)" fill="#e0e0e0"/>
                <path id="Path_520" data-name="Path 520" d="M196.287,268.893c0,.08-5.261.144-11.749.144s-11.75-.064-11.75-.144,5.26-.144,11.75-.144,11.749.064,11.749.144" transform="translate(-51.939 -80.784)" fill="#e0e0e0"/>
                <path id="Path_521" data-name="Path 521" d="M196.287,276.522c0,.08-5.261.144-11.749.144s-11.75-.064-11.75-.144,5.26-.145,11.75-.145,11.749.065,11.749.145" transform="translate(-51.939 -83.077)" fill="#e0e0e0"/>
                <path id="Path_522" data-name="Path 522" d="M196.287,284.151c0,.08-5.261.144-11.749.144s-11.75-.064-11.75-.144,5.26-.144,11.75-.144,11.749.064,11.749.144" transform="translate(-51.939 -85.371)" fill="#e0e0e0"/>
                <path id="Path_523" data-name="Path 523" d="M196.287,291.78c0,.08-5.261.144-11.749.144s-11.75-.064-11.75-.144,5.26-.144,11.75-.144,11.749.064,11.749.144" transform="translate(-51.939 -87.664)" fill="#e0e0e0"/>
                <rect id="Rectangle_1377" data-name="Rectangle 1377" width="49.421" height="5.87" transform="translate(42.863 190.509)" fill="#ebebeb"/>
                <rect id="Rectangle_1378" data-name="Rectangle 1378" width="24.681" height="17.608" transform="translate(119.42 210.349)" fill="#fafafa"/>
                <rect id="Rectangle_1379" data-name="Rectangle 1379" width="105.034" height="18.886" transform="translate(14.662 209.711)" fill="#f5f5f5"/>
                <path id="Path_524" data-name="Path 524" d="M170.048,301.119h26.528a.639.639,0,0,0,0-1.278H170.048Z" transform="translate(-51.115 -90.13)" fill="#f5f5f5"/>
                <path id="Path_525" data-name="Path 525" d="M170.048,326.295h26.873a.293.293,0,0,0,.293-.293v-.692a.293.293,0,0,0-.293-.293H170.048Z" transform="translate(-51.115 -97.698)" fill="#f5f5f5"/>
                <path id="Path_526" data-name="Path 526" d="M195.544,305.475c0,.08-5.464.145-12.2.145s-12.2-.065-12.2-.145,5.462-.144,12.2-.144,12.2.064,12.2.144" transform="translate(-51.444 -91.781)" fill="#e0e0e0"/>
                <path id="Path_527" data-name="Path 527" d="M195.544,310.238c0,.08-5.464.145-12.2.145s-12.2-.065-12.2-.145,5.462-.144,12.2-.144,12.2.064,12.2.144" transform="translate(-51.444 -93.212)" fill="#e0e0e0"/>
                <path id="Path_528" data-name="Path 528" d="M195.544,315c0,.08-5.464.144-12.2.144s-12.2-.064-12.2-.144,5.462-.144,12.2-.144,12.2.064,12.2.144" transform="translate(-51.444 -94.644)" fill="#e0e0e0"/>
                <path id="Path_529" data-name="Path 529" d="M195.544,319.764c0,.08-5.464.144-12.2.144s-12.2-.064-12.2-.144,5.462-.144,12.2-.144,12.2.064,12.2.144" transform="translate(-51.444 -96.076)" fill="#e0e0e0"/>
                <rect id="Rectangle_1380" data-name="Rectangle 1380" width="25.191" height="47.732" transform="translate(122.653 230.275)" fill="#ebebeb"/>
                <rect id="Rectangle_1381" data-name="Rectangle 1381" width="118.249" height="51.755" transform="translate(4.405 228.597)" fill="#e0e0e0"/>
                <path id="Path_530" data-name="Path 530" d="M201.141,399.4h-30.4v-3.356h30.4a1.678,1.678,0,1,1,0,3.356" transform="translate(-51.325 -119.048)" fill="#e0e0e0"/>
                <path id="Path_531" data-name="Path 531" d="M202.05,330.2h-31.3v-3.356h31.3a.77.77,0,0,1,.77.77v1.816a.77.77,0,0,1-.77.77" transform="translate(-51.325 -98.247)" fill="#e0e0e0"/>
                <path id="Path_532" data-name="Path 532" d="M200.559,338.33c0,.08-5.64.144-12.595.144s-12.6-.064-12.6-.144,5.639-.144,12.6-.144,12.595.064,12.595.144" transform="translate(-52.715 -101.657)" fill="#e0e0e0"/>
                <path id="Path_533" data-name="Path 533" d="M200.559,347.083c0,.08-5.64.144-12.595.144s-12.6-.064-12.6-.144,5.639-.144,12.6-.144,12.595.064,12.595.144" transform="translate(-52.715 -104.288)" fill="#e0e0e0"/>
                <path id="Path_534" data-name="Path 534" d="M200.559,355.836c0,.08-5.64.144-12.595.144s-12.6-.064-12.6-.144,5.639-.144,12.6-.144,12.595.064,12.595.144" transform="translate(-52.715 -106.919)" fill="#e0e0e0"/>
                <path id="Path_535" data-name="Path 535" d="M200.559,364.589c0,.08-5.64.145-12.595.145s-12.6-.065-12.6-.145,5.639-.144,12.6-.144,12.595.064,12.595.144" transform="translate(-52.715 -109.55)" fill="#e0e0e0"/>
                <path id="Path_536" data-name="Path 536" d="M200.559,373.342c0,.08-5.64.144-12.595.144s-12.6-.064-12.6-.144,5.639-.144,12.6-.144,12.595.064,12.595.144" transform="translate(-52.715 -112.181)" fill="#e0e0e0"/>
                <path id="Path_537" data-name="Path 537" d="M200.559,382.1c0,.08-5.64.144-12.595.144s-12.6-.064-12.6-.144,5.639-.144,12.6-.144,12.595.064,12.595.144" transform="translate(-52.715 -114.812)" fill="#e0e0e0"/>
                <path id="Path_538" data-name="Path 538" d="M200.559,390.849c0,.08-5.64.144-12.595.144s-12.6-.064-12.6-.144,5.639-.144,12.6-.144,12.595.064,12.595.144" transform="translate(-52.715 -117.444)" fill="#e0e0e0"/>
                <path id="Path_539" data-name="Path 539" d="M59.786,361.943v2.879c0,3.468-1.734,5.45-5.078,5.45s-5.078-1.981-5.078-5.45V353.552c0-3.468,1.734-5.45,5.078-5.45s5.078,1.982,5.078,5.45v2.106h-3.22v-2.323c0-1.548-.681-2.136-1.765-2.136s-1.765.588-1.765,2.136v11.7c0,1.548.681,2.106,1.765,2.106s1.765-.557,1.765-2.106v-3.1Z" transform="translate(-14.918 -104.637)" fill="#ebebeb"/>
                <path id="Path_540" data-name="Path 540" d="M66.715,353.552c0-3.468,1.827-5.45,5.171-5.45s5.171,1.981,5.171,5.45v11.271c0,3.468-1.827,5.45-5.171,5.45s-5.171-1.981-5.171-5.45Zm3.406,11.488c0,1.548.681,2.137,1.765,2.137s1.765-.588,1.765-2.137v-11.7c0-1.548-.681-2.137-1.765-2.137s-1.765.588-1.765,2.137Z" transform="translate(-20.054 -104.637)" fill="#ebebeb"/>
                <path id="Path_541" data-name="Path 541" d="M84.642,348.457h3.406v18.579h5.6v3.1h-9.01Z" transform="translate(-25.443 -104.744)" fill="#ebebeb"/>
                <path id="Path_542" data-name="Path 542" d="M99.248,353.552c0-3.468,1.827-5.45,5.171-5.45s5.171,1.981,5.171,5.45v11.271c0,3.468-1.827,5.45-5.171,5.45s-5.171-1.981-5.171-5.45Zm3.406,11.488c0,1.548.681,2.137,1.765,2.137s1.765-.588,1.765-2.137v-11.7c0-1.548-.681-2.137-1.765-2.137s-1.765.588-1.765,2.137Z" transform="translate(-29.833 -104.637)" fill="#ebebeb"/>
                <path id="Path_543" data-name="Path 543" d="M120.36,348.457v16.721c0,1.548.681,2.106,1.765,2.106s1.765-.557,1.765-2.106V348.457h3.221v16.5c0,3.468-1.735,5.45-5.078,5.45s-5.078-1.981-5.078-5.45v-16.5Z" transform="translate(-35.156 -104.744)" fill="#ebebeb"/>
                <path id="Path_544" data-name="Path 544" d="M141.914,370.132a6.66,6.66,0,0,1-.31-2.663v-3.406c0-2.013-.681-2.756-2.23-2.756H138.2v8.825h-3.406V348.457h5.14c3.53,0,5.048,1.641,5.048,4.985v1.7c0,2.229-.713,3.684-2.23,4.4,1.7.713,2.26,2.354,2.26,4.614V367.5a6.385,6.385,0,0,0,.371,2.633ZM138.2,351.553v6.658h1.332c1.269,0,2.044-.557,2.044-2.292v-2.136c0-1.549-.527-2.23-1.735-2.23Z" transform="translate(-40.518 -104.744)" fill="#ebebeb"/>
                <path id="Path_545" data-name="Path 545" d="M62.031,310.2H59.546l.131-.643h5.7l-.141.643H62.764l-1.277,6.395h-.734Z" transform="translate(-17.899 -93.051)" fill="#e0e0e0"/>
                <path id="Path_546" data-name="Path 546" d="M71.7,312.057l-3.861,5.974c-.653,1.006-1.146,1.316-1.91,1.316a1.714,1.714,0,0,1-1.257-.472l.382-.522a1.235,1.235,0,0,0,.935.382c.453,0,.8-.211,1.217-.855l.372-.562-1.318-5.26h.724l1.1,4.5,2.886-4.5Z" transform="translate(-19.441 -93.802)" fill="#e0e0e0"/>
                <path id="Path_547" data-name="Path 547" d="M80.412,314.233a2.98,2.98,0,0,1-3,3.147,1.979,1.979,0,0,1-2.011-1.157l-.6,3.058h-.715l1.439-7.24h.683l-.171.845A2.679,2.679,0,0,1,78.1,312a2.138,2.138,0,0,1,2.312,2.232m-.724.041a1.549,1.549,0,0,0-1.74-1.649,2.308,2.308,0,0,0-2.282,2.482,1.542,1.542,0,0,0,1.739,1.64,2.305,2.305,0,0,0,2.283-2.473" transform="translate(-22.27 -93.786)" fill="#e0e0e0"/>
                <path id="Path_548" data-name="Path 548" d="M84.32,315.138A3,3,0,0,1,87.376,312a2.165,2.165,0,0,1,2.4,2.232,3,3,0,0,1-3.056,3.147,2.178,2.178,0,0,1-2.4-2.242m4.746-.864a1.549,1.549,0,0,0-1.739-1.649,2.322,2.322,0,0,0-2.293,2.482,1.542,1.542,0,0,0,1.739,1.64,2.313,2.313,0,0,0,2.293-2.473" transform="translate(-25.346 -93.786)" fill="#e0e0e0"/>
                <path id="Path_549" data-name="Path 549" d="M99.181,312.039l-.925,4.646c-.372,1.87-1.358,2.644-3.077,2.644a3.355,3.355,0,0,1-2.353-.795l.422-.543a2.766,2.766,0,0,0,1.981.7,2.07,2.07,0,0,0,2.292-1.89l.122-.585a2.741,2.741,0,0,1-2.112.906A2.1,2.1,0,0,1,93.2,315,2.921,2.921,0,0,1,96.215,312a2.026,2.026,0,0,1,2.061,1.206l.221-1.167Zm-1.206,2.122c0-.965-.654-1.537-1.75-1.537a2.242,2.242,0,0,0-2.3,2.332c0,.965.643,1.539,1.749,1.539a2.249,2.249,0,0,0,2.3-2.333" transform="translate(-27.903 -93.786)" fill="#e0e0e0"/>
                <path id="Path_550" data-name="Path 550" d="M106.979,312l-.131.693c-.071,0-.121-.01-.2-.01a2.093,2.093,0,0,0-2.142,1.961l-.532,2.685h-.714l1.046-5.29h.683l-.181.965a2.392,2.392,0,0,1,2.172-1" transform="translate(-31.039 -93.786)" fill="#e0e0e0"/>
                <path id="Path_551" data-name="Path 551" d="M114.694,312.04l-1.055,5.289h-.684l.171-.834a2.709,2.709,0,0,1-2.061.885,2.132,2.132,0,0,1-2.3-2.242A2.974,2.974,0,0,1,111.748,312a1.986,1.986,0,0,1,2.011,1.146l.222-1.106Zm-1.186,2.233a1.549,1.549,0,0,0-1.739-1.649,2.322,2.322,0,0,0-2.293,2.482,1.542,1.542,0,0,0,1.739,1.64,2.313,2.313,0,0,0,2.293-2.473" transform="translate(-32.693 -93.786)" fill="#e0e0e0"/>
                <path id="Path_552" data-name="Path 552" d="M124.34,314.233a2.98,2.98,0,0,1-3,3.147,1.979,1.979,0,0,1-2.011-1.157l-.6,3.058h-.714l1.438-7.24h.683l-.171.845a2.678,2.678,0,0,1,2.062-.884,2.138,2.138,0,0,1,2.312,2.232m-.724.041a1.549,1.549,0,0,0-1.739-1.649,2.309,2.309,0,0,0-2.283,2.482,1.542,1.542,0,0,0,1.739,1.64,2.305,2.305,0,0,0,2.283-2.473" transform="translate(-35.475 -93.786)" fill="#e0e0e0"/>
                <path id="Path_553" data-name="Path 553" d="M133.839,312.8a3.2,3.2,0,0,1-.061.6l-.6,3.007h-.714l.6-3.017a2.883,2.883,0,0,0,.05-.482c0-.754-.453-1.186-1.367-1.186a2.062,2.062,0,0,0-2.153,1.85l-.562,2.835h-.714l1.488-7.461h.713l-.593,2.966a2.579,2.579,0,0,1,2.021-.834,1.658,1.658,0,0,1,1.891,1.719" transform="translate(-38.572 -92.869)" fill="#e0e0e0"/>
                <path id="Path_554" data-name="Path 554" d="M142.746,312.057l-3.861,5.974c-.653,1.006-1.146,1.316-1.91,1.316a1.714,1.714,0,0,1-1.257-.472l.382-.522a1.235,1.235,0,0,0,.935.382c.453,0,.8-.211,1.217-.855l.372-.562-1.318-5.26h.724l1.1,4.5,2.886-4.5Z" transform="translate(-40.796 -93.802)" fill="#e0e0e0"/>
                <path id="Path_555" data-name="Path 555" d="M122.44,1.277H15.159L32.634,13.888V38.7a5.181,5.181,0,0,0,5.181,5.18H122.44a5.181,5.181,0,0,0,5.181-5.18V6.458a5.181,5.181,0,0,0-5.181-5.181" transform="translate(-4.557 -0.384)" fill="#f5f5f5"/>
                <path id="Path_556" data-name="Path 556" d="M131.087,26.266c0,.1-16.18.187-36.135.187s-36.138-.084-36.138-.187,16.177-.187,36.138-.187,36.135.084,36.135.187" transform="translate(-17.679 -7.839)" fill="#e0e0e0"/>
                <path id="Path_557" data-name="Path 557" d="M131.087,39.886c0,.1-16.18.187-36.135.187s-36.138-.084-36.138-.187S74.991,39.7,94.952,39.7s36.135.084,36.135.187" transform="translate(-17.679 -11.933)" fill="#e0e0e0"/>
            </g>
        </g>
        <g id="Group_999" data-name="Group 999">
            <g id="Group_998" data-name="Group 998" clip-path="url(#clip-path)">
                <path id="Path_558" data-name="Path 558" d="M489.958,400.764c0,.1-109.69.182-244.967.182C109.666,400.946,0,400.865,0,400.764s109.666-.182,244.991-.182c135.277,0,244.967.081,244.967.182" transform="translate(0 -120.412)" fill="#263238"/>
            </g>
        </g>
        <g id="Group_1004" data-name="Group 1004">
            <g id="Group_1003" data-name="Group 1003" clip-path="url(#clip-path)">
                <path id="Path_559" data-name="Path 559" d="M621.824,323.306s-18.54-21.338-25.535-42.676-3.673-18.89-3.673-18.89,9.445,20.728,16.616,30.74,19.939,24.7,19.939,24.7Z" transform="translate(-177.899 -78.652)" fill="#455a64"/>
                <path id="Path_560" data-name="Path 560" d="M639.129,266.292a1.08,1.08,0,0,0-2.011.687c1.13,7.5,3.573,25.084,3.477,36.492-.124,14.819,0,20.548,0,20.548h7.717s-1.37-30.635-3.114-39.975a64.135,64.135,0,0,0-6.074-17.752" transform="translate(-191.51 -79.879)" fill="#455a64"/>
                <path id="Path_561" data-name="Path 561" d="M646.013,320.393a81.725,81.725,0,0,0,6.351-23.039c.636-5.455-.5-12.826-2.184-22.665a60.982,60.982,0,0,1-.976-10.906,1.841,1.841,0,0,1,3.456-.863c.932,1.662,3.626,7.338,4.311,10.9,1.868,9.713,3.985,14.57,2.366,23.786s-7.6,23.412-7.6,23.412Z" transform="translate(-194.188 -78.744)" fill="#455a64"/>
                <path id="Path_562" data-name="Path 562" d="M655.951,315.939s20.355-43.745,21.766-50.234,6.208-21.444,6.772-20.6,1.411,8.747-2.258,17.776-19.33,54.389-19.33,54.389h-6.951" transform="translate(-197.175 -73.667)" fill="#455a64"/>
                <path id="Path_563" data-name="Path 563" d="M627.6,319.214a4.127,4.127,0,0,1-.571-.392c-.361-.274-.91-.659-1.576-1.2a72,72,0,0,1-5.471-4.829,91.806,91.806,0,0,1-14.768-18.955A124.141,124.141,0,0,1,595.138,272c-1.024-2.905-1.771-5.283-2.256-6.935-.249-.825-.42-1.471-.541-1.908a4.1,4.1,0,0,1-.157-.674,4.216,4.216,0,0,1,.241.649l.618,1.883c.534,1.635,1.324,4,2.383,6.881a132,132,0,0,0,10.165,21.719A95.827,95.827,0,0,0,620.2,312.57c2.179,2.165,4.043,3.815,5.362,4.917.649.564,1.18.97,1.523,1.266a4.12,4.12,0,0,1,.517.461" transform="translate(-178.006 -78.9)" fill="#263238"/>
                <path id="Path_564" data-name="Path 564" d="M643.765,299.638a7.368,7.368,0,0,1-.182-1.283c-.1-.906-.223-2.086-.375-3.507-.322-2.959-.825-7.041-1.544-11.524s-1.525-8.518-2.146-11.43c-.3-1.4-.551-2.557-.743-3.447a7.457,7.457,0,0,1-.229-1.276,7.318,7.318,0,0,1,.393,1.236c.228.8.53,1.97.878,3.419.7,2.9,1.551,6.933,2.275,11.428s1.177,8.592,1.421,11.564c.123,1.486.2,2.69.238,3.523a7.33,7.33,0,0,1,.014,1.3" transform="translate(-191.941 -80.31)" fill="#263238"/>
                <path id="Path_565" data-name="Path 565" d="M651.934,262.841a3.128,3.128,0,0,1,.241.556l.61,1.625c.269.7.579,1.574.874,2.6s.695,2.185.99,3.5q.241.984.5,2.057c.171.716.292,1.474.448,2.251.332,1.553.538,3.238.785,5a74.728,74.728,0,0,1-.829,23.124c-.373,1.746-.7,3.411-1.141,4.936-.211.765-.386,1.512-.608,2.214s-.443,1.372-.65,2.016c-.388,1.293-.862,2.419-1.238,3.422s-.739,1.851-1.058,2.535l-.725,1.577a3.209,3.209,0,0,1-.279.537,3.15,3.15,0,0,1,.2-.574l.649-1.607c.294-.692.641-1.544.986-2.555s.8-2.137,1.173-3.431l.62-2.015c.213-.7.378-1.447.581-2.21.425-1.522.737-3.182,1.1-4.92a77.217,77.217,0,0,0,.825-23c-.235-1.759-.426-3.437-.741-4.985-.148-.776-.259-1.531-.421-2.246s-.323-1.4-.475-2.054c-.274-1.317-.644-2.476-.924-3.506s-.557-1.908-.8-2.62l-.532-1.649a3.174,3.174,0,0,1-.158-.586" transform="translate(-195.342 -79.008)" fill="#263238"/>
                <path id="Path_566" data-name="Path 566" d="M685.686,246.378a.671.671,0,0,1-.016.2c-.025.153-.054.34-.09.568-.09.5-.2,1.237-.4,2.177-.393,1.882-1.048,4.59-2.066,7.875s-2.4,7.14-4.054,11.372-3.55,8.849-5.357,13.761c-1.835,4.9-3.249,9.69-4.577,14.033s-2.565,8.247-3.773,11.469a73.08,73.08,0,0,1-3.214,7.48c-.416.867-.792,1.514-1.034,1.958l-.285.5a.687.687,0,0,1-.11.164.65.65,0,0,1,.071-.185l.247-.52c.216-.457.567-1.115.958-1.991.82-1.734,1.923-4.283,3.078-7.513s2.382-7.126,3.677-11.479,2.712-9.149,4.552-14.067c1.811-4.923,3.732-9.533,5.393-13.757s3.085-8.053,4.133-11.318,1.751-5.953,2.194-7.819c.224-.933.363-1.665.481-2.157l.132-.56a.676.676,0,0,1,.06-.188" transform="translate(-198.605 -74.06)" fill="#263238"/>
                <path id="Path_567" data-name="Path 567" d="M605.4,232.345a1.752,1.752,0,0,0-2.885,1.787,50.1,50.1,0,0,0,2.558,6.577c2.8,5.947,11.018,27.285,14.867,39s9.27,33.581,9.27,33.581l8.217-1.333s-7.517-35.921-14.863-48.864c-5.9-10.4-11.8-25.428-17.163-30.752" transform="translate(-181.087 -69.689)" fill="#455a64"/>
                <path id="Path_568" data-name="Path 568" d="M630.677,310.767a5.073,5.073,0,0,1,.423.985c.244.644.575,1.585.948,2.758.757,2.344,1.683,5.618,2.616,9.255s1.706,6.949,2.247,9.348l.618,2.847a4.994,4.994,0,0,1,.17,1.058,5.161,5.161,0,0,1-.334-1.018c-.2-.749-.452-1.692-.753-2.814-.628-2.472-1.455-5.72-2.368-9.313-.932-3.633-1.809-6.912-2.489-9.273-.324-1.114-.6-2.051-.813-2.794a5.066,5.066,0,0,1-.263-1.039" transform="translate(-189.576 -93.415)" fill="#263238"/>
                <path id="Path_569" data-name="Path 569" d="M633.745,312.785a.843.843,0,0,1-.046-.219c-.025-.171-.056-.384-.094-.647-.086-.569-.163-1.412-.336-2.488-.3-2.158-.84-5.269-1.723-9.064A129.742,129.742,0,0,0,627.7,287.24c-1.686-4.868-3.8-10.128-6.195-15.572-4.834-10.874-9.663-20.52-12.837-27.652-1.6-3.558-2.846-6.462-3.663-8.486-.417-1.009-.715-1.8-.924-2.337l-.228-.613a.854.854,0,0,1-.064-.214.882.882,0,0,1,.1.2l.268.6,1,2.3c.865,2,2.149,4.885,3.787,8.424,3.242,7.093,8.113,16.713,12.954,27.6,2.4,5.452,4.507,10.728,6.176,15.616a123.283,123.283,0,0,1,3.767,13.189,91.814,91.814,0,0,1,1.591,9.11c.148,1.082.2,1.93.256,2.5.02.265.037.48.05.651a.861.861,0,0,1,0,.224" transform="translate(-181.495 -69.848)" fill="#263238"/>
                <path id="Path_570" data-name="Path 570" d="M648.6,331.557a8.6,8.6,0,0,1-.277-1.381c-.164-.965-.379-2.238-.64-3.777-.567-3.184-1.43-7.568-2.674-12.341s-2.616-9.027-3.683-12.079c-.524-1.471-.957-2.688-1.286-3.609a8.826,8.826,0,0,1-.437-1.339,8.649,8.649,0,0,1,.6,1.276c.354.834.848,2.049,1.416,3.566a119.339,119.339,0,0,1,3.815,12.075,125.743,125.743,0,0,1,2.556,12.4c.234,1.6.413,2.9.5,3.8a8.768,8.768,0,0,1,.109,1.4" transform="translate(-192.259 -89.286)" fill="#263238"/>
                <rect id="Rectangle_1384" data-name="Rectangle 1384" width="32.073" height="39.077" transform="translate(441.131 241.091)" fill="#b858fa"/>
                <g id="Group_1002" data-name="Group 1002" transform="translate(441.131 241.091)" opacity="0.3">
                    <g id="Group_1001" data-name="Group 1001">
                        <g id="Group_1000" data-name="Group 1000" clip-path="url(#clip-path-5)">
                            <rect id="Rectangle_1385" data-name="Rectangle 1385" width="32.073" height="39.077" transform="translate(0 0)"/>
                        </g>
                    </g>
                </g>
                <rect id="Rectangle_1387" data-name="Rectangle 1387" width="28.455" height="39.077" transform="translate(434.517 241.091)" fill="#b858fa"/>
                <path id="Path_571" data-name="Path 571" d="M54.724,324.152a16.911,16.911,0,0,0-18.352.151c-5.048,3.529-7.611,9.951-7.389,16.106s3.206,13.676,8.782,16.91l16.368-.064a21.993,21.993,0,0,0,9.008-16.518,19.107,19.107,0,0,0-8.417-16.584" transform="translate(-8.708 -96.648)" fill="#455a64"/>
                <path id="Path_572" data-name="Path 572" d="M53.584,358.168a7.379,7.379,0,0,1-.1-1.409c-.029-1.006-.065-2.3-.109-3.839-.083-3.241-.211-7.717-.427-12.658s-.485-9.413-.686-12.649c-.092-1.541-.169-2.828-.229-3.833a7.294,7.294,0,0,1-.02-1.411,7.348,7.348,0,0,1,.223,1.394c.111.9.247,2.207.394,3.823.3,3.232.622,7.7.84,12.654s.286,9.431.274,12.677c0,1.623-.025,2.936-.057,3.843a7.272,7.272,0,0,1-.1,1.409" transform="translate(-15.627 -96.902)" fill="#263238"/>
                <path id="Path_573" data-name="Path 573" d="M29.659,346.333c-.012.144-.9.188-1.986.1s-1.955-.278-1.944-.422.9-.188,1.986-.1,1.956.278,1.944.422" transform="translate(-7.734 -103.965)" fill="#263238"/>
                <path id="Path_574" data-name="Path 574" d="M30.4,338.009c-.059.132-.826-.08-1.714-.474s-1.56-.82-1.5-.952.825.08,1.713.474,1.56.82,1.5.952" transform="translate(-8.171 -101.163)" fill="#263238"/>
                <path id="Path_575" data-name="Path 575" d="M34.471,331.638c-.075.12-.937-.286-1.833-1.03s-1.46-1.514-1.355-1.609.818.488,1.688,1.206,1.579,1.309,1.5,1.433" transform="translate(-9.4 -98.892)" fill="#263238"/>
                <path id="Path_576" data-name="Path 576" d="M39.327,325.916c-.132.058-.546-.587-.923-1.442s-.577-1.6-.445-1.654.545.587.923,1.443.577,1.6.445,1.653" transform="translate(-11.398 -97.036)" fill="#263238"/>
                <path id="Path_577" data-name="Path 577" d="M45.856,321.872c-.129.06-.574-.627-.869-1.581s-.321-1.771-.181-1.794.393.723.68,1.639.5,1.675.37,1.736" transform="translate(-13.444 -95.738)" fill="#263238"/>
                <path id="Path_578" data-name="Path 578" d="M56.641,318.9c.136.048.053.635-.185,1.311s-.543,1.185-.679,1.137-.052-.635.186-1.311.543-1.185.678-1.137" transform="translate(-16.747 -95.858)" fill="#263238"/>
                <path id="Path_579" data-name="Path 579" d="M64.133,322.3c.1.106-.258.595-.8,1.092s-1.052.813-1.15.708.258-.594.8-1.092,1.052-.813,1.15-.708" transform="translate(-18.688 -96.874)" fill="#263238"/>
                <path id="Path_580" data-name="Path 580" d="M71,326.8c.08.12-.354.555-.969.972s-1.183.66-1.263.54.353-.555.97-.972,1.181-.66,1.262-.54" transform="translate(-20.668 -98.226)" fill="#263238"/>
                <path id="Path_581" data-name="Path 581" d="M75.518,333.525c.057.133-.627.552-1.528.936s-1.676.588-1.733.455.627-.552,1.528-.936,1.676-.588,1.733-.455" transform="translate(-21.719 -100.243)" fill="#263238"/>
                <path id="Path_582" data-name="Path 582" d="M77.51,340.823c.017.143-.678.347-1.554.456s-1.6.08-1.619-.063.678-.347,1.555-.456,1.6-.08,1.618.063" transform="translate(-22.345 -102.41)" fill="#263238"/>
                <path id="Path_583" data-name="Path 583" d="M78.555,349.309c-.057.132-.8-.062-1.656-.435s-1.506-.783-1.448-.915.8.063,1.657.436,1.505.782,1.448.914" transform="translate(-22.679 -104.582)" fill="#263238"/>
                <path id="Path_584" data-name="Path 584" d="M77.519,356.689c-.045.131-.983-.092-1.963-.735s-1.564-1.409-1.461-1.5.818.463,1.747,1.066,1.73,1.033,1.677,1.172" transform="translate(-22.269 -106.542)" fill="#263238"/>
                <path id="Path_585" data-name="Path 585" d="M73.865,363.535c-.086.112-.832-.327-1.548-1.1s-1.1-1.548-.983-1.626.678.532,1.366,1.27,1.258,1.341,1.166,1.456" transform="translate(-21.436 -108.455)" fill="#263238"/>
                <path id="Path_586" data-name="Path 586" d="M35.044,365.526c.066.128-.717.668-1.751,1.206s-1.925.871-1.992.743.717-.668,1.751-1.206,1.925-.87,1.992-.742" transform="translate(-9.408 -109.867)" fill="#263238"/>
                <path id="Path_587" data-name="Path 587" d="M31.854,359.141c.059.132-.569.545-1.4.923s-1.56.579-1.62.448.569-.545,1.4-.923,1.56-.579,1.62-.448" transform="translate(-8.665 -107.943)" fill="#263238"/>
                <path id="Path_588" data-name="Path 588" d="M29.065,353.46c.02.143-.753.371-1.728.509s-1.781.134-1.8-.008.753-.371,1.728-.509,1.781-.134,1.8.008" transform="translate(-7.676 -106.215)" fill="#263238"/>
                <path id="Path_589" data-name="Path 589" d="M37.5,350.364c.043.134-.712.487-1.718.6s-1.821-.06-1.809-.2.8-.209,1.75-.32,1.735-.22,1.777-.079" transform="translate(-10.213 -105.297)" fill="#263238"/>
                <path id="Path_590" data-name="Path 590" d="M44.82,343.382c.043.135-.558.439-1.368.517s-1.458-.1-1.443-.24.639-.2,1.392-.28,1.377-.138,1.419,0" transform="translate(-12.628 -103.194)" fill="#263238"/>
                <path id="Path_591" data-name="Path 591" d="M46.192,337.4c-.048.136-.7.036-1.452-.225s-1.33-.583-1.282-.72.7-.036,1.452.225,1.328.583,1.282.72" transform="translate(-13.062 -101.118)" fill="#263238"/>
                <path id="Path_592" data-name="Path 592" d="M49.44,331.376c-.1.1-.547-.194-.865-.748s-.352-1.087-.215-1.124.381.372.667.863.519.908.413,1.009" transform="translate(-14.514 -99.046)" fill="#263238"/>
                <path id="Path_593" data-name="Path 593" d="M45.8,355.274c.034.141-.529.4-1.258.576a4.773,4.773,0,0,1-1.056.155l-.1-.3c.189-.034.311-.027.335.029s-.052.15-.206.266l-.1-.3a4.757,4.757,0,0,1,1.009-.35c.729-.178,1.347-.208,1.381-.068" transform="translate(-13.041 -106.767)" fill="#263238"/>
                <path id="Path_594" data-name="Path 594" d="M46.822,365.2c.052.134-.665.542-1.6.911s-1.742.559-1.795.425.665-.542,1.6-.911,1.742-.559,1.794-.425" transform="translate(-13.052 -109.763)" fill="#263238"/>
                <path id="Path_595" data-name="Path 595" d="M39.373,360.786c.047.136-.432.423-1.069.64s-1.191.282-1.237.145.432-.422,1.069-.639,1.191-.282,1.237-.145" transform="translate(-11.141 -108.429)" fill="#263238"/>
                <path id="Path_596" data-name="Path 596" d="M39.495,340.117c-.033.139-.867.056-1.83-.287s-1.663-.8-1.6-.929.84.106,1.776.436,1.69.637,1.655.779" transform="translate(-10.839 -101.861)" fill="#263238"/>
                <path id="Path_597" data-name="Path 597" d="M59.1,338.452c.08.12-.39.57-1.048,1s-1.256.688-1.336.568.39-.57,1.048-1,1.257-.688,1.336-.568" transform="translate(-17.047 -101.728)" fill="#263238"/>
                <path id="Path_598" data-name="Path 598" d="M60.18,348.362c.029.141-.464.363-1.1.5s-1.178.125-1.208-.016.464-.364,1.1-.5,1.178-.125,1.208.016" transform="translate(-17.395 -104.682)" fill="#263238"/>
                <path id="Path_599" data-name="Path 599" d="M61.112,358.989c-.061.131-.771-.069-1.586-.446s-1.427-.79-1.367-.921.771.069,1.586.447,1.427.79,1.367.92" transform="translate(-17.481 -107.487)" fill="#263238"/>
                <path id="Path_600" data-name="Path 600" d="M59.1,369.61c-.112.092-.573-.285-1.03-.842s-.738-1.083-.626-1.174.573.286,1.03.843.737,1.082.626,1.174" transform="translate(-17.259 -110.492)" fill="#263238"/>
                <path id="Path_601" data-name="Path 601" d="M58.528,331.125c.088.112-.216.5-.739.757s-1.011.277-1.048.14.343-.369.814-.607.883-.4.973-.29" transform="translate(-17.055 -99.523)" fill="#263238"/>
                <path id="Path_602" data-name="Path 602" d="M67.445,341.143c.048.133-.56.467-1.391.581s-1.507-.039-1.5-.18.65-.228,1.425-.338,1.415-.2,1.462-.064" transform="translate(-19.405 -102.525)" fill="#263238"/>
                <path id="Path_603" data-name="Path 603" d="M65.519,332.149c.064.127-.539.557-1.4.829s-1.6.275-1.619.135.645-.37,1.46-.632,1.491-.464,1.556-.332" transform="translate(-18.788 -99.83)" fill="#263238"/>
                <path id="Path_604" data-name="Path 604" d="M68.84,354.757a3.982,3.982,0,0,1-2.278,0,3.982,3.982,0,0,1-2.131-.8,6.993,6.993,0,0,1,2.224.29,7,7,0,0,1,2.185.51" transform="translate(-19.367 -106.384)" fill="#263238"/>
                <path id="Path_605" data-name="Path 605" d="M66.081,367.035c-.087.112-.846-.335-1.6-1.1s-1.2-1.523-1.091-1.609.727.5,1.462,1.241,1.325,1.351,1.234,1.467" transform="translate(-19.048 -109.512)" fill="#263238"/>
                <path id="Path_606" data-name="Path 606" d="M47.205,321.521a23.637,23.637,0,0,0-4.58,3.62,22.355,22.355,0,0,0-5.706,12.612,28.317,28.317,0,0,0,.344,7.728,58.83,58.83,0,0,0,1.448,6.2c.5,1.746.962,3.145,1.271,4.115a9.711,9.711,0,0,1,.44,1.522,8.7,8.7,0,0,1-.632-1.454c-.369-.951-.884-2.335-1.433-4.075a52.276,52.276,0,0,1-1.568-6.225,27.719,27.719,0,0,1-.389-7.871,21.989,21.989,0,0,1,5.959-12.808,16.355,16.355,0,0,1,3.417-2.67,10.261,10.261,0,0,1,1.046-.543,1.234,1.234,0,0,1,.383-.15" transform="translate(-10.902 -96.646)" fill="#263238"/>
                <path id="Path_607" data-name="Path 607" d="M58.86,357.746a57.271,57.271,0,0,0,2.349-5.611,31.762,31.762,0,0,0,1.4-14.43,27.154,27.154,0,0,0-2.225-7.695,18.147,18.147,0,0,0-3.794-5.284,13.8,13.8,0,0,0-3.717-2.349c-.967-.4-1.546-.5-1.537-.542a1.271,1.271,0,0,1,.427.034,7.868,7.868,0,0,1,1.183.318,12.863,12.863,0,0,1,3.888,2.262,17.876,17.876,0,0,1,3.985,5.354,26.73,26.73,0,0,1,2.308,7.83,30.684,30.684,0,0,1-1.572,14.624c-.3.9-.675,1.676-.958,2.372-.336.674-.614,1.26-.869,1.724a9.852,9.852,0,0,1-.87,1.395" transform="translate(-15.432 -96.739)" fill="#263238"/>
                <path id="Path_608" data-name="Path 608" d="M33.155,371.417h28.8l.177,5.764H33.155Z" transform="translate(-9.966 -111.646)" fill="#b858fa"/>
                <path id="Path_609" data-name="Path 609" d="M36.654,375.538l1.655,17.6H59.365l1.691-17.405Z" transform="translate(-11.018 -112.884)" fill="#b858fa"/>
                <path id="Path_610" data-name="Path 610" d="M62.138,379.646c0,.144-6.486.262-14.485.262s-14.487-.117-14.487-.262,6.485-.262,14.487-.262,14.485.118,14.485.262" transform="translate(-9.969 -114.04)" fill="#263238"/>
                <path id="Path_611" data-name="Path 611" d="M60.853,386.672a4.363,4.363,0,0,1-.617,1.1A15.888,15.888,0,0,1,58,390.41l-.133.127-.13-.137a41.5,41.5,0,0,0-5.645-4.941l.318-.014-2.5,2.2-2.958,2.576-.164.142-.164-.138-4.81-4.043.28-.03-2.488,3.035a7.081,7.081,0,0,1-.976,1.069,7,7,0,0,1,.8-1.2l2.351-3.143.12-.161.16.13,4.881,3.957-.327,0,2.947-2.589,2.511-2.187.155-.135.164.121a36.808,36.808,0,0,1,5.618,5.1l-.263-.01a29.247,29.247,0,0,0,3.1-3.464" transform="translate(-11.611 -115.706)" fill="#263238"/>
            </g>
        </g>
        <g id="Group_1006" data-name="Group 1006">
            <g id="Group_1005" data-name="Group 1005" clip-path="url(#clip-path)">
                <path id="Path_612" data-name="Path 612" d="M429.806,301.35H124.92a10.188,10.188,0,0,1-10.188-10.188V96.446A10.189,10.189,0,0,1,124.92,86.257H429.806a10.188,10.188,0,0,1,10.188,10.189V291.162a10.188,10.188,0,0,1-10.188,10.188" transform="translate(-34.488 -25.928)" fill="#455a64"/>
                <path id="Path_613" data-name="Path 613" d="M439.457,392.753h-327.5a12.448,12.448,0,0,1-12.448-12.448v-6.372H451.9v6.372a12.448,12.448,0,0,1-12.448,12.448" transform="translate(-29.911 -112.402)" fill="#455a64"/>
                <path id="Path_614" data-name="Path 614" d="M301.414,371.048,305.787,378H367.32l4.061-6.956Z" transform="translate(-90.603 -111.535)" fill="#263238"/>
                <path id="Path_615" data-name="Path 615" d="M437.2,370.958c0,.117-72.193.211-161.226.211-89.064,0-161.242-.094-161.242-.211s72.177-.211,161.242-.211c89.033,0,161.226.094,161.226.211" transform="translate(-34.488 -111.444)" fill="#263238"/>
                <path id="Path_616" data-name="Path 616" d="M431.121,285.07H130.338a2.289,2.289,0,0,1-2.289-2.289V106.23a2.289,2.289,0,0,1,2.289-2.289H431.121a2.289,2.289,0,0,1,2.288,2.289V282.782a2.288,2.288,0,0,1-2.288,2.288" transform="translate(-38.491 -31.244)" fill="#ebebeb"/>
                <path id="Path_617" data-name="Path 617" d="M432.943,291.154H127.581l.327-167.858H432.943Z" transform="translate(-38.35 -37.062)" fill="#fff"/>
                <path id="Path_618" data-name="Path 618" d="M161.761,112.9a2.438,2.438,0,1,1-2.439-2.438,2.439,2.439,0,0,1,2.439,2.438" transform="translate(-47.158 -33.203)" fill="#263238"/>
                <path id="Path_619" data-name="Path 619" d="M140.628,112.9a2.439,2.439,0,1,1-2.439-2.438,2.439,2.439,0,0,1,2.439,2.438" transform="translate(-40.806 -33.203)" fill="#263238"/>
                <path id="Path_620" data-name="Path 620" d="M150.772,112.9a2.439,2.439,0,1,1-2.439-2.438,2.439,2.439,0,0,1,2.439,2.438" transform="translate(-43.855 -33.203)" fill="#263238"/>
                <rect id="Rectangle_1389" data-name="Rectangle 1389" width="305.688" height="16.209" transform="translate(89.232 237.882)" fill="#263238"/>
                <path id="Path_621" data-name="Path 621" d="M142.993,353.174v.519h-2.434v-.411l1.311-1.246c.321-.306.378-.5.378-.683,0-.3-.208-.477-.614-.477a.931.931,0,0,0-.774.345l-.429-.33a1.524,1.524,0,0,1,1.255-.548c.717,0,1.179.363,1.179.948a1.321,1.321,0,0,1-.547,1.042l-.882.84Z" transform="translate(-42.213 -105.311)" fill="#fff"/>
                <path id="Path_622" data-name="Path 622" d="M144.569,351.881a.387.387,0,1,1,.774,0,.387.387,0,1,1-.774,0m0,1.8a.387.387,0,1,1,.774,0,.387.387,0,1,1-.774,0" transform="translate(-43.457 -105.655)" fill="#fff"/>
                <path id="Path_623" data-name="Path 623" d="M147.308,350.411v3.3H146.7v-2.788H146v-.515Z" transform="translate(-43.886 -105.331)" fill="#fff"/>
                <path id="Path_624" data-name="Path 624" d="M151.73,352.964h-.585v.75h-.594v-.75h-1.812v-.425l1.628-2.128h.656l-1.534,2.034h1.081v-.666h.576v.666h.585Z" transform="translate(-44.71 -105.331)" fill="#fff"/>
                <rect id="Rectangle_1390" data-name="Rectangle 1390" width="250.554" height="1.142" transform="translate(112.416 246.312)" fill="#fff"/>
                <rect id="Rectangle_1391" data-name="Rectangle 1391" width="78.299" height="3.046" transform="translate(112.227 245.082)" fill="#b858fa"/>
                <path id="Path_625" data-name="Path 625" d="M272.748,351.351a3.812,3.812,0,1,1-3.812-3.812,3.812,3.812,0,0,1,3.812,3.812" transform="translate(-79.695 -104.468)" fill="#b858fa"/>
                <path id="Path_626" data-name="Path 626" d="M526.857,351.937a1.1,1.1,0,0,1-1.208,1.072c-.9,0-1.43-.58-1.43-1.642a1.564,1.564,0,0,1,1.618-1.756,1.665,1.665,0,0,1,.868.212l-.227.463a1.12,1.12,0,0,0-.627-.161c-.622,0-1.014.387-1.014,1.137v.006a1.128,1.128,0,0,1,.882-.345,1.032,1.032,0,0,1,1.137,1.013m-.594.029c0-.344-.26-.561-.66-.561a.6.6,0,0,0-.67.566c0,.311.245.557.684.557a.573.573,0,0,0,.646-.562" transform="translate(-157.577 -105.091)" fill="#fff"/>
                <path id="Path_627" data-name="Path 627" d="M528.417,351.151a.387.387,0,1,1,.774,0,.387.387,0,1,1-.774,0m0,1.8a.387.387,0,1,1,.774,0,.387.387,0,1,1-.774,0" transform="translate(-158.839 -105.436)" fill="#fff"/>
                <path id="Path_628" data-name="Path 628" d="M530.088,351.311c0-1.085.594-1.7,1.377-1.7s1.383.613,1.383,1.7-.594,1.7-1.383,1.7-1.377-.615-1.377-1.7m2.142,0c0-.8-.311-1.165-.764-1.165s-.76.368-.76,1.165.312,1.164.76,1.164.764-.367.764-1.164" transform="translate(-159.341 -105.091)" fill="#fff"/>
                <path id="Path_629" data-name="Path 629" d="M534.621,351.311c0-1.085.595-1.7,1.378-1.7s1.383.613,1.383,1.7-.595,1.7-1.383,1.7-1.378-.615-1.378-1.7m2.142,0c0-.8-.311-1.165-.764-1.165s-.76.368-.76,1.165.312,1.164.76,1.164.764-.367.764-1.164" transform="translate(-160.704 -105.091)" fill="#fff"/>
                <path id="Path_630" data-name="Path 630" d="M545.705,350.332h-1.142v-3.293h3.287v1.142h-2.144Z" transform="translate(-163.692 -104.318)" fill="#fff"/>
                <path id="Path_631" data-name="Path 631" d="M547.851,356.48h-3.293v-3.286H545.7v2.144h2.151Z" transform="translate(-163.691 -106.168)" fill="#fff"/>
                <path id="Path_632" data-name="Path 632" d="M555.352,356.476h-3.287v-1.142h2.145v-2.152h1.142Z" transform="translate(-165.947 -106.164)" fill="#fff"/>
                <path id="Path_633" data-name="Path 633" d="M555.354,350.325h-1.142v-2.144h-2.151v-1.142h3.293Z" transform="translate(-165.946 -104.318)" fill="#fff"/>
                <path id="Path_634" data-name="Path 634" d="M175.851,137.566h-18l-9,15.587,9,15.587h18l9-15.587Z" transform="translate(-44.744 -41.352)" fill="#ebebeb"/>
                <path id="Path_635" data-name="Path 635" d="M162.532,156.785a16.066,16.066,0,0,1-2.2-2.837,5.4,5.4,0,0,1-.742-3.452c.114-.692.408-1.352.455-2.051.064-.964-.341-1.97,0-2.873.534-1.411,2.433-1.629,3.584-2.6.9-.76,1.334-1.992,2.321-2.63a4.36,4.36,0,0,1,2.986-.4,11.253,11.253,0,0,0,3.057.264,20.139,20.139,0,0,0,2.119-.567,2.893,2.893,0,0,1,2.136.145,1.391,1.391,0,0,1,.574,1.87,2.324,2.324,0,0,1,3,1.632,3.532,3.532,0,0,1-1.322,3.446,7.729,7.729,0,0,1-3.568,1.455,14.923,14.923,0,0,1-10.644-1.658" transform="translate(-47.955 -41.932)" fill="#263238"/>
                <path id="Path_636" data-name="Path 636" d="M180.261,161.851c-.122-2.231-.746-6.8-1.36-10.938a8.623,8.623,0,0,0-9.1-7.34l-.446.03c-4.785.6-6.946,5-6.212,9.768l1.405,17.169h11.677s-.277-3.012-.279-3.042c0,0,4.57-1.027,4.319-5.648" transform="translate(-48.996 -43.152)" fill="#ffbe9d"/>
                <path id="Path_637" data-name="Path 637" d="M178.874,177.132a10.762,10.762,0,0,1-6.133-1.308s1.645,3.227,6.224,2.5Z" transform="translate(-51.925 -52.852)" fill="#eb996e"/>
                <path id="Path_638" data-name="Path 638" d="M183.046,159.5a.661.661,0,0,1-.591.708.632.632,0,0,1-.72-.549.66.66,0,0,1,.59-.708.632.632,0,0,1,.72.549" transform="translate(-54.628 -47.778)" fill="#263238"/>
                <path id="Path_639" data-name="Path 639" d="M183.412,157.135c-.076.092-.6-.245-1.31-.2s-1.205.439-1.288.357c-.041-.036.032-.2.248-.377a1.815,1.815,0,0,1,1.025-.392,1.742,1.742,0,0,1,1.049.262c.229.153.314.3.276.345" transform="translate(-54.348 -47.05)" fill="#263238"/>
                <path id="Path_640" data-name="Path 640" d="M173.464,160.186a.661.661,0,0,1-.591.708.632.632,0,0,1-.72-.549.662.662,0,0,1,.591-.708.633.633,0,0,1,.72.55" transform="translate(-51.747 -47.984)" fill="#263238"/>
                <path id="Path_641" data-name="Path 641" d="M173.454,157.99c-.076.092-.6-.245-1.31-.2s-1.205.439-1.288.357c-.04-.036.032-.2.248-.376a1.815,1.815,0,0,1,1.025-.393,1.746,1.746,0,0,1,1.049.263c.229.153.314.3.276.345" transform="translate(-51.355 -47.307)" fill="#263238"/>
                <path id="Path_642" data-name="Path 642" d="M178.447,163a4.709,4.709,0,0,1,1.139-.285c.18-.031.349-.078.371-.2a.92.92,0,0,0-.157-.529l-.628-1.344a23.739,23.739,0,0,1-1.444-3.528,23.865,23.865,0,0,1,1.725,3.4c.212.473.414.923.606,1.353a1.056,1.056,0,0,1,.141.7.454.454,0,0,1-.28.285,1.226,1.226,0,0,1-.3.064,4.647,4.647,0,0,1-1.168.08" transform="translate(-53.422 -47.226)" fill="#263238"/>
                <path id="Path_643" data-name="Path 643" d="M173.188,154.068c-.057.2-.771.154-1.6.31-.829.139-1.483.428-1.606.262-.055-.08.05-.269.309-.473a2.823,2.823,0,0,1,2.44-.436c.314.1.478.243.454.337" transform="translate(-51.092 -46.178)" fill="#263238"/>
                <path id="Path_644" data-name="Path 644" d="M182.922,154.2c-.114.169-.614.035-1.2.066-.589.01-1.078.18-1.2.02-.056-.078.012-.245.219-.412a1.742,1.742,0,0,1,1.939-.069c.219.152.3.313.248.4" transform="translate(-54.256 -46.155)" fill="#263238"/>
                <path id="Path_645" data-name="Path 645" d="M162.8,162.405c-.081-.029-3.235-.726-2.923,2.423s3.725,2.123,3.722,2.032-.8-4.455-.8-4.455" transform="translate(-48.052 -48.793)" fill="#ffbe9d"/>
                <path id="Path_646" data-name="Path 646" d="M162.554,166.287c-.015-.008-.051.044-.14.1a.552.552,0,0,1-.409.049,1.364,1.364,0,0,1-.748-1.156,1.814,1.814,0,0,1,.076-.8.636.636,0,0,1,.371-.462.281.281,0,0,1,.339.118c.05.084.037.148.054.152s.063-.059.024-.187a.355.355,0,0,0-.143-.185.42.42,0,0,0-.312-.05.776.776,0,0,0-.525.545,1.882,1.882,0,0,0-.1.9,1.432,1.432,0,0,0,.936,1.281.59.59,0,0,0,.493-.133c.09-.087.1-.159.088-.164" transform="translate(-48.402 -49.253)" fill="#eb996e"/>
                <path id="Path_647" data-name="Path 647" d="M178.449,146.256c-.216,1.254-2.759,2.4-4.867,2.341-1.944-.057-2.9-1.021-4.316-1.706-.894-.434-.894-.434-2.107-.237-.981.159-1.49,1.317-2.041,2.144,1.049,2.286.625,4.946.18,7.422a1.258,1.258,0,0,1-.318.753,1,1,0,0,1-1.276-.194,3.912,3.912,0,0,1-.995-2,13.025,13.025,0,0,1-.312-5.122,8.862,8.862,0,0,1,2.131-4.624,8.392,8.392,0,0,1,5.725-2.613,10.306,10.306,0,0,1,6.107,1.734,6.034,6.034,0,0,1,2.088,2.1" transform="translate(-48.777 -42.807)" fill="#263238"/>
                <path id="Path_648" data-name="Path 648" d="M178.339,167.456l-1.605-.749a.546.546,0,0,0-.292-.073.468.468,0,0,0-.278.189,1.493,1.493,0,0,0-.178,1.641,1.254,1.254,0,0,0,1.507.553,1.709,1.709,0,0,0,.89-1.511Z" transform="translate(-52.849 -50.088)" fill="#eb996e"/>
                <path id="Path_649" data-name="Path 649" d="M177.432,169.018c.025.031-.335.258-.941.084a1.469,1.469,0,0,1-.832-.676,1.531,1.531,0,0,1-.106-1.316,1.6,1.6,0,0,1,.389-.583,1.464,1.464,0,0,1,.273-.2.463.463,0,0,1,.423-.024c.367.2.614.378.86.536.471.312.749.527.724.57s-.35-.093-.853-.348l-.857-.448c-.066-.018-.06-.018-.124.015a1.226,1.226,0,0,0-.2.159,1.314,1.314,0,0,0-.3.457,1.246,1.246,0,0,0,.059,1.025,1.3,1.3,0,0,0,.628.6,3.408,3.408,0,0,0,.851.157" transform="translate(-52.74 -49.976)" fill="#263238"/>
                <path id="Path_650" data-name="Path 650" d="M174.654,158.372c-.036,0-.031-.292-.171-.785a3.294,3.294,0,0,0-1.206-1.727,3.133,3.133,0,1,0,0,5.025,3.289,3.289,0,0,0,1.206-1.728c.14-.492.136-.787.171-.785.013,0,.021.073.026.213a2.438,2.438,0,0,1-.06.608,3.27,3.27,0,0,1-1.187,1.9,3.4,3.4,0,0,1-3.246.531,3.445,3.445,0,0,1,0-6.494,3.408,3.408,0,0,1,3.246.529,3.276,3.276,0,0,1,1.187,1.9,2.438,2.438,0,0,1,.06.608c0,.14-.013.212-.026.212" transform="translate(-50.468 -46.57)" fill="#263238"/>
                <path id="Path_651" data-name="Path 651" d="M185.958,157.967c-.035,0-.032-.285-.17-.765a3.2,3.2,0,0,0-1.175-1.68,3.049,3.049,0,1,0,0,4.89,3.2,3.2,0,0,0,1.174-1.68c.138-.48.135-.767.17-.765.012,0,.021.071.026.206a2.406,2.406,0,0,1-.058.594,3.191,3.191,0,0,1-1.156,1.85,3.325,3.325,0,0,1-3.167.518,3.361,3.361,0,0,1,0-6.336,3.323,3.323,0,0,1,3.167.518,3.193,3.193,0,0,1,1.156,1.85,2.406,2.406,0,0,1,.058.594c0,.136-.014.206-.026.206" transform="translate(-53.916 -46.474)" fill="#263238"/>
                <path id="Path_652" data-name="Path 652" d="M178.93,158.165c-.072.067-.383-.134-.8-.121s-.723.214-.8.15c-.1-.05.2-.5.792-.515s.9.431.81.485" transform="translate(-53.298 -47.398)" fill="#263238"/>
                <path id="Path_653" data-name="Path 653" d="M167.17,159.18c.06.08-.55.639-1.365,1.246a4.794,4.794,0,0,1-1.582.954c-.06-.08.55-.639,1.365-1.246a4.793,4.793,0,0,1,1.582-.954" transform="translate(-49.363 -47.846)" fill="#263238"/>
                <path id="Path_654" data-name="Path 654" d="M245.721,159.547c0,.1-8.091.182-18.07.182s-18.071-.08-18.071-.182,8.089-.182,18.071-.182,18.07.081,18.07.182" transform="translate(-62.998 -47.904)" fill="#263238"/>
                <path id="Path_655" data-name="Path 655" d="M229.109,164.955c0,.1-4.3.182-9.6.182s-9.6-.081-9.6-.182,4.3-.182,9.6-.182,9.6.081,9.6.182" transform="translate(-63.1 -49.53)" fill="#263238"/>
            </g>
        </g>
        <g id="Group_1026" data-name="Group 1026">
            <g id="Group_1025" data-name="Group 1025" clip-path="url(#clip-path)">
                <path id="Path_656" data-name="Path 656" d="M412.389,199.581a27.557,27.557,0,0,1,12.979,16.765c3.374,12.084,13.7,43.558,13.7,43.558s5.9,6.944,6.536,12.088-.632,17.583-2.53,19.9a5.346,5.346,0,0,1-4.6,1.935l-24.849-2.357-9.784-65.517Z" transform="translate(-121.392 -59.993)" fill="#b858fa"/>
                <path id="Path_657" data-name="Path 657" d="M289.035,194.177S271.268,199.75,266.84,204.6l14.548,67.68-.232,21.354h84.234c0-1.054.756-70.9.756-70.9l5.06-27.41-29.94-5.271-5.9-4.638L302.051,187.1l-5.06,5.06Z" transform="translate(-80.21 -55.734)" fill="#b858fa"/>
                <g id="Group_1009" data-name="Group 1009" transform="translate(201.006 195.813)" opacity="0.3">
                    <g id="Group_1008" data-name="Group 1008">
                        <g id="Group_1007" data-name="Group 1007" clip-path="url(#clip-path-8)">
                            <path id="Path_658" data-name="Path 658" d="M301.962,281.317c-.259-.574-.631-1.195-1.248-1.322-1.015-.209-1.693.99-2.038,1.967a88.981,88.981,0,0,1-11.066,21.605l-.216,10.392c4.91-4.133,9.753-8.559,12.883-14.162s4.328-12.633,1.685-18.481" transform="translate(-287.395 -279.97)"/>
                        </g>
                    </g>
                </g>
                <path id="Path_659" data-name="Path 659" d="M252.408,212.845s-5.854,7.981-8.285,13.19S221.549,275,220.333,279.519s-4.341,18.754,4.862,22.053h18.927l19-38.416.971-44.588Z" transform="translate(-65.779 -63.98)" fill="#b858fa"/>
                <path id="Path_660" data-name="Path 660" d="M246.82,298.713c-.025.029-.422-.372-1.293-.868a14.518,14.518,0,0,0-3.973-1.439,19.026,19.026,0,0,0-2.9-.407,11.508,11.508,0,0,0-3.319.216,12.377,12.377,0,0,0-6.372,4,17.274,17.274,0,0,0-3.608,6.708,33.411,33.411,0,0,0-1.138,6.192c-.177,1.79-.243,3.248-.306,4.254-.029.471-.054.855-.073,1.16a1.707,1.707,0,0,1-.05.4,1.724,1.724,0,0,1-.024-.406c0-.306,0-.69,0-1.162.019-1.009.046-2.47.191-4.272a32.01,32.01,0,0,1,1.073-6.264,17.325,17.325,0,0,1,3.657-6.854,12.578,12.578,0,0,1,6.572-4.086,11.674,11.674,0,0,1,3.413-.19,18.572,18.572,0,0,1,2.933.457,13.668,13.668,0,0,1,3.987,1.568,6.789,6.789,0,0,1,.939.7,1.73,1.73,0,0,1,.282.294" transform="translate(-67.263 -88.872)" fill="#263238"/>
                <path id="Path_661" data-name="Path 661" d="M243.894,289.028a2.188,2.188,0,0,1,.636-.1,10.8,10.8,0,0,1,1.755-.024,14.525,14.525,0,0,1,2.582.382,15.36,15.36,0,0,1,5.743,2.739,14.454,14.454,0,0,1,1.921,1.767,10.816,10.816,0,0,1,1.086,1.379,2.166,2.166,0,0,1,.321.559c-.056.039-.569-.719-1.594-1.761a16.55,16.55,0,0,0-1.935-1.675,16.451,16.451,0,0,0-5.624-2.682,16.549,16.549,0,0,0-2.52-.45c-1.455-.141-2.367-.062-2.372-.13" transform="translate(-73.313 -86.835)" fill="#263238"/>
                <path id="Path_662" data-name="Path 662" d="M258.987,285.766a4.143,4.143,0,0,1-.876-.066c-.558-.072-1.369-.154-2.371-.228a40.4,40.4,0,0,0-15.481,1.852c-.955.308-1.724.579-2.25.781a4.051,4.051,0,0,1-.835.271,4.073,4.073,0,0,1,.781-.4c.511-.243,1.269-.552,2.221-.894a35.791,35.791,0,0,1,15.587-1.865c1.006.108,1.816.229,2.37.344a4.073,4.073,0,0,1,.854.207" transform="translate(-71.293 -85.678)" fill="#263238"/>
                <path id="Path_663" data-name="Path 663" d="M334.773,221.334a1.226,1.226,0,0,1-.193-.228l-.515-.692-1.9-2.636-6.593-9.3.294-.042c-1.02,3-2.145,6.3-3.33,9.777l-.075.22-.191-.122-.393-.253a20.191,20.191,0,0,1-4.121-3.48,24.533,24.533,0,0,1-2.942-4.069,33.951,33.951,0,0,1-3.238-7.828,52.909,52.909,0,0,1-1.226-5.576l-.265-1.525c-.031-.174-.067-.3-.089-.39a.441.441,0,0,1-.044-.129,6.387,6.387,0,0,1,.537,2.019c.272,1.317.652,3.228,1.334,5.53a34.721,34.721,0,0,0,3.28,7.731,24.531,24.531,0,0,0,2.917,4,20.03,20.03,0,0,0,4.052,3.412l.385.248-.266.1c1.195-3.474,2.33-6.775,3.359-9.767l.107-.312.187.271,6.484,9.378,1.826,2.69.473.722a1.232,1.232,0,0,1,.148.259" transform="translate(-93.168 -58.633)" fill="#263238"/>
                <g id="Group_1012" data-name="Group 1012" transform="translate(263.352 195.01)" opacity="0.3">
                    <g id="Group_1011" data-name="Group 1011">
                        <g id="Group_1010" data-name="Group 1010" clip-path="url(#clip-path-9)">
                            <path id="Path_664" data-name="Path 664" d="M376.719,278.822a38.263,38.263,0,0,0,4.867,22.7c3.919,6.816,9.662,12.892,16.818,16.154.232-6.946-.1-15.127.129-22.074Z" transform="translate(-376.536 -278.822)"/>
                        </g>
                    </g>
                </g>
                <path id="Path_665" data-name="Path 665" d="M374.969,258.623s-3.06.849-.765,7.118,3.06,5.889,4.59,11.754,3.315,11.216,5.992,14.53S397.407,302.1,397.407,302.1l8.924-8.414s-1.471-6.271-1.118-10.53,1.246-14.713,1.118-16.5-2.04-6.12-2.04-6.12V257.57L399.7,243.452s-2.549-1.148-3.442,2.932l-1.53-4.33s-2.422-.387-3.059,4.585.51,11.856.51,11.856l-1.275,8.669-1.912,5.865-1.658.255s-2.495-.681-3.861-5.376-5.064-10.3-8.505-9.285" transform="translate(-112.227 -72.758)" fill="#ffbe9d"/>
                <path id="Path_666" data-name="Path 666" d="M411.961,289.814a1.38,1.38,0,0,1-.041-.322c-.017-.243-.038-.552-.064-.934-.046-.855-.11-2.038-.189-3.511-.137-3.044-.329-7.281-.552-12.226l.041.1a1.79,1.79,0,0,0-1.807-.471,2.637,2.637,0,0,0-1.654,1.213c-.779,1.254-.822,2.889-1.066,4.466-.484,3.573-.945,6.975-1.365,10.076-.213,1.549-.436,3.024-.739,4.387a28.636,28.636,0,0,1-1.106,3.719,31.352,31.352,0,0,0-.96,3.028,9.3,9.3,0,0,0-.288,2.36,7.385,7.385,0,0,0,.353,2,2.853,2.853,0,0,1-.214-.488,5.53,5.53,0,0,1-.28-1.506,9.02,9.02,0,0,1,.232-2.412,29.357,29.357,0,0,1,.915-3.066,29.27,29.27,0,0,0,1.055-3.7c.286-1.353.5-2.819.7-4.368.411-3.1.862-6.506,1.337-10.08.112-.8.2-1.584.337-2.369a6.216,6.216,0,0,1,.787-2.241,3,3,0,0,1,1.877-1.362,2.13,2.13,0,0,1,2.147.592l.038.046,0,.057c.17,4.948.315,9.185.42,12.231.038,1.474.069,2.658.091,3.515,0,.383.007.692.01.936a1.417,1.417,0,0,1-.016.324" transform="translate(-120.844 -81.773)" fill="#eb996e"/>
                <path id="Path_667" data-name="Path 667" d="M408.466,269.25a3.613,3.613,0,0,1-.376-.8,20.33,20.33,0,0,1-.747-2.285,23.05,23.05,0,0,1-.641-3.513,10.267,10.267,0,0,1-.038-2.129,4.55,4.55,0,0,1,.769-2.186,3.122,3.122,0,0,1,1.632-1.225l.137-.04.07.123c1.293,2.28,2.415,4.293,3.2,5.741l.915,1.711a2.949,2.949,0,0,1,.292.642,2.978,2.978,0,0,1-.4-.578l-1.008-1.658c-.845-1.416-2.006-3.406-3.312-5.679l.206.083a2.782,2.782,0,0,0-1.436,1.091,4.247,4.247,0,0,0-.713,2.014,10.239,10.239,0,0,0,.017,2.058,25.87,25.87,0,0,0,.557,3.483c.225.981.464,1.761.631,2.3a4.686,4.686,0,0,1,.243.846" transform="translate(-122.228 -77.275)" fill="#eb996e"/>
                <path id="Path_668" data-name="Path 668" d="M406.047,267.257a3.522,3.522,0,0,1-.083-.813c-.025-.6-.055-1.343-.09-2.219-.06-1.874-.118-4.463-.159-7.323a63.039,63.039,0,0,1,.113-7.337,11.229,11.229,0,0,1,.478-2.184,2.732,2.732,0,0,1,.327-.752,20.616,20.616,0,0,0-.55,2.963c-.178,1.852-.027,4.444,0,7.305.041,2.86.059,5.45.052,7.325-.01.876-.019,1.618-.025,2.221a3.542,3.542,0,0,1-.059.815" transform="translate(-121.942 -74.135)" fill="#eb996e"/>
                <path id="Path_669" data-name="Path 669" d="M395.418,303.53c-.052-.043.507-.7,1.2-1.892a15.752,15.752,0,0,0,1.038-2.177,15.575,15.575,0,0,0,1.043-5.776,15.682,15.682,0,0,0-.211-2.4c-.23-1.358-.524-2.169-.46-2.191a1.934,1.934,0,0,1,.254.552,10.153,10.153,0,0,1,.459,1.591,13.68,13.68,0,0,1,.294,2.444,14.5,14.5,0,0,1-1.067,5.906,13.713,13.713,0,0,1-1.13,2.187,10.127,10.127,0,0,1-.987,1.33c-.259.292-.412.445-.431.429" transform="translate(-118.859 -86.899)" fill="#eb996e"/>
                <path id="Path_670" data-name="Path 670" d="M414.791,303.464l7.745,2.688s7.395-3.824,12.494,0,9.529,13.9,8.126,17.985c0,0-3.519,4.345-6.2,4.983s-13.085-1.884-17.415-2.8-11.8-5.765-11.8-5.765Z" transform="translate(-122.566 -91.219)" fill="#ffbe9d"/>
                <path id="Path_671" data-name="Path 671" d="M419,312.269a2.542,2.542,0,0,1-.083-.685c-.031-.525-.068-1.147-.11-1.871-.082-1.581-.189-3.766-.221-6.183a61.128,61.128,0,0,1,.179-6.193c.068-.79.155-1.428.234-1.865a2.484,2.484,0,0,1,.161-.672c.057.009-.064.979-.138,2.556s-.108,3.758-.071,6.17c.043,2.363.083,4.5.114,6.179.009.792.007,1.433-.006,1.876a2.533,2.533,0,0,1-.059.689" transform="translate(-125.82 -88.615)" fill="#eb996e"/>
                <path id="Path_672" data-name="Path 672" d="M446.627,304.5a24.488,24.488,0,0,0-2.575-2.322,14.167,14.167,0,0,0-15.7-.865,24.433,24.433,0,0,0-2.814,2.025,3.865,3.865,0,0,1,.638-.691,12.57,12.57,0,0,1,2.045-1.555,13.92,13.92,0,0,1,15.986.881,12.563,12.563,0,0,1,1.861,1.77,3.877,3.877,0,0,1,.559.757" transform="translate(-127.914 -89.874)" fill="#263238"/>
                <path id="Path_673" data-name="Path 673" d="M444.625,296.378A15.184,15.184,0,0,0,441.4,294.6a14.255,14.255,0,0,0-8.719-.262,20.3,20.3,0,0,0-4.509,1.877,21.4,21.4,0,0,0-3.265,2.308c-.869.741-1.534,1.388-1.99,1.839a5.66,5.66,0,0,1-.729.683,4.971,4.971,0,0,1,.627-.781,24.409,24.409,0,0,1,1.923-1.936,20.061,20.061,0,0,1,3.268-2.4,19.615,19.615,0,0,1,4.579-1.937,13.988,13.988,0,0,1,8.91.373,10.232,10.232,0,0,1,2.384,1.345,6.526,6.526,0,0,1,.567.482c.124.115.186.18.178.19" transform="translate(-126.908 -88.207)" fill="#263238"/>
                <path id="Path_674" data-name="Path 674" d="M444.056,289.108c-.02.072-1.374-.342-3.622-.646a29.083,29.083,0,0,0-3.97-.252,28.828,28.828,0,0,0-9.551,1.681,29.143,29.143,0,0,0-3.645,1.592c-2.01,1.054-3.141,1.905-3.184,1.844a5.087,5.087,0,0,1,.775-.62,11.145,11.145,0,0,1,.962-.657c.386-.239.815-.532,1.325-.793a26.278,26.278,0,0,1,3.654-1.681,27.35,27.35,0,0,1,9.665-1.7,26.313,26.313,0,0,1,4.007.332c.569.072,1.072.2,1.516.294a10.787,10.787,0,0,1,1.128.29,5.134,5.134,0,0,1,.941.318" transform="translate(-126.274 -86.533)" fill="#263238"/>
                <path id="Path_675" data-name="Path 675" d="M361.334,191.714a6.476,6.476,0,0,1,.536,2.059,20.087,20.087,0,0,1-.294,6.007,35.759,35.759,0,0,1-1,4.187,31.769,31.769,0,0,1-2.034,4.652c-1.668,3.217-3.768,6.724-6.2,10.465l-.284.437V219c0-2.472-.008-5.066-.012-7.76l.272.13-6.532,5.272.057-.083a68.771,68.771,0,0,0-2.905,15.7c-.639,8.512-.124,16.652.278,24.038.345,7.4.569,14.056.8,19.648s.424,10.117.592,13.242c.092,1.548.163,2.757.213,3.6.027.4.048.709.062.935.012.211.009.32.009.32s-.022-.106-.046-.316c-.024-.227-.056-.536-.1-.933-.078-.82-.178-2.032-.281-3.594-.212-3.124-.453-7.647-.708-13.239s-.547-12.253-.878-19.643c-.42-7.379-.947-15.538-.306-24.082a68.637,68.637,0,0,1,2.934-15.781l.015-.05.041-.033,6.543-5.259.273-.219v.35c0,2.694-.008,5.288-.012,7.76l-.285-.086c4.8-7.451,8.712-13.926,9.314-19.164a20.7,20.7,0,0,0,.377-5.965,10.09,10.09,0,0,0-.287-1.55c-.11-.339-.155-.52-.155-.52" transform="translate(-102.886 -57.628)" fill="#263238"/>
                <path id="Path_676" data-name="Path 676" d="M350.657,320.706l-.25-.008a1.971,1.971,0,1,0,.25.008" transform="translate(-104.754 -96.4)" fill="#fff"/>
                <path id="Path_677" data-name="Path 677" d="M350.657,282.164l-.25-.008a1.971,1.971,0,1,0,.25.008" transform="translate(-104.754 -84.814)" fill="#fff"/>
                <path id="Path_678" data-name="Path 678" d="M350.4,245.992a1.973,1.973,0,0,0,.262-3.936l-.25-.009a1.973,1.973,0,0,0-.012,3.945" transform="translate(-104.754 -72.758)" fill="#fff"/>
                <path id="Path_679" data-name="Path 679" d="M304.113,123.9a49.029,49.029,0,0,1-6.714-8.651,16.464,16.464,0,0,1-2.261-10.527c.345-2.111,1.243-4.122,1.385-6.256.2-2.937-1.039-6.007,0-8.76,1.628-4.3,7.42-4.968,10.932-7.94,2.735-2.315,4.066-6.074,7.074-8.02,2.628-1.7,6.005-1.664,9.1-1.225s6.218,1.22,9.321.8a61.494,61.494,0,0,0,6.461-1.728c2.166-.536,4.583-.678,6.512.443s3.013,3.86,1.748,5.7c3.595-1.658,8.162,1.144,9.145,4.98s-.986,7.977-4.032,10.506-6.986,3.705-10.876,4.439c-11.015,2.076-22.962.9-32.454-5.057" transform="translate(-88.667 -21.399)" fill="#263238"/>
                <path id="Path_680" data-name="Path 680" d="M346.01,164.648c-.538-4.17-.978-7.648-1.005-8.08,0,0,13.934-3.131,13.166-17.219-.371-6.809-2.277-20.77-4.147-33.381a26.282,26.282,0,0,0-27.757-22.35l-1.358.091c-14.589,1.835-21.18,15.251-18.942,29.783l7.871,48.728S317.2,173,324.38,174.865l9.068,12.953,1.5-5.576,6.759-5.884a26.629,26.629,0,0,0,3.332-4.96,10.856,10.856,0,0,0,.972-6.75" transform="translate(-91.843 -25.117)" fill="#ffbe9d"/>
                <path id="Path_681" data-name="Path 681" d="M353.943,185.94a32.806,32.806,0,0,1-18.7-3.988s5.016,9.841,18.978,7.633Z" transform="translate(-100.772 -54.694)" fill="#eb996e"/>
                <path id="Path_682" data-name="Path 682" d="M366.665,132.181a2.014,2.014,0,0,1-1.8,2.158,1.927,1.927,0,0,1-2.194-1.674,2.016,2.016,0,0,1,1.8-2.159,1.928,1.928,0,0,1,2.2,1.675" transform="translate(-109.013 -39.225)" fill="#263238"/>
                <path id="Path_683" data-name="Path 683" d="M367.779,124.966c-.232.278-1.83-.747-3.994-.6-2.163.119-3.675,1.338-3.927,1.089-.124-.11.1-.6.756-1.149a5.523,5.523,0,0,1,3.123-1.2,5.3,5.3,0,0,1,3.2.8c.7.466.956.925.841,1.051" transform="translate(-108.161 -37.004)" fill="#263238"/>
                <path id="Path_684" data-name="Path 684" d="M337.446,134.27a2.015,2.015,0,0,1-1.8,2.158,1.926,1.926,0,0,1-2.193-1.674,2.016,2.016,0,0,1,1.8-2.159,1.929,1.929,0,0,1,2.2,1.675" transform="translate(-100.23 -39.853)" fill="#263238"/>
                <path id="Path_685" data-name="Path 685" d="M337.414,127.577c-.232.279-1.832-.746-3.994-.6-2.163.12-3.676,1.339-3.929,1.089-.122-.109.1-.6.757-1.148a5.523,5.523,0,0,1,3.123-1.2,5.312,5.312,0,0,1,3.2.8c.7.466.955.925.841,1.051" transform="translate(-99.034 -37.789)" fill="#263238"/>
                <path id="Path_686" data-name="Path 686" d="M352.64,142.846a14.325,14.325,0,0,1,3.471-.869c.548-.094,1.064-.239,1.132-.622a2.812,2.812,0,0,0-.478-1.612q-.913-1.953-1.915-4.1c-2.669-5.837-4.641-10.651-4.4-10.757s2.591,4.54,5.26,10.378q.968,2.16,1.849,4.126a3.208,3.208,0,0,1,.432,2.149,1.388,1.388,0,0,1-.854.869,3.758,3.758,0,0,1-.929.193,14.1,14.1,0,0,1-3.561.243" transform="translate(-105.336 -37.54)" fill="#263238"/>
                <path id="Path_687" data-name="Path 687" d="M336.6,115.617c-.174.6-2.353.468-4.87.944-2.528.425-4.524,1.305-4.9.8-.167-.243.153-.82.942-1.445a8.625,8.625,0,0,1,7.44-1.328c.957.313,1.457.743,1.384,1.029" transform="translate(-98.233 -34.344)" fill="#263238"/>
                <path id="Path_688" data-name="Path 688" d="M366.283,116.031c-.348.517-1.872.106-3.666.2-1.8.033-3.287.552-3.671.061-.169-.239.036-.747.668-1.257a5.316,5.316,0,0,1,5.912-.212c.667.463.909.955.757,1.206" transform="translate(-107.88 -34.276)" fill="#263238"/>
                <path id="Path_689" data-name="Path 689" d="M304.93,141.038c-.247-.088-9.864-2.214-8.913,7.389s11.359,6.474,11.348,6.2-2.435-13.586-2.435-13.586" transform="translate(-88.961 -42.317)" fill="#ffbe9d"/>
                <path id="Path_690" data-name="Path 690" d="M304.179,152.874c-.045-.027-.156.134-.426.292a1.679,1.679,0,0,1-1.248.149c-1.051-.272-2.065-1.8-2.284-3.524a5.563,5.563,0,0,1,.232-2.442,1.941,1.941,0,0,1,1.131-1.409.856.856,0,0,1,1.033.361c.155.256.113.453.166.465.029.021.19-.181.073-.571a1.073,1.073,0,0,0-.438-.564,1.268,1.268,0,0,0-.949-.153,2.363,2.363,0,0,0-1.6,1.662,5.715,5.715,0,0,0-.315,2.735c.253,1.929,1.423,3.642,2.851,3.905a1.8,1.8,0,0,0,1.5-.406c.274-.267.3-.487.269-.5" transform="translate(-90.03 -43.721)" fill="#eb996e"/>
                <path id="Path_691" data-name="Path 691" d="M352.646,91.8c-.66,3.823-8.413,7.326-14.841,7.138-5.926-.173-8.853-3.113-13.159-5.2-2.726-1.323-2.726-1.323-6.424-.722-2.99.486-4.542,4.015-6.221,6.536,3.2,6.972,1.906,15.081.55,22.631a3.832,3.832,0,0,1-.972,2.295c-1.08.952-2.83.382-3.892-.59-1.7-1.556-2.473-3.864-3.031-6.1a39.678,39.678,0,0,1-.951-15.617,27.014,27.014,0,0,1,6.5-14.1A25.6,25.6,0,0,1,327.659,80.1a31.43,31.43,0,0,1,18.622,5.287,18.415,18.415,0,0,1,6.365,6.413" transform="translate(-91.173 -24.065)" fill="#263238"/>
                <path id="Path_692" data-name="Path 692" d="M352.31,156.44l-4.9-2.283a1.647,1.647,0,0,0-.89-.225,1.424,1.424,0,0,0-.847.575,4.553,4.553,0,0,0-.542,5,3.823,3.823,0,0,0,4.594,1.689c1.735-.718,2.578-2.733,2.714-4.606Z" transform="translate(-103.59 -46.269)" fill="#eb996e"/>
                <path id="Path_693" data-name="Path 693" d="M349.629,161.277c.014.042-.227.183-.716.285a4.235,4.235,0,0,1-2.106-.155,4.391,4.391,0,0,1-2.431-2.02,4.513,4.513,0,0,1-.3-3.861,4.716,4.716,0,0,1,1.136-1.712,4.36,4.36,0,0,1,.794-.6,1.186,1.186,0,0,1,1.133-.07,7.09,7.09,0,0,1,.762.433l.668.41,1.192.746a10.688,10.688,0,0,1,2.274,1.622,10.7,10.7,0,0,1-2.533-1.177l-1.237-.669-.685-.378a7.6,7.6,0,0,0-.692-.364.516.516,0,0,0-.535.051,3.837,3.837,0,0,0-.644.51,4.157,4.157,0,0,0-.952,1.46,3.952,3.952,0,0,0,.207,3.278,4.042,4.042,0,0,0,2.023,1.86,4.789,4.789,0,0,0,1.9.355c.466-.011.731-.057.746,0" transform="translate(-103.337 -46.001)" fill="#263238"/>
                <path id="Path_694" data-name="Path 694" d="M341.237,128.88a17.333,17.333,0,0,0-.383-2.432,9.992,9.992,0,0,0-3.656-5.438,9.869,9.869,0,0,0-9.35-1.392,9.89,9.89,0,0,0-4.573,3.439,9.812,9.812,0,0,0,0,11.644,9.881,9.881,0,0,0,4.574,3.44,9.944,9.944,0,0,0,13.006-6.83,17.318,17.318,0,0,0,.383-2.431.542.542,0,0,1,.01.163c0,.129,0,.287-.006.478a4.6,4.6,0,0,1-.061.776,7.1,7.1,0,0,1-.188,1.048,9.48,9.48,0,0,1-1.085,2.707,10.128,10.128,0,0,1-6.821,4.827,10.2,10.2,0,0,1-5.353-.422,10.187,10.187,0,0,1-4.748-3.545,10.138,10.138,0,0,1,0-12.067,10.194,10.194,0,0,1,4.747-3.544,10.194,10.194,0,0,1,5.352-.422,10.125,10.125,0,0,1,6.821,4.827,9.471,9.471,0,0,1,1.086,2.707,7.089,7.089,0,0,1,.188,1.048,4.6,4.6,0,0,1,.061.776c0,.192,0,.349.006.478a.542.542,0,0,1-.01.163" transform="translate(-96.489 -35.682)" fill="#263238"/>
                <path id="Path_695" data-name="Path 695" d="M375.7,127.645a17.281,17.281,0,0,0-.374-2.369,9.742,9.742,0,0,0-3.563-5.3,9.613,9.613,0,0,0-9.107-1.355,9.622,9.622,0,0,0-4.455,3.35,9.556,9.556,0,0,0,0,11.341,9.636,9.636,0,0,0,4.455,3.351,9.689,9.689,0,0,0,12.67-6.652,17.281,17.281,0,0,0,.374-2.369,3.968,3.968,0,0,1,0,.625,4.49,4.49,0,0,1-.059.757,6.875,6.875,0,0,1-.183,1.021,9.837,9.837,0,0,1-7.7,7.345,9.935,9.935,0,0,1-5.218-.412,9.937,9.937,0,0,1-4.628-3.455,9.884,9.884,0,0,1,0-11.763,9.935,9.935,0,0,1,4.627-3.454,9.932,9.932,0,0,1,5.218-.412,9.839,9.839,0,0,1,7.7,7.345,6.859,6.859,0,0,1,.183,1.021,4.489,4.489,0,0,1,.059.757,3.968,3.968,0,0,1,0,.625" transform="translate(-107.004 -35.388)" fill="#263238"/>
                <path id="Path_696" data-name="Path 696" d="M354.134,128.269c-.039.041-.271-.154-.7-.355a4.007,4.007,0,0,0-1.761-.387,3.957,3.957,0,0,0-1.746.448c-.417.218-.639.422-.681.383s.129-.306.546-.6a3.455,3.455,0,0,1,3.768-.066c.428.279.6.551.57.58" transform="translate(-104.981 -38.224)" fill="#263238"/>
                <path id="Path_697" data-name="Path 697" d="M318.259,131.215a43.242,43.242,0,0,1-4.383,3.5,43.292,43.292,0,0,1-4.6,3.208,86.333,86.333,0,0,1,8.984-6.707" transform="translate(-92.966 -39.441)" fill="#263238"/>
                <g id="Group_1015" data-name="Group 1015" transform="translate(216.862 137.294)" opacity="0.3">
                    <g id="Group_1014" data-name="Group 1014">
                        <g id="Group_1013" data-name="Group 1013" clip-path="url(#clip-path-10)">
                            <path id="Path_698" data-name="Path 698" d="M310.221,196.3c-.973,9.492,2.636,19.511,10.249,25.263a2.316,2.316,0,0,0,2.051.644,2.256,2.256,0,0,0,1.062-1.1,18.539,18.539,0,0,0,2.27-12.2c-1.206,3.175-2.24,6.29-3.457,9.611-6.634-4.028-10.768-12.591-12.175-22.226" transform="translate(-310.066 -196.301)"/>
                        </g>
                    </g>
                </g>
                <g id="Group_1018" data-name="Group 1018" transform="translate(242.79 136.425)" opacity="0.3">
                    <g id="Group_1017" data-name="Group 1017">
                        <g id="Group_1016" data-name="Group 1016" clip-path="url(#clip-path-11)">
                            <path id="Path_699" data-name="Path 699" d="M347.138,217.509l5.585-2.04.925,9.448s6.028-10.987,8.523-16,1.211-13.859,1.211-13.859.892,7.705-5.148,17.535L353.675,220v-7.761Z" transform="translate(-347.138 -195.059)"/>
                        </g>
                    </g>
                </g>
                <g id="Group_1021" data-name="Group 1021" transform="translate(158.102 205.737)" opacity="0.3">
                    <g id="Group_1020" data-name="Group 1020">
                        <g id="Group_1019" data-name="Group 1019" clip-path="url(#clip-path-12)">
                            <path id="Path_700" data-name="Path 700" d="M245.754,295.319a14.932,14.932,0,0,0-8.094-1.016,15.608,15.608,0,0,0-8.056,3.049,8.992,8.992,0,0,0-3.517,7.6l.28.04c1.949-5.276,5.826-9.115,10.826-9.578a16.423,16.423,0,0,1,13.31,5.425c-.334-2.735-2.256-4.346-4.748-5.523" transform="translate(-226.052 -294.159)"/>
                        </g>
                    </g>
                </g>
                <g id="Group_1024" data-name="Group 1024" transform="translate(298.397 208.345)" opacity="0.3">
                    <g id="Group_1023" data-name="Group 1023">
                        <g id="Group_1022" data-name="Group 1022" clip-path="url(#clip-path-13)">
                            <path id="Path_701" data-name="Path 701" d="M447.32,301.834a12.8,12.8,0,0,0-7.215-3.717,16.215,16.215,0,0,0-13.461,3.9l1.066-.864a16.976,16.976,0,0,1,8.964-2.436,12.977,12.977,0,0,1,8.545,3.414c2.088,1.99,3.343,4.676,4.541,7.3a9.149,9.149,0,0,0-2.44-7.593" transform="translate(-426.643 -297.889)"/>
                        </g>
                    </g>
                </g>
                <path id="Path_702" data-name="Path 702" d="M404.716,232.586a3.416,3.416,0,0,1,.25-.764l.795-2.033c.676-1.714,1.605-4.082,2.585-6.716s1.825-5.034,2.433-6.774l.727-2.058a3.411,3.411,0,0,1,.309-.741,3.426,3.426,0,0,1-.174.784c-.134.5-.345,1.215-.618,2.1-.546,1.763-1.355,4.181-2.336,6.821s-1.95,5-2.689,6.688c-.369.845-.678,1.525-.9,1.99a3.442,3.442,0,0,1-.381.708" transform="translate(-121.654 -64.177)" fill="#263238"/>
                <path id="Path_703" data-name="Path 703" d="M277.337,235.349c-.1.02-.859-3.308-1.7-7.433s-1.439-7.486-1.341-7.507.858,3.307,1.7,7.434,1.439,7.486,1.341,7.506" transform="translate(-82.449 -66.254)" fill="#263238"/>
                <path id="Path_704" data-name="Path 704" d="M275.659,281.676c.221.112-2.563-21.795-2.563-21.795s1.757-16.624,2.744-17.394l.025-5.865s2.719-1.647,3.449,1.012c0,0,2.411-2.093,2.833,2.89s.509,10.076.509,10.076l5.367,13.418.883.446s1.153-10.511,1.823-12.058,1.13-5.309,3.674-4.744,2.756,2.669,2.3,6.1-1.027,6.97-.815,9.184,1.218,7.091.909,10.963-2.43,7.96-4.657,10.829-6.479,8.8-8.791,10.589c-.808.624-7.69-13.65-7.69-13.65" transform="translate(-82.091 -70.976)" fill="#ffbe9d"/>
                <path id="Path_705" data-name="Path 705" d="M279.6,266.709a4.654,4.654,0,0,1,.015-.938c.045-.673.1-1.526.175-2.544.163-2.148.414-5.112.715-8.384.154-1.632.3-3.186.436-4.611a8.222,8.222,0,0,0,.024-1.978,2.8,2.8,0,0,0-.669-1.511,3.012,3.012,0,0,0-2.191-.962,5.771,5.771,0,0,0-.913.117c0-.011.069-.05.218-.115a2.4,2.4,0,0,1,.691-.144,2.968,2.968,0,0,1,3.163,2.568,8.293,8.293,0,0,1,.011,2.055c-.126,1.426-.264,2.982-.408,4.615-.3,3.272-.592,6.232-.821,8.373-.116,1.015-.213,1.865-.29,2.535a4.786,4.786,0,0,1-.156.925" transform="translate(-83.322 -73.836)" fill="#eb996e"/>
                <path id="Path_706" data-name="Path 706" d="M283.433,262.958a7.572,7.572,0,0,0-.95,1.73,29.219,29.219,0,0,0-.892,4.728c-.289,1.873-.571,3.566-.792,4.787a11.033,11.033,0,0,1-.434,1.967,11.036,11.036,0,0,1,.179-2.006c.157-1.232.4-2.931.687-4.8a22.574,22.574,0,0,1,1.011-4.766,4.537,4.537,0,0,1,.776-1.278c.235-.265.4-.371.415-.358" transform="translate(-84.271 -79.043)" fill="#eb996e"/>
                <path id="Path_707" data-name="Path 707" d="M281.933,237.874a2.706,2.706,0,0,1,.187.689c.1.448.22,1.1.353,1.908.267,1.616.56,3.863.745,6.357s.224,4.761.2,6.4c-.013.819-.037,1.481-.069,1.939a2.676,2.676,0,0,1-.083.709,23.324,23.324,0,0,1-.106-2.647c-.038-1.633-.12-3.888-.3-6.373s-.436-4.727-.637-6.348a23.276,23.276,0,0,1-.285-2.633" transform="translate(-84.744 -71.503)" fill="#eb996e"/>
                <path id="Path_708" data-name="Path 708" d="M302.68,266.815a1.953,1.953,0,0,1-1.807.153c-1.027-.306-1.5-1.1-1.414-1.135a4.738,4.738,0,0,0,3.221.982" transform="translate(-90.012 -79.906)" fill="#eb996e"/>
                <path id="Path_709" data-name="Path 709" d="M262.967,297.361l-14.176,5.958h-8.446s-8.354,2.607-9.639,10.438-1.469,11.862,2.2,12.83,14.046,1.076,19.188-.63S270.7,313.384,270.7,313.384l1.3-7.861Z" transform="translate(-69.097 -89.385)" fill="#ffbe9d"/>
                <path id="Path_710" data-name="Path 710" d="M280.106,304.2c-.018.017-.16-.115-.4-.37a8.774,8.774,0,0,1-.921-1.171,16.034,16.034,0,0,1-1.98-4.484,26.581,26.581,0,0,1-.873-4.818,9.014,9.014,0,0,1-.055-2.025,14.7,14.7,0,0,1,.311,2,36.07,36.07,0,0,0,.968,4.747A18.739,18.739,0,0,0,279,302.526c.637,1.059,1.156,1.633,1.106,1.679" transform="translate(-82.916 -87.574)" fill="#eb996e"/>
                <path id="Path_711" data-name="Path 711" d="M288.005,304.943a14.622,14.622,0,0,0,.808-3.039,9.791,9.791,0,0,0-1.9-7.114c-.861-1.207-1.83-2.258-2.645-3.275a15.173,15.173,0,0,1-1.916-2.9,7.6,7.6,0,0,1-.711-2.236,2.577,2.577,0,0,1-.024-.859,9.71,9.71,0,0,0,.964,2.978,16.23,16.23,0,0,0,1.946,2.8c.822,1,1.8,2.042,2.683,3.276a10.211,10.211,0,0,1,1.768,3.878,9.884,9.884,0,0,1,.094,3.482,8.974,8.974,0,0,1-.65,2.252,5.082,5.082,0,0,1-.286.569c-.073.126-.116.189-.127.183" transform="translate(-84.644 -85.827)" fill="#eb996e"/>
                <path id="Path_712" data-name="Path 712" d="M256.685,259.01a70.772,70.772,0,0,1-3.454-6.285,70.582,70.582,0,0,1-3.131-6.453,70.719,70.719,0,0,1,3.455,6.286,70.767,70.767,0,0,1,3.131,6.452" transform="translate(-75.177 -74.028)" fill="#fff"/>
                <path id="Path_713" data-name="Path 713" d="M292.293,223.554a44.148,44.148,0,0,1,2.135-5.24,43.972,43.972,0,0,1,2.468-5.092,44.011,44.011,0,0,1-2.135,5.241,44.075,44.075,0,0,1-2.467,5.092" transform="translate(-87.86 -64.093)" fill="#fff"/>
                <path id="Path_714" data-name="Path 714" d="M321.752,248.486a63.86,63.86,0,0,1-6.145-7.423,63.829,63.829,0,0,1,6.145,7.423" transform="translate(-94.868 -72.462)" fill="#fff"/>
                <path id="Path_715" data-name="Path 715" d="M317.007,281.2a52.627,52.627,0,0,1,5.137-7.084,52.679,52.679,0,0,1-5.137,7.084" transform="translate(-95.289 -82.398)" fill="#fff"/>
                <path id="Path_716" data-name="Path 716" d="M305.206,325.878a6.777,6.777,0,0,1-.821-1.405c-.46-.892-1.055-2.145-1.654-3.554s-1.087-2.708-1.411-3.658a6.788,6.788,0,0,1-.441-1.567,7.719,7.719,0,0,1,.682,1.475l1.506,3.607c.576,1.335,1.1,2.541,1.551,3.588a7.708,7.708,0,0,1,.588,1.514" transform="translate(-90.44 -94.895)" fill="#fff"/>
                <path id="Path_717" data-name="Path 717" d="M331.691,309.988a50.636,50.636,0,0,1-8.423-1.63,50.639,50.639,0,0,1,8.423,1.63" transform="translate(-97.172 -92.685)" fill="#fff"/>
                <path id="Path_718" data-name="Path 718" d="M357.212,263.831a103.984,103.984,0,0,1,8.365-9.021,103.959,103.959,0,0,1-8.365,9.021" transform="translate(-107.375 -76.594)" fill="#fff"/>
                <path id="Path_719" data-name="Path 719" d="M375.026,319.917c-.078.064-2.339-2.554-5.051-5.846s-4.848-6.013-4.771-6.077,2.339,2.553,5.052,5.846,4.848,6.014,4.77,6.077" transform="translate(-109.778 -92.581)" fill="#fff"/>
                <path id="Path_720" data-name="Path 720" d="M238.952,300.6c.051.1-2.016,1.148-4.267,2.876s-3.819,3.431-3.9,3.355a5.256,5.256,0,0,1,.951-1.188,22.657,22.657,0,0,1,5.819-4.44,5.281,5.281,0,0,1,1.4-.6" transform="translate(-69.372 -90.358)" fill="#fff"/>
                <path id="Path_721" data-name="Path 721" d="M249.158,278.507a28.962,28.962,0,0,1-3.589,5.4,28.964,28.964,0,0,1,3.589-5.4" transform="translate(-73.815 -83.717)" fill="#fff"/>
                <path id="Path_722" data-name="Path 722" d="M268.641,297.639a9.245,9.245,0,0,1-1.358-5.978c.108,0,.145,1.381.525,3.024s.932,2.907.834,2.954" transform="translate(-80.314 -87.671)" fill="#fff"/>
                <path id="Path_723" data-name="Path 723" d="M269.68,231.269a20.8,20.8,0,0,1-5.441.774,20.8,20.8,0,0,1,5.441-.774" transform="translate(-79.429 -69.506)" fill="#fff"/>
                <path id="Path_724" data-name="Path 724" d="M283.857,206.557a21.55,21.55,0,0,1-4.894,2.712,21.549,21.549,0,0,1,4.894-2.712" transform="translate(-83.854 -62.087)" fill="#fff"/>
                <path id="Path_725" data-name="Path 725" d="M322.973,214.123a48.908,48.908,0,0,1-5.106-6.7,24.348,24.348,0,0,1,2.7,3.242,24.624,24.624,0,0,1,2.408,3.462" transform="translate(-95.547 -62.348)" fill="#fff"/>
                <path id="Path_726" data-name="Path 726" d="M373.12,238.947a17.132,17.132,0,0,1-4.231-6.8c.1-.043.852,1.588,2.022,3.459s2.291,3.272,2.209,3.342" transform="translate(-110.883 -69.781)" fill="#fff"/>
                <path id="Path_727" data-name="Path 727" d="M392.552,248.132a41.558,41.558,0,0,1-3.215,7.085,41.567,41.567,0,0,1,3.215-7.085" transform="translate(-117.03 -74.587)" fill="#fff"/>
                <path id="Path_728" data-name="Path 728" d="M393.676,218.7a38.7,38.7,0,0,1-3.533-3.961,38.755,38.755,0,0,1-3.254-4.2,77.509,77.509,0,0,1,6.787,8.156" transform="translate(-116.295 -63.286)" fill="#fff"/>
                <path id="Path_729" data-name="Path 729" d="M367.424,198.219a31.778,31.778,0,0,1-.268-6.793,31.777,31.777,0,0,1,.268,6.793" transform="translate(-110.337 -57.541)" fill="#fff"/>
                <path id="Path_730" data-name="Path 730" d="M387.5,199.815a52.9,52.9,0,0,1-8.685,1.162,52.726,52.726,0,0,1,8.685-1.162" transform="translate(-113.87 -60.055)" fill="#fff"/>
                <path id="Path_731" data-name="Path 731" d="M426.4,222.87a43,43,0,0,1-2.6-4.952,43.076,43.076,0,0,1-2.271-5.112,43.044,43.044,0,0,1,2.6,4.953,43.093,43.093,0,0,1,2.27,5.111" transform="translate(-126.708 -63.968)" fill="#fff"/>
                <path id="Path_732" data-name="Path 732" d="M422.213,247.455a44.511,44.511,0,0,1,1.576-7.891,44.494,44.494,0,0,1-1.576,7.891" transform="translate(-126.909 -72.011)" fill="#fff"/>
                <path id="Path_733" data-name="Path 733" d="M437.867,264.819a45.5,45.5,0,0,1-2.074-5.374,45.484,45.484,0,0,1-1.73-5.495,91.217,91.217,0,0,1,3.8,10.869" transform="translate(-130.474 -76.336)" fill="#fff"/>
                <path id="Path_734" data-name="Path 734" d="M434.294,278.874a12.286,12.286,0,0,1-6.521-3.533c.071-.084,1.36.981,3.162,1.95s3.391,1.477,3.359,1.583" transform="translate(-128.585 -82.764)" fill="#fff"/>
                <path id="Path_735" data-name="Path 735" d="M458.3,303.159a19.778,19.778,0,0,1-2.176-4.89,19.709,19.709,0,0,1,2.176,4.89" transform="translate(-137.103 -89.657)" fill="#fff"/>
                <path id="Path_736" data-name="Path 736" d="M328.148,337.258a27.156,27.156,0,0,1-.725-6.236,27.16,27.16,0,0,1,.725,6.236" transform="translate(-98.408 -99.503)" fill="#fff"/>
                <path id="Path_737" data-name="Path 737" d="M396.4,335.651a25.724,25.724,0,0,1,1.272-5.981,25.717,25.717,0,0,1-1.272,5.981" transform="translate(-119.147 -99.097)" fill="#fff"/>
            </g>
        </g>
        <g id="Group_1028" data-name="Group 1028">
            <g id="Group_1027" data-name="Group 1027" clip-path="url(#clip-path)">
                <path id="Path_738" data-name="Path 738" d="M409.432,116.313l6.144-10.827a29.01,29.01,0,1,1,6.948,7.728l.01.013Z" transform="translate(-123.073 -18.445)" fill="#fafafa"/>
                <path id="Path_739" data-name="Path 739" d="M409.432,116.253l13.122-3,.134-.031-.084-.11-.01-.013-.125.124a29.677,29.677,0,0,0,5.957,3.592,29.066,29.066,0,0,0,7.943,2.268,26.067,26.067,0,0,0,4.587.232c.79-.045,1.593-.064,2.4-.131l2.448-.37a29.228,29.228,0,0,0,18.1-11.621A28.884,28.884,0,0,0,468.805,96a29.524,29.524,0,0,0-.342-12.887A28.575,28.575,0,0,0,462.254,71.2l-1.183-1.3c-.389-.438-.853-.8-1.274-1.2-.441-.38-.839-.81-1.313-1.146l-1.39-1.039a12.233,12.233,0,0,0-1.439-.953l-1.47-.892-1.538-.747a13.523,13.523,0,0,0-1.553-.691,29.561,29.561,0,0,0-12.986-1.995,28.582,28.582,0,0,0-11.919,3.522,29.388,29.388,0,0,0-13.75,16.921,31.315,31.315,0,0,0-1.259,9.422,28.8,28.8,0,0,0,1.419,8.135,29.363,29.363,0,0,0,2.905,6.234v-.087l-6.069,10.869,6.218-10.784.025-.043-.027-.044a29.422,29.422,0,0,1-2.851-6.209,28.715,28.715,0,0,1-1.372-8.077,31.129,31.129,0,0,1,1.279-9.333,29.136,29.136,0,0,1,13.642-16.716,28.278,28.278,0,0,1,11.786-3.466,29.24,29.24,0,0,1,12.829,1.981,13.312,13.312,0,0,1,1.534.683l1.52.739,1.451.882a12.094,12.094,0,0,1,1.421.941l1.374,1.027c.469.331.861.757,1.3,1.132.416.4.875.753,1.259,1.185l1.168,1.286A28.252,28.252,0,0,1,468.12,83.2a29.23,29.23,0,0,1,.348,12.733A28.582,28.582,0,0,1,463.642,107a28.964,28.964,0,0,1-17.889,11.536l-2.423.373c-.8.069-1.6.091-2.38.138a25.849,25.849,0,0,1-4.547-.214,28.92,28.92,0,0,1-7.888-2.217,29.659,29.659,0,0,1-5.937-3.534l-.54-.413.414.537.01.013.05-.141-13.081,3.172" transform="translate(-123.073 -18.385)" fill="#263238"/>
                <path id="Path_740" data-name="Path 740" d="M464.669,99.823a2.83,2.83,0,1,0,2.83-2.83,2.829,2.829,0,0,0-2.83,2.83" transform="translate(-139.677 -29.155)" fill="#263238"/>
                <path id="Path_741" data-name="Path 741" d="M448.476,99.823a2.83,2.83,0,1,0,2.83-2.83,2.83,2.83,0,0,0-2.83,2.83" transform="translate(-134.809 -29.155)" fill="#263238"/>
                <path id="Path_742" data-name="Path 742" d="M432.161,98.408a2.83,2.83,0,1,0,3.866-1.036,2.831,2.831,0,0,0-3.866,1.036" transform="translate(-129.791 -29.155)" fill="#263238"/>
            </g>
        </g>
    </g>
</svg>
