<svg xmlns="http://www.w3.org/2000/svg" width="76.531" height="68.446" viewBox="0 0 76.531 68.446">
    <g id="Group_36" data-name="Group 36" transform="translate(-863.906 -832.281)">
        <path id="Path_106" data-name="Path 106" d="M2212.663,43.672a4.395,4.395,0,0,1-.831.812,1.466,1.466,0,0,1-2.152-1.413c-.021-2.342-.007-4.684-.007-7.026V34.033c-.839.438-1.6.831-2.355,1.231-.855.453-2.044.712-2.468,1.425-.443.744-.168,1.926-.174,2.917-.013,2.118-.024,4.236,0,6.353a1.809,1.809,0,0,1-1.288,1.942,27.331,27.331,0,0,0-2.533,1.093.881.881,0,0,0-.441.628q-.028,13.79-.009,27.58a2.019,2.019,0,0,0,.049.256c.76,0,1.546,0,2.333,0,1.263.008,1.817.58,1.793,1.843a9.881,9.881,0,0,1-9.5,9.5c-2.615.051-5.232.014-7.848.014q-20.555,0-41.109,0a9.877,9.877,0,0,1-9.99-9.541,1.533,1.533,0,0,1,1.737-1.815c.771-.007,1.543,0,2.436,0v-.88q0-13.193,0-26.385a10.007,10.007,0,0,1,10.4-10.408q14.313,0,28.627,0h1c0-1,.029-1.96-.026-2.918-.01-.186-.322-.405-.541-.521q-3.134-1.658-6.288-3.277a1.681,1.681,0,0,1-1.142-1.513c0-.77.514-1.173,1.154-1.5q9.045-4.69,18.073-9.412a1.83,1.83,0,0,1,1.839-.012c6.088,3.177,12.184,6.337,18.263,9.529a4.937,4.937,0,0,1,.994.958Zm-73.337,36.775a6.76,6.76,0,0,0,6.591,5.373q24.44.025,48.88,0a6.519,6.519,0,0,0,3.726-1.154,6.806,6.806,0,0,0,2.9-4.224h-23.635c-.249,0-.5.011-.747-.007a1.487,1.487,0,0,1-.029-2.973c.223-.019.448-.009.673-.009h19.695v-27c-1.317.555-2.582,1.063-3.822,1.623a2.372,2.372,0,0,1-2.072.01q-4.926-2.142-9.889-4.2a1.761,1.761,0,0,1-1.263-1.87c.04-1.062.009-2.126.009-3.251h-.9q-14.351,0-28.7,0a7.043,7.043,0,0,0-7.442,7.454q0,13.192,0,26.384v.845h19.737a6.323,6.323,0,0,1,.746.015,1.486,1.486,0,0,1,.033,2.953,6.172,6.172,0,0,1-.821.02h-23.667m37.788-48.9c.24.15.34.221.448.278,4.829,2.512,9.656,5.03,14.5,7.513a1.273,1.273,0,0,0,1.005-.05c4.069-2.088,8.123-4.207,12.179-6.321.848-.442,1.693-.891,2.636-1.387-.253-.15-.392-.242-.54-.319-4.783-2.493-9.564-4.991-14.361-7.457a1.274,1.274,0,0,0-1.008.025c-3.079,1.568-6.138,3.174-9.2,4.77l-5.657,2.948m6.219,6.678c0,2.355-.012,4.59.021,6.825,0,.184.275.443.481.532,2.716,1.174,5.438,2.337,8.174,3.463a1.506,1.506,0,0,0,1.042-.017c2.689-1.111,5.358-2.271,8.044-3.39a.805.805,0,0,0,.6-.872c-.026-1.968-.009-3.936-.014-5.9a5.884,5.884,0,0,0-.072-.628c-2.7,1.4-5.338,2.743-7.944,4.141a2.2,2.2,0,0,1-2.31.011c-2.362-1.279-4.758-2.5-7.142-3.736-.256-.133-.519-.251-.88-.425" transform="translate(-1272.226 811.896)"/>
        <path id="Path_107" data-name="Path 107" d="M2210.792,184.245c-3.139,0-6.278.005-9.417,0a5.011,5.011,0,0,1-5.264-5.187q-.038-6.464,0-12.929a5.006,5.006,0,0,1,5.25-5.2q9.417-.01,18.833,0a4.959,4.959,0,0,1,5.2,5.147q.035,6.5,0,13a4.963,4.963,0,0,1-5.189,5.164c-3.139.01-6.278,0-9.417,0m.012-20.331q-4.667,0-9.334,0a2.078,2.078,0,0,0-2.373,2.319q-.017,6.347,0,12.695a2.08,2.08,0,0,0,2.368,2.325q9.3.005,18.594,0a2.057,2.057,0,0,0,2.352-2.321q.012-6.347,0-12.695a2.056,2.056,0,0,0-2.347-2.324q-4.63-.006-9.26,0" transform="translate(-1320.211 699.427)"/>
        <path id="Path_108" data-name="Path 108" d="M2371.491,229.784c-1.294,0-2.589.008-3.883,0a1.5,1.5,0,1,1-.014-2.983q3.883-.013,7.766,0a1.5,1.5,0,1,1,.014,2.984c-1.294.011-2.589,0-3.883,0" transform="translate(-1456.113 646.712)"/>
        <path id="Path_109" data-name="Path 109" d="M2371.432,265.716c-1.269,0-2.539.007-3.809,0a1.527,1.527,0,0,1-1.715-1.468c-.016-.909.666-1.514,1.74-1.517q3.846-.01,7.692,0a1.537,1.537,0,0,1,1.72,1.466c.017.9-.678,1.512-1.745,1.518-1.294.008-2.589,0-3.883,0" transform="translate(-1456.112 617.956)"/>
        <path id="Path_110" data-name="Path 110" d="M2303.015,307.667a1.489,1.489,0,1,1-1.473-1.486,1.509,1.509,0,0,1,1.473,1.486" transform="translate(-1403.397 583.178)"/>
        <path id="Path_111" data-name="Path 111" d="M2413.859,70.353a1.491,1.491,0,0,1-1.432,1.52,1.49,1.49,0,1,1-.06-2.978,1.487,1.487,0,0,1,1.492,1.459" transform="translate(-1492.105 773.075)"/>
        <path id="Path_112" data-name="Path 112" d="M2252.106,204.184c0-.721-.016-1.442,0-2.162a1.5,1.5,0,0,1,2.348-1.341q1.888,1.047,3.739,2.162a1.484,1.484,0,0,1,.035,2.7q-1.876,1.142-3.8,2.2a1.5,1.5,0,0,1-2.319-1.391c-.015-.72,0-1.441,0-2.162" transform="translate(-1365.033 667.811)"/>
    </g>
</svg>
