<svg id="Group_813" data-name="Group 813"
    xmlns="http://www.w3.org/2000/svg" width="27.416" height="27.416" viewBox="0 0 27.416 27.416">
    <path className="hover:fill-purple-600" id="Path_95" data-name="Path 95" d="M-4147.32,400.508h22.7a.637.637,0,0,0,.118.049,2.784,2.784,0,0,1,1.614.971,3.405,3.405,0,0,1,.624,1.336v22.7a.418.418,0,0,0-.044.092,2.757,2.757,0,0,1-2.783,2.264q-10.881,0-21.763,0a3.087,3.087,0,0,1-.74-.085,2.756,2.756,0,0,1-2.084-2.763q0-10.855,0-21.709c0-.08,0-.161,0-.241a2.744,2.744,0,0,1,.933-1.919A3.277,3.277,0,0,1-4147.32,400.508Zm12.726,23.288v-.35q0-3.32,0-6.639c0-.169.006-.339.021-.508a2.066,2.066,0,0,1,2.567-1.721,2.091,2.091,0,0,1,1.516,2.116q.005,3.386,0,6.772v.323h4.1c0-.075.009-.136.009-.2,0-2.525.006-5.05,0-7.576a4.618,4.618,0,0,0-1.712-3.657,4.284,4.284,0,0,0-6.127.277c-.117.123-.221.259-.386.453V411.5h-4.08v12.3Zm-6.875,0V411.5h-4.072v12.3Zm.421-17.118a2.469,2.469,0,0,0-2.464-2.469,2.484,2.484,0,0,0-2.463,2.477,2.468,2.468,0,0,0,2.458,2.45A2.454,2.454,0,0,0-4141.048,406.679Z" transform="translate(4149.676 -400.508)" fill="#b8b8b8" />
</svg>