<svg id="Group_9" data-name="Group 9"
    xmlns="http://www.w3.org/2000/svg"
    xmlnsXlink="http://www.w3.org/1999/xlink" width="260" height="134.731" viewBox="0 0 260 134.731">
    <defs>
        <clipPath id="clip-path">
            <rect id="Rectangle_43" data-name="Rectangle 43" width="260" height="134.731" fill="none" />
        </clipPath>
    </defs>
    <g id="Group_8" data-name="Group 8" clip-path="url(#clip-path)">
        <path id="Path_16" data-name="Path 16" d="M334.186,90.748,321.792,69.275a16.358,16.358,0,0,0-1.347-1.946,14.516,14.516,0,0,0,1.295-1.879l12.386-21.466a15.028,15.028,0,0,0,0-15.014L321.74,7.5A15.061,15.061,0,0,0,308.731,0H283.943a15.049,15.049,0,0,0-13,7.5L258.548,28.969a15.066,15.066,0,0,0,0,15.014L270.942,65.45A14.535,14.535,0,0,0,272.3,67.4,15.652,15.652,0,0,0,271,69.275L258.607,90.748a15.065,15.065,0,0,0,0,15.014L271,127.228a15.039,15.039,0,0,0,13,7.5h24.788a15.049,15.049,0,0,0,13-7.5l12.394-21.466a15.065,15.065,0,0,0,0-15.014m-20.141-78.8L326.439,33.41a6.136,6.136,0,0,1,0,6.134l-11.6,20.1L299.97,33.89l13.282-23.006a6.123,6.123,0,0,1,.792,1.059m-47.009,20.1,11.595-20.1a6.149,6.149,0,0,1,5.313-3.064h24.788a5.986,5.986,0,0,1,1.317.155L296.766,32.041Zm11.654,90.748-12.394-21.466a6.137,6.137,0,0,1,0-6.135l11.6-20.1,14.866,25.751-13.282,23a6.142,6.142,0,0,1-.792-1.058m35.415,0a6.165,6.165,0,0,1-5.313,3.063H284a5.986,5.986,0,0,1-1.317-.155l13.282-23h29.739Z" transform="translate(-76.189)" fill="#fff" />
        <rect id="Rectangle_37" data-name="Rectangle 37" width="2.233" height="2.233" transform="translate(25.585 85.86)" fill="#fff" />
        <rect id="Rectangle_38" data-name="Rectangle 38" width="2.207" height="2.233" transform="translate(23.746 82.655)" fill="#fff" />
        <path id="Path_17" data-name="Path 17" d="M32.4,134.834v-6.568H30.591v6.778H28.305a1.8,1.8,0,0,1-1.786-2.1l.657-3.416-1.76-.314-.841,4.177a1.932,1.932,0,0,1-.723,1.182,2.187,2.187,0,0,1-1.405.472,2.317,2.317,0,0,1-1.34-.394,3.2,3.2,0,0,1-.946-1l-2.522-3.73a3.82,3.82,0,0,0-1.655-1.431,4.013,4.013,0,0,0-2.181-.356l-1.419.211a4.575,4.575,0,0,0-1.563.5A4.849,4.849,0,0,0,9.5,129.87a5.1,5.1,0,0,0-.933,1.458,4.444,4.444,0,0,0-.355,1.772v2.207l6.357,1.5v1.077a2.708,2.708,0,0,1-.223,1.09,2.779,2.779,0,0,1-.617.893,3.043,3.043,0,0,1-.906.6,2.708,2.708,0,0,1-1.09.223H6.842a3.21,3.21,0,0,1-1.327-.276,3.562,3.562,0,0,1-1.077-.735,3.379,3.379,0,0,1-.985-2.4v-5.99H1.641v6.305a5.146,5.146,0,0,0,.407,2.036A5.215,5.215,0,0,0,3.164,141.3a5.456,5.456,0,0,0,1.655,1.129,4.931,4.931,0,0,0,2.023.42h4.913a4.494,4.494,0,0,0,3.3-1.379,4.847,4.847,0,0,0,1.327-3.349v-.946a2.264,2.264,0,0,0-.513-1.471,2.46,2.46,0,0,0-1.353-.841l-4.519-1.05v-.736a2.844,2.844,0,0,1,.171-.972,3.019,3.019,0,0,1,.473-.853,2.731,2.731,0,0,1,.709-.631,2.158,2.158,0,0,1,.906-.3l1.76-.236a2.713,2.713,0,0,1,1.327.236,2.282,2.282,0,0,1,1.011.868l2.312,3.6a6.119,6.119,0,0,0,1.694,1.838,3.62,3.62,0,0,0,2.036.578,3.9,3.9,0,0,0,1.812-.42,3.5,3.5,0,0,0,1.367-1.315,2.9,2.9,0,0,0,2.732,1.734h1.708a2.236,2.236,0,0,0,2.39-2.364" transform="translate(-0.487 -38.046)" fill="#fff" />
        <rect id="Rectangle_39" data-name="Rectangle 39" width="2.233" height="2.233" transform="translate(21.985 85.86)" fill="#fff" />
        <path id="Path_18" data-name="Path 18" d="M48.521,137.831a3.619,3.619,0,0,1-.7,2.154A3.552,3.552,0,0,1,46,141.326l-3.179,1.05.578,1.786,3.021-1.024a5.458,5.458,0,0,0,1.59-.841,6.008,6.008,0,0,0,1.235-1.261,5.8,5.8,0,0,0,.8-1.577,5.612,5.612,0,0,0,.289-1.786v-8.144H48.521Z" transform="translate(-12.717 -38.468)" fill="#fff" />
        <rect id="Rectangle_40" data-name="Rectangle 40" width="2.233" height="2.233" transform="translate(35.568 85.729)" fill="#fff" />
        <path id="Path_19" data-name="Path 19" d="M81.019,128.851a3.707,3.707,0,0,0-1.168-.788,3.578,3.578,0,0,0-1.432-.289H76.947a3.391,3.391,0,0,0-1.2.21,3.475,3.475,0,0,0-1.011.578,3.429,3.429,0,0,0-.762.893,3.264,3.264,0,0,0-.42,1.13l-.552,2.706a1.975,1.975,0,0,1-.7,1.182,2.008,2.008,0,0,1-1.327.472H68.068v-3.494a3.6,3.6,0,0,0-1.077-2.587,3.835,3.835,0,0,0-1.169-.775,3.587,3.587,0,0,0-1.431-.289H62.919a3.4,3.4,0,0,0-1.2.21,3.46,3.46,0,0,0-1.774,1.458,3.144,3.144,0,0,0-.42,1.116l-.446,2.39a3.251,3.251,0,0,0,.053,1.537,3.6,3.6,0,0,0,.683,1.327,3.478,3.478,0,0,0,1.156.919,3.3,3.3,0,0,0,1.5.342h2.706a3.924,3.924,0,0,0,.565-.039,1.222,1.222,0,0,0,.486-.17v.472a3.482,3.482,0,0,1-.7,2.141,3.779,3.779,0,0,1-1.826,1.327l-3.152,1.05.578,1.812,2.995-1.024a5.767,5.767,0,0,0,2.8-2.036,5.546,5.546,0,0,0,1.116-3.218V137.1h2.864a3.558,3.558,0,0,0,1.655-.407,2.945,2.945,0,0,0,1.261-1.327A2.822,2.822,0,0,0,76.5,137.1h3.205a2.236,2.236,0,0,0,2.391-2.364v-3.31a3.486,3.486,0,0,0-.29-1.419,3.765,3.765,0,0,0-.788-1.156m-14.764,6.094H62.289a1.432,1.432,0,0,1-1.13-.513,1.343,1.343,0,0,1-.315-1.2l.394-2.1a1.689,1.689,0,0,1,.578-.972,1.606,1.606,0,0,1,1.051-.368H64.6a1.659,1.659,0,0,1,1.655,1.655Zm14.029,0H76.291a1.393,1.393,0,0,1-1.116-.513,1.361,1.361,0,0,1-.3-1.2l.394-2.127a1.728,1.728,0,0,1,.578-.959,1.568,1.568,0,0,1,1.051-.381H78.6a1.625,1.625,0,0,1,1.2.486,1.594,1.594,0,0,1,.486,1.169Z" transform="translate(-17.527 -37.947)" fill="#fff" />
        <path id="Path_20" data-name="Path 20" d="M91.664,114.713a2.015,2.015,0,0,0-.565,1.471v1h1.367v-.762a.662.662,0,0,1,.2-.486.632.632,0,0,1,.46-.2H98.14v-1.6H93.148a1.978,1.978,0,0,0-1.484.578" transform="translate(-27.055 -33.896)" fill="#fff" />
        <rect id="Rectangle_41" data-name="Rectangle 41" width="1.812" height="15.211" transform="translate(67.302 83.942)" fill="#fff" />
        <path id="Path_21" data-name="Path 21" d="M137.153,128.851a3.707,3.707,0,0,0-1.168-.788,3.578,3.578,0,0,0-1.432-.289h-1.471a3.391,3.391,0,0,0-1.2.21,3.475,3.475,0,0,0-1.011.578,3.429,3.429,0,0,0-.762.893,3.264,3.264,0,0,0-.42,1.13l-.552,2.706a1.975,1.975,0,0,1-.7,1.182,2.008,2.008,0,0,1-1.327.472H116.662V137.1h4.913v1.208a2.709,2.709,0,0,1-.223,1.09,2.763,2.763,0,0,1-.618.893,3.039,3.039,0,0,1-.906.6,2.693,2.693,0,0,1-1.09.223h-4.624a3.364,3.364,0,0,1-1.327-.262,3.264,3.264,0,0,1-1.077-.736,3.7,3.7,0,0,1-.735-1.09,3.208,3.208,0,0,1-.276-1.327v-5.99h-1.812v6.305a5.013,5.013,0,0,0,.42,2.036,5.326,5.326,0,0,0,2.8,2.8,5.018,5.018,0,0,0,2.036.42h4.518a4.548,4.548,0,0,0,1.825-.368,4.868,4.868,0,0,0,1.5-1,4.612,4.612,0,0,0,1.379-3.31v-.919a1.554,1.554,0,0,0-.1-.579h3.783a3.558,3.558,0,0,0,1.655-.407,2.945,2.945,0,0,0,1.261-1.327,2.822,2.822,0,0,0,2.679,1.734h3.205a2.236,2.236,0,0,0,2.391-2.364v-3.31a3.486,3.486,0,0,0-.29-1.419,3.764,3.764,0,0,0-.788-1.156m-.735,6.094h-3.993a1.393,1.393,0,0,1-1.116-.513,1.361,1.361,0,0,1-.3-1.2l.394-2.127a1.728,1.728,0,0,1,.578-.959,1.568,1.568,0,0,1,1.051-.381h1.707a1.625,1.625,0,0,1,1.2.486,1.594,1.594,0,0,1,.486,1.169Z" transform="translate(-32.337 -37.947)" fill="#fff" />
        <path id="Path_22" data-name="Path 22" d="M162.842,124.186l-1.523,1.025,3.021,5.385a2.354,2.354,0,0,1,.289,1.051,2.179,2.179,0,0,1-.21,1.064,2.131,2.131,0,0,1-.735.827,2.24,2.24,0,0,1-1.287.341h-4.125a.945.945,0,0,1-.788-.328,1.2,1.2,0,0,1-.263-.775v-2.391h-1.549v2.785a2.79,2.79,0,0,0,.223,1.1,2.984,2.984,0,0,0,.6.92,2.724,2.724,0,0,0,.906.617,2.787,2.787,0,0,0,1.1.224h3.783a4.141,4.141,0,0,0,3.665-2.1,4.314,4.314,0,0,0,.525-2.088,4.428,4.428,0,0,0-.643-2.3Z" transform="translate(-46.231 -36.881)" fill="#fff" />
        <path id="Path_23" data-name="Path 23" d="M198.032,125.477A3.73,3.73,0,0,0,195.4,124.4h-10.35l5.2-6.121-1.313-1.208-6.883,8.066,1.313,1.234H195.51a1.793,1.793,0,0,1,1.786,1.786v1.76a1.586,1.586,0,0,1-.486,1.182,1.622,1.622,0,0,1-1.169.472H179.853a1.838,1.838,0,0,1-1.327-.552,1.8,1.8,0,0,1-.565-1.339V116.414h-1.812v13.293a3.892,3.892,0,0,0,.315,1.549,4.051,4.051,0,0,0,2.154,2.154,3.891,3.891,0,0,0,1.55.315h15.21a3.569,3.569,0,0,0,1.432-.289,3.874,3.874,0,0,0,1.182-.788,3.78,3.78,0,0,0,.815-1.169,3.443,3.443,0,0,0,.3-1.431V128.1a3.73,3.73,0,0,0-1.077-2.627" transform="translate(-52.313 -34.573)" fill="#fff" />
        <path id="Path_24" data-name="Path 24" d="M208.625,114.713a2.015,2.015,0,0,0-.565,1.471v1h1.367v-.762a.662.662,0,0,1,.2-.486.632.632,0,0,1,.46-.2H215.1v-1.6h-4.991a1.978,1.978,0,0,0-1.484.578" transform="translate(-61.79 -33.896)" fill="#fff" />
        <rect id="Rectangle_42" data-name="Rectangle 42" width="1.812" height="15.211" transform="translate(149.528 83.942)" fill="#fff" />
        <path id="Path_25" data-name="Path 25" d="M35.144,59.569V52.2H20.957v7.366H35.144Z" transform="translate(-6.224 -15.503)" fill="#fff" />
        <path id="Path_26" data-name="Path 26" d="M119.592,53.267V45.9h-3.711V40.172h-7.093V45.9H105.4v7.367h14.188Z" transform="translate(-31.303 -11.93)" fill="#fff" />
        <path id="Path_27" data-name="Path 27" d="M154.642,60.9a11.655,11.655,0,0,0-2.536-2.647,10.258,10.258,0,0,0-3.356-1.691l-20.081-6.221L126.5,58.412c-.235.065-.468.136-.7.221a9.594,9.594,0,0,0-2.892,1.691,10.578,10.578,0,0,0-2.183,2.565,9.45,9.45,0,0,0-1.227,3.219l-.873,4.2a7.578,7.578,0,0,0-.136,1.665,1.3,1.3,0,0,0,.409,1.064h-1.565a1.016,1.016,0,0,0-.345-.055H103.46a1.02,1.02,0,0,0-.346.055h-2.056q-1.529,0-1.528-1.746V59.234H91.618V71.511a1.5,1.5,0,0,1-.436,1.064,1.434,1.434,0,0,1-1.091.465h-3a1.377,1.377,0,0,1-1.173-.546,1.64,1.64,0,0,1-.245-1.364l1.855-9.167L79.5,60.652,77.322,71.511a1.7,1.7,0,0,1-.627,1.118,1.845,1.845,0,0,1-1.173.41H73.5a1.54,1.54,0,0,1-.955-.437,1.485,1.485,0,0,1-.518-1.2V60.652h-7.8v10.8a1.571,1.571,0,0,1-.437,1.118,1.435,1.435,0,0,1-1.091.465h-2a1.02,1.02,0,0,0-.346-.055H46.819a1.026,1.026,0,0,0-.346.055H45.237a1.4,1.4,0,0,1-1.091-.491,1.6,1.6,0,0,1-.437-1.091V60.6H35.8V71.566A1.416,1.416,0,0,1,35.36,72.6a1.481,1.481,0,0,1-1.091.437H11.351a3.355,3.355,0,0,1-2.428-.983,3.218,3.218,0,0,1-1.01-2.4V59.015H0V70.147a11.755,11.755,0,0,0,.955,4.72,12.569,12.569,0,0,0,2.592,3.874A12,12,0,0,0,7.395,81.36a11.765,11.765,0,0,0,4.72.955H32.85a10.9,10.9,0,0,0,3.711-.627,8.187,8.187,0,0,0,3.219-2.21,8.373,8.373,0,0,0,3.11,2.183,9.886,9.886,0,0,0,3.6.655H61.443a10.048,10.048,0,0,0,3.574-.627,7.909,7.909,0,0,0,3.083-2.21,7.734,7.734,0,0,0,3.192,2.21,10.8,10.8,0,0,0,3.628.627,8.737,8.737,0,0,0,3.3-.627,8.155,8.155,0,0,0,2.974-2.21,5.862,5.862,0,0,0,1.556,1.365,9.006,9.006,0,0,0,1.909.872,11.483,11.483,0,0,0,2.019.465,13.794,13.794,0,0,0,1.828.136,11.241,11.241,0,0,0,3.765-.655,8.119,8.119,0,0,0,3.274-2.183,7.815,7.815,0,0,0,3.137,2.21,10.663,10.663,0,0,0,3.683.627h30.066a6.474,6.474,0,0,0,3.083-.682,7.749,7.749,0,0,0,3.629-3.683v4.365h9.331a7.134,7.134,0,0,0,3.083-.709,9.8,9.8,0,0,0,2.673-1.855,9.089,9.089,0,0,0,1.882-2.647,7.265,7.265,0,0,0,.71-3.138V67.582a10.9,10.9,0,0,0-.572-3.464,12.771,12.771,0,0,0-1.611-3.219M133.8,73.039H127.25a.858.858,0,0,1-.6-.355,1.208,1.208,0,0,1-.219-.737l.765-4.638a1.063,1.063,0,0,1,.382-.71.961.961,0,0,1,.763-.218h4.475a.935.935,0,0,1,.982.982Zm15.17-.055h-7.585a4.929,4.929,0,0,0,.191-.682,8.792,8.792,0,0,0,.136-1.829V68.237a9.571,9.571,0,0,0-.818-3.956,10.642,10.642,0,0,0-.863-1.557l7.3,2.293a2.324,2.324,0,0,1,1.2.955,2.358,2.358,0,0,1,.437,1.227Z" transform="translate(0 -14.95)" fill="#fff" />
    </g>
</svg>