<svg xmlns="http://www.w3.org/2000/svg"
    xmlns:xlink="http://www.w3.org/1999/xlink" width="84.625" height="41.823" viewBox="0 0 84.625 41.823">
    <defs>
        <clipPath id="clip-path">
            <rect id="Rectangle_10" data-name="Rectangle 10" width="84.625" height="41.823" fill="none"/>
        </clipPath>
    </defs>
    <g id="Group_7" data-name="Group 7" transform="translate(0 0)">
        <rect id="Rectangle_4" data-name="Rectangle 4" width="1.205" height="1.205" transform="translate(11.864 31.092)" fill="#d357ff"/>
        <rect id="Rectangle_5" data-name="Rectangle 5" width="1.191" height="1.205" transform="translate(12.814 29.362)" fill="#d357ff"/>
        <g id="Group_6" data-name="Group 6" transform="translate(0 0)">
            <g id="Group_5" data-name="Group 5" clip-path="url(#clip-path)">
                <path id="Path_2" data-name="Path 2" d="M18.039,80.781V77.237h-.978v3.657H15.828a.935.935,0,0,1-.744-.34.944.944,0,0,1-.22-.794l.355-1.843-.95-.17L13.814,80a1.039,1.039,0,0,1-.39.638,1.179,1.179,0,0,1-.758.255,1.251,1.251,0,0,1-.723-.212,1.731,1.731,0,0,1-.51-.539L10.072,78.13a2.064,2.064,0,0,0-.893-.772A2.157,2.157,0,0,0,8,77.166l-.765.113a2.486,2.486,0,0,0-.844.269,2.618,2.618,0,0,0-.716.553,2.759,2.759,0,0,0-.5.787,2.4,2.4,0,0,0-.191.956v1.191l3.43.808v.581a1.464,1.464,0,0,1-.12.588,1.494,1.494,0,0,1-.333.482,1.647,1.647,0,0,1-.489.326,1.457,1.457,0,0,1-.588.121H4.246a1.738,1.738,0,0,1-.716-.149,1.931,1.931,0,0,1-.581-.4,1.834,1.834,0,0,1-.39-.581,1.807,1.807,0,0,1-.141-.716V78.867H1.439v3.4a2.781,2.781,0,0,0,.22,1.1,2.816,2.816,0,0,0,.6.9,2.949,2.949,0,0,0,.893.61,2.662,2.662,0,0,0,1.092.227H6.9a2.424,2.424,0,0,0,1.779-.745,2.613,2.613,0,0,0,.716-1.807v-.51a1.222,1.222,0,0,0-.277-.794,1.326,1.326,0,0,0-.73-.454l-2.438-.567v-.4a1.527,1.527,0,0,1,.092-.525,1.627,1.627,0,0,1,.255-.461,1.451,1.451,0,0,1,.383-.34,1.157,1.157,0,0,1,.489-.163l.95-.128a1.453,1.453,0,0,1,.716.128,1.232,1.232,0,0,1,.546.468l1.247,1.942a3.3,3.3,0,0,0,.915.992,1.953,1.953,0,0,0,1.1.312,2.1,2.1,0,0,0,.978-.227,1.887,1.887,0,0,0,.738-.709,1.565,1.565,0,0,0,1.474.936h.921a1.207,1.207,0,0,0,1.29-1.276" transform="translate(-0.817 -43.792)" fill="#d357ff"/>
                <rect id="Rectangle_6" data-name="Rectangle 6" width="1.205" height="1.205" transform="translate(13.806 31.092)" fill="#d357ff"/>
                <path id="Path_3" data-name="Path 3" d="M40.644,82.879a1.954,1.954,0,0,1-.375,1.162,1.913,1.913,0,0,1-.985.723l-1.716.567.312.964,1.631-.553a2.937,2.937,0,0,0,.857-.454,3.242,3.242,0,0,0,.666-.68,3.147,3.147,0,0,0,.432-.851,3.023,3.023,0,0,0,.156-.964V78.4h-.979Z" transform="translate(-21.324 -44.5)" fill="#d357ff"/>
                <rect id="Rectangle_7" data-name="Rectangle 7" width="1.205" height="1.205" transform="translate(19.193 31.021)" fill="#d357ff"/>
                <path id="Path_4" data-name="Path 4" d="M63.65,77.439a2.005,2.005,0,0,0-.631-.425,1.926,1.926,0,0,0-.773-.156h-.794a1.84,1.84,0,0,0-.645.113,1.886,1.886,0,0,0-.546.312,1.844,1.844,0,0,0-.411.482,1.751,1.751,0,0,0-.227.61l-.3,1.46a1.063,1.063,0,0,1-.376.638,1.083,1.083,0,0,1-.716.255H56.662V78.843a1.942,1.942,0,0,0-.581-1.4,2.076,2.076,0,0,0-.631-.419,1.932,1.932,0,0,0-.773-.156h-.794a1.832,1.832,0,0,0-.645.113,1.879,1.879,0,0,0-.546.312,1.9,1.9,0,0,0-.411.475,1.688,1.688,0,0,0-.227.6l-.241,1.29a1.747,1.747,0,0,0,.028.829,1.947,1.947,0,0,0,.369.716,1.871,1.871,0,0,0,.624.5,1.781,1.781,0,0,0,.808.184H55.1a2.145,2.145,0,0,0,.305-.021.664.664,0,0,0,.262-.092v.255a1.881,1.881,0,0,1-.376,1.155,2.038,2.038,0,0,1-.985.716l-1.7.567.312.978,1.616-.553a3.114,3.114,0,0,0,1.51-1.1,3,3,0,0,0,.6-1.736v-.17h1.545a1.913,1.913,0,0,0,.893-.22,1.59,1.59,0,0,0,.681-.716,1.523,1.523,0,0,0,1.446.935h1.729a1.206,1.206,0,0,0,1.29-1.276V78.828a1.877,1.877,0,0,0-.156-.766,2.046,2.046,0,0,0-.425-.624m-7.967,3.289H53.543a.773.773,0,0,1-.609-.276.725.725,0,0,1-.17-.645l.212-1.134a.91.91,0,0,1,.312-.525.867.867,0,0,1,.567-.2h.936a.9.9,0,0,1,.893.893Zm7.57,0H61.1a.753.753,0,0,1-.6-.276.737.737,0,0,1-.163-.645l.213-1.148a.934.934,0,0,1,.312-.517.847.847,0,0,1,.567-.205h.921a.879.879,0,0,1,.646.262.861.861,0,0,1,.262.631Z" transform="translate(-29.389 -43.625)" fill="#d357ff"/>
                <path id="Path_5" data-name="Path 5" d="M80.231,65.2a1.089,1.089,0,0,0-.3.794v.539h.737v-.411a.357.357,0,0,1,.106-.262.34.34,0,0,1,.248-.106h2.708v-.865H81.032a1.071,1.071,0,0,0-.8.312" transform="translate(-45.367 -36.833)" fill="#d357ff"/>
                <rect id="Rectangle_8" data-name="Rectangle 8" width="0.978" height="8.208" transform="translate(36.317 30.058)" fill="#d357ff"/>
                <path id="Path_6" data-name="Path 6" d="M110.785,77.439a2.005,2.005,0,0,0-.631-.425,1.926,1.926,0,0,0-.773-.156h-.794a1.84,1.84,0,0,0-.645.113,1.886,1.886,0,0,0-.546.312,1.845,1.845,0,0,0-.411.482,1.751,1.751,0,0,0-.227.61l-.3,1.46a1.063,1.063,0,0,1-.376.638,1.083,1.083,0,0,1-.716.255H99.728V81.89h2.651v.652a1.454,1.454,0,0,1-.121.588,1.5,1.5,0,0,1-.333.482,1.652,1.652,0,0,1-.489.326,1.465,1.465,0,0,1-.588.121H98.353a1.806,1.806,0,0,1-.716-.142,1.755,1.755,0,0,1-.581-.4,2.016,2.016,0,0,1-.4-.588,1.738,1.738,0,0,1-.149-.716V78.984h-.978v3.4a2.705,2.705,0,0,0,.227,1.1,2.878,2.878,0,0,0,1.51,1.509,2.7,2.7,0,0,0,1.1.227h2.439a2.464,2.464,0,0,0,.985-.2,2.639,2.639,0,0,0,.808-.539,2.486,2.486,0,0,0,.745-1.786v-.5a.837.837,0,0,0-.057-.312h2.041a1.914,1.914,0,0,0,.893-.22,1.59,1.59,0,0,0,.681-.716,1.523,1.523,0,0,0,1.446.935h1.729a1.206,1.206,0,0,0,1.29-1.276V78.828a1.877,1.877,0,0,0-.156-.766,2.045,2.045,0,0,0-.425-.624m-.4,3.289h-2.155a.753.753,0,0,1-.6-.276.737.737,0,0,1-.163-.645l.213-1.148a.934.934,0,0,1,.312-.517.847.847,0,0,1,.567-.205h.921a.879.879,0,0,1,.646.262.861.861,0,0,1,.262.631Z" transform="translate(-54.225 -43.625)" fill="#d357ff"/>
                <path id="Path_7" data-name="Path 7" d="M140.447,73.711l-.822.553,1.63,2.906a1.275,1.275,0,0,1,.156.567,1.166,1.166,0,0,1-.113.574,1.147,1.147,0,0,1-.4.447,1.2,1.2,0,0,1-.695.184h-2.225a.51.51,0,0,1-.425-.177.649.649,0,0,1-.142-.419v-1.29h-.836v1.5a1.512,1.512,0,0,0,.12.6,1.613,1.613,0,0,0,.326.5,1.46,1.46,0,0,0,.489.333,1.5,1.5,0,0,0,.6.121h2.041a2.235,2.235,0,0,0,1.977-1.134,2.333,2.333,0,0,0,.284-1.127,2.389,2.389,0,0,0-.348-1.241Z" transform="translate(-77.522 -41.839)" fill="#d357ff"/>
                <path id="Path_8" data-name="Path 8" d="M166.352,71.782a2.018,2.018,0,0,0-1.418-.581h-5.585l2.807-3.3-.709-.652L157.732,71.6l.709.666h6.549a.968.968,0,0,1,.964.964v.95a.855.855,0,0,1-.262.638.874.874,0,0,1-.631.255h-8.52a.993.993,0,0,1-.716-.3.972.972,0,0,1-.3-.723V66.891h-.978v7.173a2.1,2.1,0,0,0,.17.837,2.188,2.188,0,0,0,1.162,1.162,2.107,2.107,0,0,0,.837.17h8.208a1.928,1.928,0,0,0,.773-.156,2.1,2.1,0,0,0,.637-.425,2.041,2.041,0,0,0,.44-.631,1.857,1.857,0,0,0,.163-.772V73.2a1.975,1.975,0,0,0-.156-.779,2,2,0,0,0-.425-.638" transform="translate(-87.72 -37.968)" fill="#d357ff"/>
                <rect id="Rectangle_9" data-name="Rectangle 9" width="0.979" height="8.208" transform="translate(80.687 30.058)" fill="#d357ff"/>
                <path id="Path_9" data-name="Path 9" d="M183.648,64.892a1.071,1.071,0,0,0-.8.312,1.09,1.09,0,0,0-.3.794v.539h.737v-.411a.355.355,0,0,1,.107-.262.34.34,0,0,1,.248-.106h2.707v-.865Z" transform="translate(-103.612 -36.833)" fill="#d357ff"/>
                <path id="Path_10" data-name="Path 10" d="M26.042,14.53V10.556H18.387V14.53h7.655Z" transform="translate(-10.437 -5.991)" fill="#231f20"/>
                <path id="Path_11" data-name="Path 11" d="M100.133,7.067V3.092h-2V0H94.3V3.092H92.478V7.067h7.655Z" transform="translate(-52.491 0)" fill="#231f20"/>
                <path id="Path_12" data-name="Path 12" d="M84.316,16.356a6.888,6.888,0,0,0-.869-1.737,6.309,6.309,0,0,0-1.369-1.428,5.543,5.543,0,0,0-1.81-.913L69.431,8.921l-1.169,4.356c-.127.035-.253.073-.377.119a5.184,5.184,0,0,0-1.561.913,5.723,5.723,0,0,0-1.177,1.384,5.1,5.1,0,0,0-.662,1.737L64.013,19.7a4.08,4.08,0,0,0-.074.9.7.7,0,0,0,.221.574h-.844a.545.545,0,0,0-.186-.029h-7.3a.549.549,0,0,0-.186.029H54.532q-.825,0-.825-.942V13.721H49.438v6.625a.813.813,0,0,1-.236.574.776.776,0,0,1-.589.25H46.994a.744.744,0,0,1-.633-.294.886.886,0,0,1-.132-.736l1-4.947L42.9,14.486l-1.178,5.86a.919.919,0,0,1-.339.6,1,1,0,0,1-.633.221h-1.09a.831.831,0,0,1-.515-.236.8.8,0,0,1-.28-.648v-5.8H34.657v5.83a.849.849,0,0,1-.236.6.774.774,0,0,1-.588.25h-1.08a.547.547,0,0,0-.186-.029h-7.3a.549.549,0,0,0-.186.029H24.41a.753.753,0,0,1-.588-.265.862.862,0,0,1-.236-.589V14.457H19.316v5.918a.766.766,0,0,1-.236.56.8.8,0,0,1-.589.236H6.124a1.811,1.811,0,0,1-1.31-.53,1.737,1.737,0,0,1-.545-1.3V13.6H0v6.006a6.347,6.347,0,0,0,.515,2.547,6.779,6.779,0,0,0,1.4,2.091A6.478,6.478,0,0,0,3.99,25.661a6.349,6.349,0,0,0,2.547.515H17.726a5.868,5.868,0,0,0,2-.339,4.416,4.416,0,0,0,1.737-1.192,4.516,4.516,0,0,0,1.679,1.177,5.329,5.329,0,0,0,1.943.354h8.068a5.411,5.411,0,0,0,1.928-.339,4.27,4.27,0,0,0,1.664-1.192,4.176,4.176,0,0,0,1.723,1.192,5.819,5.819,0,0,0,1.958.339,4.71,4.71,0,0,0,1.781-.339,4.4,4.4,0,0,0,1.6-1.192,3.17,3.17,0,0,0,.839.736,4.9,4.9,0,0,0,1.031.471,6.219,6.219,0,0,0,1.09.25,7.389,7.389,0,0,0,.986.074,6.064,6.064,0,0,0,2.032-.354,4.38,4.38,0,0,0,1.767-1.177,4.216,4.216,0,0,0,1.693,1.192,5.745,5.745,0,0,0,1.988.339H71.463a3.5,3.5,0,0,0,1.663-.368,4.188,4.188,0,0,0,1.958-1.987v2.356H80.12a3.848,3.848,0,0,0,1.663-.383,5.278,5.278,0,0,0,1.443-1,4.91,4.91,0,0,0,1.016-1.428,3.917,3.917,0,0,0,.383-1.693V18.226a5.888,5.888,0,0,0-.309-1.87M72.2,21.17H68.665a.463.463,0,0,1-.324-.192.657.657,0,0,1-.118-.4l.412-2.5a.573.573,0,0,1,.206-.383.519.519,0,0,1,.413-.118h2.414a.5.5,0,0,1,.53.53Zm8.186-.029H76.292a2.761,2.761,0,0,0,.1-.368,4.716,4.716,0,0,0,.074-.986V18.579a5.165,5.165,0,0,0-.441-2.135,5.772,5.772,0,0,0-.466-.84l3.94,1.238a1.249,1.249,0,0,1,.648.515,1.27,1.27,0,0,1,.235.662Z" transform="translate(0 -5.063)" fill="#231f20"/>
            </g>
        </g>
    </g>
</svg>
