<svg xmlns="http://www.w3.org/2000/svg" width="68.46" height="68.446" viewBox="0 0 68.46 68.446">
    <g id="Group_40" data-name="Group 40" transform="translate(-423 -828.074)">
        <path id="Path_113" data-name="Path 113" d="M37.178,0c.232.2.475.4.693.615q5.91,5.9,11.823,11.8a1.887,1.887,0,0,1,.609,1.473c-.027,2.339,0,4.678-.02,7.016a.932.932,0,0,0,.531.943,17.479,17.479,0,0,1,8.493,11.687,3.252,3.252,0,0,1,.086.594.984.984,0,0,1-1.932.323c-.161-.578-.264-1.172-.435-1.746a15.648,15.648,0,1,0,.6,5.658c.064-.76.491-1.2,1.1-1.144s.958.535.892,1.32a17.6,17.6,0,0,1-2.354,7.514c-.133.228-.264.456-.369.637l2.43,2.421c.645-.443,1.2-.175,1.769.407,1.678,1.723,3.373,3.432,5.1,5.1a6.788,6.788,0,0,1,2.256,3.529v1.471c-.045.124-.1.245-.134.372a4.73,4.73,0,0,1-7.934,2.257c-2.093-2.034-4.127-4.128-6.2-6.179a1.156,1.156,0,0,1-.206-1.616l-2.39-2.4a1,1,0,0,0-.1.027c-.995.353-1.251,1.034-1.229,2.087.077,3.652.032,7.307.028,10.961a3.025,3.025,0,0,1-3.323,3.311q-21.823,0-43.646,0A3.039,3.039,0,0,1,.015,65.111q0-24.6,0-49.194a3.643,3.643,0,0,1,.011-.534.952.952,0,0,1,.989-.9.943.943,0,0,1,.992.894,5.291,5.291,0,0,1,.014.734q0,24.363,0,48.726c0,1.357.244,1.605,1.581,1.605H46.78c1.226,0,1.5-.272,1.5-1.475q0-5.247,0-10.494v-.718c-.9.235-1.734.522-2.595.663a23.028,23.028,0,0,1-3.575.386c-7.352.035-14.7.018-22.057.017a3.655,3.655,0,0,1-.4-.007.991.991,0,0,1-.105-1.963,2.837,2.837,0,0,1,.665-.033q6.283,0,12.566,0h.837a18.645,18.645,0,0,1-2.5-1.765,4.02,4.02,0,0,0-3.236-1.112c-2.515.084-5.034.025-7.552.024a4.712,4.712,0,0,1-.667-.022,1,1,0,0,1-.932-1.034.971.971,0,0,1,1.009-.946c1.091-.026,2.183-.013,3.275-.013h4.888a4.786,4.786,0,0,0-.253-.464,17.056,17.056,0,0,1-2.9-6.471c-.086-.4-.234-.549-.656-.541-1.4.026-2.807.01-4.211.008-.513,0-.982-.178-1.077-.7a1.369,1.369,0,0,1,.266-1.01,1.33,1.33,0,0,1,.9-.279c1.422-.028,2.845-.012,4.32-.012V35.57h-3.3c-.423,0-.847.015-1.27-.007a1,1,0,1,1,.066-1.991c1.336-.018,2.673-.006,4.01-.006h.861A18.086,18.086,0,0,1,28,26.38h-.834q-3.442,0-6.884,0a4.052,4.052,0,0,1-.733-.035.83.83,0,0,1-.777-.921,1.853,1.853,0,0,1,.659-.955c.165-.142.511-.1.775-.1,3.008-.006,6.016.009,9.023-.021a1.892,1.892,0,0,0,1-.38c1.094-.78,2.157-1.6,3.3-2.462h-.74q-6.283,0-12.566,0a2.823,2.823,0,0,1-.664-.035.99.99,0,0,1,.113-1.96,2.608,2.608,0,0,1,.267-.007q11.229,0,22.458.008a16.665,16.665,0,0,1,5.242.9c.187.062.376.116.615.19V14.448H47.5q-4.211,0-8.422,0a3.011,3.011,0,0,1-3.239-3.261c0-3.028,0-6.056,0-9.181H3.49c-1.174,0-1.469.291-1.469,1.448,0,2.607.005,5.213,0,7.82,0,.909-.757,1.484-1.425,1.05a1.368,1.368,0,0,1-.553-.963C0,8.532-.021,5.7.033,2.873A3.067,3.067,0,0,1,2.42,0ZM56.191,55.276c.849.831,1.725,1.683,2.595,2.541C59.863,58.881,60.9,59.989,62.021,61a2.661,2.661,0,0,0,3.638-.2,2.7,2.7,0,0,0,.138-3.7c-.65-.731-1.371-1.4-2.062-2.093-1.222-1.227-2.446-2.452-3.637-3.645l-3.908,3.908M37.848,3.6c0,2.526,0,5.035,0,7.543,0,.976.335,1.3,1.338,1.3q3.5.005,7.008,0c.166,0,.333-.017.46-.024L37.848,3.6M57.69,50.673,55.7,48.621l-2.211,2.164,2.055,2.041,2.142-2.153" transform="translate(423 828.074)"/>
        <path id="Path_114" data-name="Path 114" d="M38.476,107.9c0-.689-.015-1.379,0-2.068a2.262,2.262,0,0,1,2.4-2.374q2.034-.022,4.069,0a2.268,2.268,0,0,1,2.424,2.421q.016,2.034,0,4.069a2.267,2.267,0,0,1-2.371,2.409q-2.068.026-4.136,0a2.257,2.257,0,0,1-2.388-2.323c-.025-.711,0-1.423-.006-2.135m6.9,0c0-.622-.019-1.245.007-1.866.018-.442-.167-.586-.589-.581q-1.866.022-3.732,0c-.381,0-.58.11-.576.527.012,1.288.009,2.577,0,3.865,0,.365.15.516.521.513,1.288-.011,2.577-.009,3.865,0,.372,0,.514-.16.506-.525-.015-.644,0-1.288,0-1.932" transform="translate(391.401 743.102)"/>
        <path id="Path_115" data-name="Path 115" d="M47.316,267.252c0,.712.014,1.424,0,2.135a2.225,2.225,0,0,1-2.212,2.289q-2.232.071-4.469,0a2.167,2.167,0,0,1-2.2-2.155c-.057-1.51-.055-3.025,0-4.535a2.2,2.2,0,0,1,2.3-2.2q2.134-.03,4.269,0a2.253,2.253,0,0,1,2.314,2.327c.015.711,0,1.423,0,2.135m-4.385-2.462c-.644,0-1.289.013-1.932-.005-.382-.011-.582.106-.578.523.011,1.288.008,2.577,0,3.865,0,.365.149.519.518.517,1.288-.01,2.577-.008,3.865,0,.366,0,.513-.153.509-.523q-.018-1.932,0-3.865c0-.372-.152-.52-.517-.513-.622.012-1.244,0-1.866,0" transform="translate(391.463 612.229)"/>
        <path id="Path_116" data-name="Path 116" d="M42.817,191.287c-.691,0-1.382.01-2.072,0a2.194,2.194,0,0,1-2.319-2.173c-.054-1.513-.054-3.031,0-4.543a2.161,2.161,0,0,1,2.269-2.145q2.172-.032,4.344,0a2.2,2.2,0,0,1,2.263,2.3q.029,2.138,0,4.277a2.226,2.226,0,0,1-2.283,2.283c-.735.017-1.47,0-2.205,0m-2.389-6.855c0,1.55-.009,3.034.018,4.517,0,.111.253.309.39.312,1.357.023,2.715.026,4.072,0a.56.56,0,0,0,.377-.4q.043-2,0-4.005a.561.561,0,0,0-.365-.406c-1.464-.029-2.93-.018-4.492-.018" transform="translate(391.469 678.244)"/>
        <path id="Path_117" data-name="Path 117" d="M188.076,147.859a13.175,13.175,0,0,1-8.7,12.291,13.042,13.042,0,0,1-14.579-4.1q-.866-1.063-.139-1.7c.5-.44,1.089-.279,1.691.426a10.682,10.682,0,0,0,10.929,3.859,10.543,10.543,0,0,0,8.294-7.672,11.069,11.069,0,1,0-21.557-4.813,11.263,11.263,0,0,0,.3,4.7,2.364,2.364,0,0,1,.125.782.9.9,0,0,1-.858.875.938.938,0,0,1-1.068-.712,12.061,12.061,0,0,1-.612-4.607,13.077,13.077,0,0,1,26.033-.987c.058.553.1,1.108.148,1.662" transform="translate(290.041 717.398)"/>
        <path id="Path_118" data-name="Path 118" d="M201.892,180.482c1.061-1,2.083-1.924,3.069-2.888a3.16,3.16,0,0,1,4.535-.2,3.124,3.124,0,0,1-.06,4.536q-2.482,2.569-4.988,5.115a3.124,3.124,0,0,1-4.726.033q-1.223-1.185-2.438-2.378a3.119,3.119,0,1,1,4.3-4.5l.305.282m6.6-.773a3.847,3.847,0,0,0-.266-.692,1.1,1.1,0,0,0-1.775-.064c-1.191,1.2-2.357,2.423-3.545,3.626a1.061,1.061,0,0,1-1.729.023c-.341-.319-.666-.655-1.01-.971a1.117,1.117,0,0,0-1.656-.066,1.1,1.1,0,0,0,.125,1.651q1.252,1.248,2.532,2.468a1.135,1.135,0,0,0,1.806-.005q2.528-2.566,5.026-5.163a4.16,4.16,0,0,0,.49-.806" transform="translate(261.849 683.071)"/>
    </g>
</svg>
