<svg xmlns="http://www.w3.org/2000/svg" width="14.226" height="11.901" viewBox="0 0 14.226 11.901">
    <g id="Group_49" data-name="Group 49" transform="translate(0)">
        <path id="Path_86" data-name="Path 86" d="M-4808.455-1895.3l-2.132,6.111a1.537,1.537,0,0,1-1.488,1.06q-4.788,0-9.571,0a1.057,1.057,0,0,1-.722-.234.961.961,0,0,1-.308-.774q-.007-4.286,0-8.571a.948.948,0,0,1,.953-.954c.14,0,.279,0,.417,0a.46.46,0,0,0,.438-.3c.03-.077.056-.156.084-.235a1.227,1.227,0,0,1,1.168-.824c.487,0,.973-.007,1.459,0a1.566,1.566,0,0,1,1.264.645c.09.117.175.239.263.358a.841.841,0,0,0,.713.359h4.223a.963.963,0,0,1,1.046,1.046v1.263c.058,0,.106.006.155.006h.958a.947.947,0,0,1,1.083.741Zm-8.385,6.4h4.751a.762.762,0,0,0,.775-.55l1.723-4.921c.114-.327.232-.653.343-.982.049-.15.006-.206-.15-.217-.027,0-.055,0-.084,0h-9.556a.774.774,0,0,0-.757.541q-.957,2.729-1.912,5.457c-.054.153-.11.3-.159.459s-.005.208.15.214c.041,0,.083,0,.126,0Zm5.414-7.442v-1.241c0-.262-.038-.3-.293-.3q-2.1,0-4.2,0a1.6,1.6,0,0,1-1.346-.679c-.089-.119-.17-.243-.263-.358a.8.8,0,0,0-.646-.324c-.477,0-.954,0-1.43,0a.46.46,0,0,0-.466.324c-.025.069-.046.14-.073.209a1.212,1.212,0,0,1-1.027.82,3.787,3.787,0,0,1-.486.009c-.2,0-.253.051-.253.254v6.1c0,.037,0,.074.01.151.026-.069.038-.1.048-.129q.654-1.864,1.306-3.729a1.551,1.551,0,0,1,1.557-1.1h7.559Z" transform="translate(4822.68 1900.029)" fill="#c95dff" />
    </g>
</svg>