<svg xmlns="http://www.w3.org/2000/svg" width="13.077" height="13.081" viewBox="0 0 13.077 13.081">
  <g id="Group_48" data-name="Group 48" transform="translate(0 0)">
    <g id="Group_29" data-name="Group 29" transform="translate(0 0)">
      <path id="Path_84" data-name="Path 84" d="M-5350.2-2136.846v.767c-.007.045-.017.09-.023.135-.041.281-.064.567-.124.844a6.347,6.347,0,0,1-2.428,3.826,6.341,6.341,0,0,1-5.336,1.2,6.315,6.315,0,0,1-3.81-2.41,6.363,6.363,0,0,1-1.322-4.631,6.315,6.315,0,0,1,1.595-3.656,6.421,6.421,0,0,1,3.783-2.128c.246-.044.5-.068.743-.1h.767a.708.708,0,0,0,.1.021,6.225,6.225,0,0,1,2.853.9,6.452,6.452,0,0,1,3.1,4.494C-5350.256-2137.343-5350.233-2137.093-5350.2-2136.846Zm-6.534-5.14a5.53,5.53,0,0,0-5.529,5.516,5.53,5.53,0,0,0,5.513,5.531,5.529,5.529,0,0,0,5.535-5.522A5.527,5.527,0,0,0-5356.735-2141.986Z" transform="translate(5363.278 2143.002)" fill="#c95dff" />
      <path id="Path_85" data-name="Path 85" d="M-5174.85-2046.156c0-.489,0-.979,0-1.468a.508.508,0,0,1,.683-.509.521.521,0,0,1,.333.535c0,.856,0,1.711,0,2.567a.27.27,0,0,0,.123.252q.842.621,1.676,1.255a.5.5,0,0,1,.121.729.505.505,0,0,1-.727.08c-.468-.347-.934-.7-1.4-1.048-.185-.138-.366-.28-.553-.413a.583.583,0,0,1-.257-.512C-5174.848-2045.177-5174.85-2045.666-5174.85-2046.156Z" transform="translate(5180.879 2051.201)" fill="#c95dff" />
    </g>
  </g>
</svg>

