<svg xmlns="http://www.w3.org/2000/svg" width="13.078" height="13.076" viewBox="0 0 13.078 13.076">
    <g id="Group_50" data-name="Group 50" transform="translate(0)">
        <path id="Path_87" data-name="Path 87" d="M-4889.846-2286.765v-.766a.719.719,0,0,0,.021-.111,6,6,0,0,1,.594-2.267,6.454,6.454,0,0,1,4.973-3.7c.187-.031.377-.049.566-.073h.766a.675.675,0,0,0,.1.021,6.052,6.052,0,0,1,2.576.743,6.42,6.42,0,0,1,3.471,5.5,5.976,5.976,0,0,1-.76,3.339,6.416,6.416,0,0,1-5.532,3.461,5.979,5.979,0,0,1-3.006-.611,6.444,6.444,0,0,1-3.664-4.78C-4889.792-2286.259-4889.812-2286.513-4889.846-2286.765Zm6.534,5.06a5.441,5.441,0,0,0,5.447-5.433,5.445,5.445,0,0,0-5.44-5.453,5.446,5.446,0,0,0-5.446,5.434A5.443,5.443,0,0,0-4883.312-2281.7Z" transform="translate(4889.846 2293.686)" fill="#c95dff" />
        <path id="Path_88" data-name="Path 88" d="M-4754.358-2185.989c0-.63,0-1.26,0-1.89a.358.358,0,0,1,.182-.364.359.359,0,0,1,.4.07q1.3.947,2.6,1.892a.335.335,0,0,1,0,.6q-1.305.949-2.611,1.9a.353.353,0,0,1-.393.06.352.352,0,0,1-.178-.353C-4754.356-2184.712-4754.358-2185.351-4754.358-2185.989Z" transform="translate(4759.821 2192.527)" fill="#c95dff" />
    </g>
</svg>