<svg id="Group_897" data-name="Group 897" xmlns="http://www.w3.org/2000/svg"
    xmlns:xlink="http://www.w3.org/1999/xlink" width="18.359" height="19" viewBox="0 0 18.359 19">
    <defs>
        <clipPath id="clip-path">
            <rect id="Rectangle_898" data-name="Rectangle 898" width="18.359" height="19"
                fill="#c95dff" />
        </clipPath>
    </defs>
    <g id="Group_652" data-name="Group 652" clip-path="url(#clip-path)">
        <path id="Path_457" data-name="Path 457"
            d="M8.184,0c.389.061.785.1,1.167.189a7.437,7.437,0,0,1,5.216,4.14,7.463,7.463,0,0,1-.59,7.727c-.06.093-.134.178-.2.267l-.214.281c.045.048.088.1.133.144L18,17.228a1.018,1.018,0,0,1,.2,1.3.993.993,0,0,1-1.483.243,2.639,2.639,0,0,1-.2-.193q-2.155-2.239-4.309-4.481a.826.826,0,0,1-.089-.121c-.491.258-.929.529-1.4.728a7.4,7.4,0,0,1-6.267-.084,7.435,7.435,0,0,1-4.19-5,7.315,7.315,0,0,1,.811-5.822A7.554,7.554,0,0,1,6.1.168C6.458.088,6.822.055,7.182,0Zm-.5,2a5.669,5.669,0,1,0,5.67,5.66A5.68,5.68,0,0,0,7.681,2"
            transform="translate(0 0)" fill="#c95dff" />
    </g>
</svg>