<svg className="absolute left-48 bottom-8" id="Group_604" data-name="Group 604"
    xmlns="http://www.w3.org/2000/svg"
    xmlnsXlink="http://www.w3.org/1999/xlink" width="491.424" height="370.385" viewBox="0 0 491.424 370.385">
    <defs>
        <clipPath id="clip-path">
            <rect id="Rectangle_859" data-name="Rectangle 859" width="491.424" height="370.385" fill="none" />
        </clipPath>
        <clipPath id="clip-path-2">
            <rect id="Rectangle_858" data-name="Rectangle 858" width="491.423" height="370.384" fill="none" />
        </clipPath>
        <clipPath id="clip-path-3">
            <rect id="Rectangle_857" data-name="Rectangle 857" width="24.478" height="30.268" fill="none" />
        </clipPath>
    </defs>
    <g id="Group_603" data-name="Group 603" clip-path="url(#clip-path)">
        <g id="Group_602" data-name="Group 602" transform="translate(0 0.001)">
            <g id="Group_601" data-name="Group 601" clip-path="url(#clip-path-2)">
                <path id="Path_250" data-name="Path 250" d="M83.595,536.472c-34.209-13.35-51.558-20.34-63.536-35.777C-16.349,453.774-1.763,359.882,52.212,327.24c36.649-22.164,82.029-10.389,105.765-4.231,56.825,14.744,62.733,45.464,96.458,43.152,49.876-3.419,52.889-70.293,105.327-75.916,42.889-4.6,96.144,34.211,114.282,78.674.455,1.114.746,1.9,1.23,3.165,10.184,26.5,25.594,67.084,8.461,109.15-17.592,43.193-58.837,61.65-84.205,73-50.9,22.777-95,19.812-163.72,15.191-33.3-2.239-88.928-8.257-152.214-32.954" transform="translate(0 -229.702)" fill="#fff" />
                <path id="Path_251" data-name="Path 251" d="M1600.47,1290.227v-.462a.462.462,0,0,0-.462-.462.462.462,0,0,1-.462-.461v-.693a.462.462,0,0,0-.461-.462h-5.424a.461.461,0,0,0-.461.462v.693a.462.462,0,0,1-.462.461h-.115a.462.462,0,0,0-.462.462v.462a.462.462,0,0,1-.462.462h-1.154a.461.461,0,0,0-.462.462v1.616a.462.462,0,0,0,.462.462h11.886a.462.462,0,0,0,.462-.462v-1.616a.462.462,0,0,0-.462-.462h-1.5a.462.462,0,0,1-.462-.462" transform="translate(-1260.011 -1020.387)" fill="#3c3c3b" />
                <path id="Path_252" data-name="Path 252" d="M1601.87,1292.812h-11.886a.61.61,0,0,1-.609-.609v-1.616a.61.61,0,0,1,.609-.609h1.154a.315.315,0,0,0,.314-.314v-.461a.61.61,0,0,1,.609-.609h.115a.315.315,0,0,0,.314-.314v-.692a.61.61,0,0,1,.609-.609h5.424a.61.61,0,0,1,.609.609v.692a.315.315,0,0,0,.314.314.61.61,0,0,1,.609.609v.461a.314.314,0,0,0,.314.314h1.5a.61.61,0,0,1,.609.609v1.616a.61.61,0,0,1-.609.609m-11.886-2.539a.314.314,0,0,0-.314.314v1.616a.315.315,0,0,0,.314.314h11.886a.315.315,0,0,0,.314-.314v-1.616a.314.314,0,0,0-.314-.314h-1.5a.61.61,0,0,1-.609-.609v-.461a.315.315,0,0,0-.314-.314.61.61,0,0,1-.609-.609v-.692a.315.315,0,0,0-.314-.314H1593.1a.314.314,0,0,0-.314.314v.692a.61.61,0,0,1-.609.609h-.115a.314.314,0,0,0-.314.314v.461a.61.61,0,0,1-.609.609Z" transform="translate(-1259.448 -1019.825)" fill="#3c3c3b" />
                <path id="Path_253" data-name="Path 253" d="M1565.6,1206.093l-13.533-23.44,3.465-2,13.533,23.44Zm-11.674-22.942,12.172,21.083,1.107-.639-12.172-21.083Z" transform="translate(-1229.881 -935.571)" fill="#3c3c3b" />
                <path id="Path_254" data-name="Path 254" d="M1547.476,1142.7l-2.067-3.194,15.622-10.259,4.4-.455-2.342,3.654-.1.067Zm-.49-2.861.825,1.275,14.448-9.488.93-1.451-1.763.182Z" transform="translate(-1224.61 -894.475)" fill="#3c3c3b" />
                <rect id="Rectangle_815" data-name="Rectangle 815" width="3.548" height="1.143" transform="translate(338.678 234.86) rotate(-26.124)" fill="#3c3c3b" />
                <path id="Path_255" data-name="Path 255" d="M1637.854,1091.243a1.628,1.628,0,0,0-2.093.335l-1.858,2.12a1.628,1.628,0,0,0-.057,2.119l2.069,2.452,4.641-5.3Z" transform="translate(-1294.4 -864.528)" fill="#3c3c3b" />
                <path id="Path_256" data-name="Path 256" d="M1633.506,1096.838l-2.544-3.014a2.274,2.274,0,0,1,.064-2.944l1.858-2.12a2.274,2.274,0,0,1,2.911-.451l3.323,2.125Zm1.113-7.606a1.048,1.048,0,0,0-.782.361l-1.858,2.12a1,1,0,0,0-.049,1.294l1.594,1.889,3.671-4.19-2.082-1.332a.912.912,0,0,0-.494-.142" transform="translate(-1292 -862.126)" fill="#3c3c3b" />
                <path id="Path_257" data-name="Path 257" d="M1659.5,1105.411l-8.339-3.53-4.807,5.4,4.476,7.871a.3.3,0,0,0,.485.051l8.292-9.32a.3.3,0,0,0-.107-.476" transform="translate(-1304.602 -873.151)" fill="#3c3c3b" />
                <path id="Path_258" data-name="Path 258" d="M1648.134,1113.04a.865.865,0,0,1-.1-.005.935.935,0,0,1-.713-.466l-4.7-8.266,5.411-6.082,8.757,3.707a.933.933,0,0,1,.333,1.479l-8.292,9.32a.936.936,0,0,1-.7.313m-3.961-8.575,4.022,7.073,7.674-8.626-7.493-3.172Z" transform="translate(-1301.644 -870.25)" fill="#3c3c3b" />
                <path id="Path_259" data-name="Path 259" d="M1581.5,782.7h-67.367V559.9H1581.5Zm-66.489-.878h65.611V560.782h-65.611Z" transform="translate(-1199.823 -443.678)" fill="#3c3c3b" />
                <rect id="Rectangle_816" data-name="Rectangle 816" width="66.489" height="0.878" transform="translate(314.746 165.072)" fill="#3c3c3b" />
                <rect id="Rectangle_817" data-name="Rectangle 817" width="66.489" height="0.878" transform="translate(314.746 220.947)" fill="#3c3c3b" />
                <rect id="Rectangle_818" data-name="Rectangle 818" width="66.489" height="0.878" transform="translate(314.746 272.305)" fill="#3c3c3b" />
                <path id="Path_260" data-name="Path 260" d="M904.973,983.1l41.786,16.5a18.517,18.517,0,0,1,10.081,9.852,40.458,40.458,0,0,0,2.381,4.65c3.871,6.418,13.9,25.975,17.459,61.1a21.779,21.779,0,0,1-.263,6.655,25.266,25.266,0,0,1-4.873,9.95c-6.434,7.8-18.265,8.856-25.552,9.5-9.776.87-11.69-1.164-23.5.415-4.565.61-7.51,1.48-11.963,2.051a121.322,121.322,0,0,1-27.738-.181c-46.893-5.566-74.5-8.842-77.641-21.8-.842-3.47.073-7.816,1.758-15.909,0,0,1.771-8.506,5.594-11.519.016-.013.188-.148.419-.336.248-.2,1.119-.908,1.9-1.681a21.589,21.589,0,0,0,2.234-2.6s.365-.582.778-1.143c4.339-5.9,17.544-24.633,23.933-42.269a18.574,18.574,0,0,1,11.927-11.595l39.877-12.118a17.283,17.283,0,0,1,11.4.468" transform="translate(-637.766 -778.062)" fill="#18eaff" />
                <path id="Path_261" data-name="Path 261" d="M897.254,1103.894a131.915,131.915,0,0,1-15.319-.9c-46.55-5.525-74.647-8.86-77.828-21.965-.849-3.5.065-7.887,1.725-15.857l.031-.149c.073-.35,1.832-8.619,5.673-11.647.051-.04.21-.165.416-.333.292-.239,1.129-.92,1.882-1.667a21.4,21.4,0,0,0,2.211-2.569s.368-.585.779-1.144c3.982-5.417,17.476-24.472,23.9-42.214a18.894,18.894,0,0,1,12.07-11.73l39.877-12.118a17.609,17.609,0,0,1,11.547.473l41.786,16.5a18.621,18.621,0,0,1,10.2,9.968,40.154,40.154,0,0,0,2.368,4.625c4.081,6.766,13.956,26.273,17.49,61.187a21.918,21.918,0,0,1-.266,6.72,25.731,25.731,0,0,1-4.919,10.047c-6.493,7.874-18.518,8.944-25.7,9.584a57.2,57.2,0,0,1-9.984.011,58.524,58.524,0,0,0-13.5.4c-2.242.3-4.115.667-5.926,1.022-1.854.363-3.771.739-6.038,1.03a100.14,100.14,0,0,1-12.474.715m.506-122.6a17.054,17.054,0,0,0-4.958.733l-39.877,12.118A18.456,18.456,0,0,0,841.14,1005.6c-6.447,17.8-19.971,36.895-23.962,42.324-.4.548-.766,1.125-.769,1.13a21.749,21.749,0,0,1-2.265,2.634c-.769.763-1.617,1.454-1.9,1.681-.226.185-.388.313-.43.345-3.726,2.937-5.507,11.314-5.525,11.4l-.031.149c-1.647,7.907-2.554,12.263-1.729,15.663,3.109,12.808,31.093,16.13,77.453,21.632a120.523,120.523,0,0,0,27.685.181c2.253-.289,4.078-.646,6.01-1.025,1.818-.356,3.7-.725,5.952-1.026a58.952,58.952,0,0,1,13.593-.406,56.864,56.864,0,0,0,9.915-.01c7.116-.634,19.026-1.694,25.4-9.426A25.25,25.25,0,0,0,975.37,1081a21.489,21.489,0,0,0,.26-6.589c-3.525-34.826-13.363-54.263-17.429-61a40.5,40.5,0,0,1-2.394-4.675,18.187,18.187,0,0,0-9.96-9.736l-41.786-16.5a17.165,17.165,0,0,0-6.3-1.2" transform="translate(-636.933 -777.247)" fill="#3c3c3b" />
                <path id="Path_262" data-name="Path 262" d="M897.128,1103.8a131.944,131.944,0,0,1-15.323-.9c-46.564-5.526-74.67-8.863-77.857-21.99-.85-3.5.064-7.9,1.725-15.871l.031-.149c.073-.35,1.835-8.631,5.685-11.666.05-.04.21-.165.415-.333.292-.238,1.128-.918,1.88-1.665a21.314,21.314,0,0,0,2.208-2.565c.005-.01.365-.582.779-1.145,3.982-5.416,17.474-24.468,23.9-42.2a18.927,18.927,0,0,1,12.092-11.75l39.877-12.118a17.642,17.642,0,0,1,11.568.474l41.787,16.5a18.654,18.654,0,0,1,10.219,9.985,40.044,40.044,0,0,0,2.367,4.621c4.082,6.768,13.959,26.28,17.494,61.2a21.945,21.945,0,0,1-.267,6.73,25.765,25.765,0,0,1-4.926,10.062c-6.5,7.884-18.535,8.956-25.724,9.6a57.337,57.337,0,0,1-9.989.01,58.617,58.617,0,0,0-13.5.4c-2.24.3-4.113.667-5.924,1.022-1.854.363-3.772.739-6.04,1.03a100.111,100.111,0,0,1-12.478.715m.505-122.6a17.023,17.023,0,0,0-4.948.732l-39.877,12.118a18.422,18.422,0,0,0-11.763,11.439c-6.448,17.8-19.974,36.9-23.967,42.333-.4.547-.764,1.122-.768,1.128a21.843,21.843,0,0,1-2.27,2.64c-.77.764-1.619,1.456-1.9,1.683-.226.185-.389.313-.43.345-3.717,2.929-5.495,11.3-5.512,11.38l-.031.149c-1.646,7.9-2.552,12.255-1.729,15.649,3.1,12.786,31.079,16.107,77.425,21.607a120.557,120.557,0,0,0,27.677.181c2.252-.289,4.076-.646,6.008-1.025,1.818-.356,3.7-.725,5.954-1.026a58.936,58.936,0,0,1,13.6-.407,56.775,56.775,0,0,0,9.909-.01c7.111-.633,19.012-1.693,25.38-9.414a25.222,25.222,0,0,0,4.82-9.839,21.479,21.479,0,0,0,.259-6.58c-3.525-34.819-13.359-54.252-17.425-60.99a40.556,40.556,0,0,1-2.4-4.679,18.152,18.152,0,0,0-9.942-9.718l-41.786-16.5a17.137,17.137,0,0,0-6.288-1.193" transform="translate(-636.807 -777.122)" fill="#3c3c3b" />
                <path id="Path_263" data-name="Path 263" d="M1116.307,1075.2c-3.556-35.121-13.589-54.677-17.459-61.1a40.458,40.458,0,0,1-2.381-4.65,18.515,18.515,0,0,0-10.081-9.852L1044.6,983.1a17.283,17.283,0,0,0-11.4-.468L993.32,994.75a18.325,18.325,0,0,0-7.261,4.316,18.668,18.668,0,0,0-2.957,3.816,18.9,18.9,0,0,0-1.566,3.412c-.232.676-.391,1.265-.5,1.714a16.345,16.345,0,0,1,9.858-7.96l39.877-12.117a17.284,17.284,0,0,1,11.4.467l41.786,16.5a18.516,18.516,0,0,1,10.081,9.852,40.481,40.481,0,0,0,2.381,4.65c3.871,6.418,13.9,25.975,17.459,61.1a21.794,21.794,0,0,1-.263,6.655,18.6,18.6,0,0,1-.545,1.949,25.276,25.276,0,0,0,2.969-7.248,21.791,21.791,0,0,0,.263-6.655" transform="translate(-777.392 -778.062)" fill="#10d7eb" />
                <path id="Path_264" data-name="Path 264" d="M823.746,662.011l-40.881-3.164,3.3-47.17,34.271-3.164q1.652,26.749,3.3,53.5" transform="translate(-620.356 -482.197)" fill="#093f63" />
                <path id="Path_265" data-name="Path 265" d="M823.241,661.493l-.193-.015L782,658.3l3.326-47.479,34.587-3.193.011.173Zm-40.882-3.5,40.522,3.137L819.6,608l-33.956,3.135Z" transform="translate(-619.671 -481.497)" fill="#1d1d1b" />
                <rect id="Rectangle_819" data-name="Rectangle 819" width="12.611" height="38.757" transform="translate(315.63 126.754)" fill="#ff6440" />
                <path id="Path_266" data-name="Path 266" d="M1531.879,648.144h-13.49V608.509h13.49Zm-12.611-.878H1531V609.387h-11.733Z" transform="translate(-1203.198 -482.194)" fill="#1d1d1b" />
                <rect id="Rectangle_820" data-name="Rectangle 820" width="12.611" height="38.757" transform="translate(315.63 126.754)" fill="#c95dff" />
                <path id="Path_267" data-name="Path 267" d="M1531.879,648.144h-13.49V608.509h13.49Zm-12.611-.878H1531V609.387h-11.733Z" transform="translate(-1203.198 -482.194)" fill="#1d1d1b" />
                <rect id="Rectangle_821" data-name="Rectangle 821" width="12.611" height="32.409" transform="translate(328.659 133.102)" fill="#158b8f" />
                <path id="Path_268" data-name="Path 268" d="M1594.646,672.377h-13.49V639.09h13.49Zm-12.611-.878h11.733v-31.53h-11.733Z" transform="translate(-1252.936 -506.427)" fill="#1d1d1b" />
                <rect id="Rectangle_822" data-name="Rectangle 822" width="12.611" height="32.409" transform="translate(328.659 133.102)" fill="#18eaff" />
                <path id="Path_269" data-name="Path 269" d="M1594.646,672.377h-13.49V639.09h13.49Zm-12.611-.878h11.733v-31.53h-11.733Z" transform="translate(-1252.936 -506.427)" fill="#1d1d1b" />
                <rect id="Rectangle_823" data-name="Rectangle 823" width="10.514" height="44.277" transform="translate(341.688 121.234)" fill="#f4a804" />
                <path id="Path_270" data-name="Path 270" d="M1655.314,627.072h-11.393V581.917h11.393Zm-10.514-.878h9.636V582.8H1644.8Z" transform="translate(-1302.672 -461.122)" fill="#3c3c3b" />
                <rect id="Rectangle_824" data-name="Rectangle 824" width="10.514" height="44.277" transform="translate(341.688 121.234)" fill="#c95dff" />
                <path id="Path_271" data-name="Path 271" d="M1655.314,627.072h-11.393V581.917h11.393Zm-10.514-.878h9.636V582.8H1644.8Z" transform="translate(-1302.672 -461.122)" fill="#3c3c3b" />
                <path id="Path_272" data-name="Path 272" d="M1649.337,961.85h-43.21a4.568,4.568,0,0,1-4.363-4.8v-1.889a4.569,4.569,0,0,1,4.363-4.8h43.21a12.962,12.962,0,0,0,0,11.482" transform="translate(-1269.267 -753.089)" fill="#fff" />
                <path id="Path_273" data-name="Path 273" d="M1605.48,961.374a4.315,4.315,0,0,1-3.068-1.3,5.169,5.169,0,0,1-1.458-3.665V954.52a5.169,5.169,0,0,1,1.458-3.664,4.316,4.316,0,0,1,3.068-1.3h43.488l-.122.244a12.728,12.728,0,0,0,0,11.332l.122.244H1605.48Zm0-11.483a3.979,3.979,0,0,0-2.83,1.2,4.831,4.831,0,0,0-1.359,3.425v1.89a4.831,4.831,0,0,0,1.359,3.426,3.98,3.98,0,0,0,2.83,1.2h42.946a13.071,13.071,0,0,1,0-11.146H1605.48Z" transform="translate(-1268.625 -752.445)" fill="#3c3c3b" />
                <path id="Path_274" data-name="Path 274" d="M1646.993,960.118h-41.557a6.361,6.361,0,1,1,0-12.711h41.557v1.229h-41.557a5.134,5.134,0,1,0,0,10.254h41.557Z" transform="translate(-1266.922 -750.743)" fill="#3c3c3b" />
                <path id="Path_275" data-name="Path 275" d="M1823.85,961.6a13.531,13.531,0,0,1-1.332-6.247,13.379,13.379,0,0,1,1.332-5.413l.37.177a12.965,12.965,0,0,0-1.292,5.248,13.109,13.109,0,0,0,1.292,6.057Z" transform="translate(-1444.191 -752.75)" fill="#3c3c3b" />
                <rect id="Rectangle_825" data-name="Rectangle 825" width="26.685" height="0.393" transform="translate(340.211 200.064)" fill="#3c3c3b" />
                <rect id="Rectangle_826" data-name="Rectangle 826" width="30.621" height="0.393" transform="translate(343.273 202.282)" fill="#3c3c3b" />
                <rect id="Rectangle_827" data-name="Rectangle 827" width="11.483" height="0.393" transform="translate(338.32 208.761) rotate(-89.85)" fill="#3c3c3b" />
                <rect id="Rectangle_828" data-name="Rectangle 828" width="8.291" height="0.327" transform="translate(341.15 204.998)" fill="#3c3c3b" />
                <rect id="Rectangle_829" data-name="Rectangle 829" width="6.03" height="0.327" transform="translate(358.281 204.998)" fill="#3c3c3b" />
                <path id="Path_276" data-name="Path 276" d="M1601.816,904.159h-43.21a4.568,4.568,0,0,1-4.363-4.8v-1.889a4.569,4.569,0,0,1,4.363-4.8h43.21a12.963,12.963,0,0,0,0,11.482" transform="translate(-1231.61 -707.374)" fill="#fff" />
                <path id="Path_277" data-name="Path 277" d="M1557.959,903.684a4.315,4.315,0,0,1-3.068-1.3,5.169,5.169,0,0,1-1.457-3.665V896.83a5.17,5.17,0,0,1,1.457-3.664,4.316,4.316,0,0,1,3.068-1.3h43.488l-.122.244a12.728,12.728,0,0,0,0,11.331l.122.244h-43.488Zm0-11.483a3.979,3.979,0,0,0-2.83,1.2,4.83,4.83,0,0,0-1.359,3.425v1.89a4.831,4.831,0,0,0,1.359,3.426,3.981,3.981,0,0,0,2.83,1.2h42.946a13.071,13.071,0,0,1,0-11.146h-42.946Z" transform="translate(-1230.968 -706.73)" fill="#3c3c3b" />
                <path id="Path_278" data-name="Path 278" d="M1599.471,902.428h-41.557a6.361,6.361,0,1,1,0-12.712h41.557v1.229h-41.557a5.134,5.134,0,1,0,0,10.254h41.557Z" transform="translate(-1229.265 -705.027)" fill="#3c3c3b" />
                <path id="Path_279" data-name="Path 279" d="M1776.331,903.909a13.52,13.52,0,0,1-1.332-6.247,13.383,13.383,0,0,1,1.332-5.413l.369.177a12.973,12.973,0,0,0-1.292,5.248,13.112,13.112,0,0,0,1.292,6.057Z" transform="translate(-1406.536 -707.035)" fill="#3c3c3b" />
                <rect id="Rectangle_830" data-name="Rectangle 830" width="26.684" height="0.393" transform="translate(330.346 188.088)" fill="#3c3c3b" />
                <rect id="Rectangle_831" data-name="Rectangle 831" width="30.621" height="0.393" transform="translate(333.408 190.306)" fill="#3c3c3b" />
                <rect id="Rectangle_832" data-name="Rectangle 832" width="11.483" height="0.392" transform="translate(328.456 196.785) rotate(-89.85)" fill="#3c3c3b" />
                <rect id="Rectangle_833" data-name="Rectangle 833" width="8.291" height="0.327" transform="translate(331.285 193.023)" fill="#3c3c3b" />
                <rect id="Rectangle_834" data-name="Rectangle 834" width="6.03" height="0.327" transform="translate(348.417 193.023)" fill="#3c3c3b" />
                <path id="Path_280" data-name="Path 280" d="M1619.583,1019.541h-43.21a4.568,4.568,0,0,1-4.363-4.8v-1.889a4.568,4.568,0,0,1,4.363-4.8h43.21a12.961,12.961,0,0,0,0,11.482" transform="translate(-1245.689 -798.804)" fill="#fff" />
                <path id="Path_281" data-name="Path 281" d="M1575.725,1019.066a4.316,4.316,0,0,1-3.068-1.3,5.169,5.169,0,0,1-1.457-3.665v-1.888a5.169,5.169,0,0,1,1.457-3.664,4.316,4.316,0,0,1,3.068-1.3h43.488l-.122.244a12.728,12.728,0,0,0,0,11.332l.122.244h-43.488Zm0-11.483a3.979,3.979,0,0,0-2.83,1.2,4.829,4.829,0,0,0-1.359,3.425v1.89a4.83,4.83,0,0,0,1.359,3.426,3.98,3.98,0,0,0,2.83,1.2h42.946a13.071,13.071,0,0,1,0-11.146h-42.946Z" transform="translate(-1245.046 -798.16)" fill="#3c3c3b" />
                <path id="Path_282" data-name="Path 282" d="M1617.238,1017.81H1575.68a6.361,6.361,0,1,1,0-12.711h41.557v1.229H1575.68a5.134,5.134,0,1,0,0,10.254h41.557Z" transform="translate(-1243.344 -796.458)" fill="#3c3c3b" />
                <path id="Path_283" data-name="Path 283" d="M1794.1,1019.291a13.507,13.507,0,0,1-1.333-6.247,13.365,13.365,0,0,1,1.333-5.413l.368.177a12.955,12.955,0,0,0,0,11.305Z" transform="translate(-1420.614 -798.465)" fill="#3c3c3b" />
                <rect id="Rectangle_835" data-name="Rectangle 835" width="26.684" height="0.393" transform="translate(334.034 212.04)" fill="#3c3c3b" />
                <rect id="Rectangle_836" data-name="Rectangle 836" width="30.622" height="0.393" transform="translate(337.096 214.257)" fill="#3c3c3b" />
                <rect id="Rectangle_837" data-name="Rectangle 837" width="11.483" height="0.392" transform="translate(332.144 220.736) rotate(-89.85)" fill="#3c3c3b" />
                <rect id="Rectangle_838" data-name="Rectangle 838" width="8.291" height="0.327" transform="translate(334.973 216.974)" fill="#3c3c3b" />
                <path id="Path_284" data-name="Path 284" d="M1080.386,1045.7s-8.645,8.212-10.477,11.724a.383.383,0,0,0,.48.533,5.151,5.151,0,0,1,2.509-.4c2.4.251,3.263,2.34,6.235,5.638,1.468,1.629,5.329,6.24,10.929,7.831a15.748,15.748,0,0,0,3.738.585,4.513,4.513,0,0,1-.919-.445,5.819,5.819,0,0,1-1.967-2.448c-1.2-2.773-.088-8.344-1.3-11.555-.761-2.016-2.835-4.4-8.57-6.032q-.33-2.714-.659-5.428" transform="translate(-847.78 -828.635)" fill="#c95dff" />
                <path id="Path_285" data-name="Path 285" d="M1093.317,1070.54c-.093,0-.2,0-.31,0-4.721-.119-9.61-3-14.532-8.575-.738-.835-1.349-1.605-1.887-2.284-1.486-1.875-2.467-3.112-4.24-3.3a4.974,4.974,0,0,0-2.364.366.577.577,0,0,1-.723-.806c1.894-3.53,10.127-11.371,10.476-11.7l.243-.231.686,5.649c4.671,1.35,7.555,3.4,8.574,6.1a11.383,11.383,0,0,1,.352,5.194c-.184,2.066-.374,4.2.933,6.333a8.446,8.446,0,0,0,3.168,2.936l.536.3-.613.017c-.075,0-.177,0-.3,0m-21.424-14.522a4.565,4.565,0,0,1,.489.026c1.913.2,2.93,1.482,4.469,3.423.536.676,1.143,1.442,1.876,2.271,4.852,5.491,9.653,8.338,14.271,8.461a8.548,8.548,0,0,1-2.76-2.738c-1.365-2.225-1.17-4.419-.982-6.539a10.956,10.956,0,0,0-.332-5.045c-.987-2.616-3.833-4.611-8.458-5.929l-.107-.031-.632-5.2c-1.405,1.352-8.48,8.238-10.169,11.386a.231.231,0,0,0,.034.27.234.234,0,0,0,.266.064,5.467,5.467,0,0,1,2.035-.414" transform="translate(-847.247 -827.289)" fill="#3c3c3b" />
                <path id="Path_286" data-name="Path 286" d="M1074.422,811.847s-6.329,39.026,11.339,54.32a8.742,8.742,0,0,0,6.988,1.187,8.862,8.862,0,0,0-.4,2.769,10.264,10.264,0,0,0,3.3,6.988s14.5,4.878,30.72-8.306c0,0,5.8-8.043,0-20.436a16.374,16.374,0,0,1-6.361-6.526,3.313,3.313,0,0,1,.552-.89c.663-.761,1.35-.816,2.282-1.483a6.8,6.8,0,0,0,1.192-1.151c.857-.958,4.333-5.432,2.7-8.8a4.461,4.461,0,0,0-2.384-2.2,4.677,4.677,0,0,0-3.713.352l4.153-12.13s-34.016-30.72-50.365-3.692" transform="translate(-850.518 -634.507)" fill="#fff" />
                <path id="Path_287" data-name="Path 287" d="M1101.987,877.545a27.729,27.729,0,0,1-5.658-.559,4.289,4.289,0,0,1-2.444-1.479,9.906,9.906,0,0,1-2.339-6.015,8.992,8.992,0,0,1,.321-2.537,9.015,9.015,0,0,1-6.844-1.285c-9.181-7.948-11.79-22.343-12.363-33.022a113.186,113.186,0,0,1,.958-21.461l.022-.06c3.841-6.351,8.989-10.042,15.3-10.97,16.255-2.4,35.132,14.454,35.321,14.624l.082.075-4.058,11.853a4.745,4.745,0,0,1,3.481-.183,4.586,4.586,0,0,1,2.477,2.283c1.849,3.811-2.536,8.779-2.724,8.989a6.921,6.921,0,0,1-1.219,1.176,7.3,7.3,0,0,1-1.05.611,3.489,3.489,0,0,0-1.2.846,3.13,3.13,0,0,0-.492.771,16.191,16.191,0,0,0,6.257,6.388l.047.027.023.048c5.776,12.34.043,20.525-.016,20.606l-.031.032c-9.3,7.563-17.983,9.242-23.85,9.243m-9.626-11.065-.089.291a8.69,8.69,0,0,0-.388,2.716,9.572,9.572,0,0,0,2.263,5.808,3.953,3.953,0,0,0,2.252,1.362c4.449.933,16.2,1.963,29.208-8.6.292-.425,5.518-8.348-.005-20.2a16.537,16.537,0,0,1-6.38-6.567l-.038-.071.031-.074a3.486,3.486,0,0,1,.58-.935,3.809,3.809,0,0,1,1.306-.925,7,7,0,0,0,1.005-.584,6.593,6.593,0,0,0,1.164-1.127c.044-.05,4.422-5.007,2.672-8.617a4.314,4.314,0,0,0-2.29-2.113,4.518,4.518,0,0,0-3.576.342l-.38.205,4.257-12.431c-1.38-1.215-19.41-16.759-34.964-14.468-6.2.912-11.258,4.54-15.043,10.783-.2,1.313-5.89,39.263,11.288,54.133a8.646,8.646,0,0,0,6.834,1.151Z" transform="translate(-849.88 -633.875)" fill="#3c3c3b" />
                <path id="Path_288" data-name="Path 288" d="M1171.989,1025.208a.169.169,0,0,1-.06-.326c22.289-8.423,21.524-24.327,21.515-24.486a.168.168,0,0,1,.157-.179.165.165,0,0,1,.179.157c.011.162.8,16.308-21.731,24.824a.164.164,0,0,1-.06.011" transform="translate(-928.571 -792.588)" fill="#3c3c3b" />
                <path id="Path_289" data-name="Path 289" d="M1097.547,980.708c-.413,1.474-.861,2.936-1.315,4.4l-1.39,4.369c-.232.726-.46,1.454-.638,2.19a5.4,5.4,0,0,0-.183,2.2,1.607,1.607,0,0,0,.554.891,2.8,2.8,0,0,0,.979.5,6.9,6.9,0,0,0,2.255.219,6.468,6.468,0,0,1-2.3-.06,2.947,2.947,0,0,1-1.069-.494,1.849,1.849,0,0,1-.672-.994,3.318,3.318,0,0,1-.062-1.186,9.818,9.818,0,0,1,.2-1.147c.172-.753.391-1.489.616-2.221.478-1.456.962-2.9,1.466-4.349s1.015-2.885,1.56-4.315" transform="translate(-866.654 -777.131)" fill="#3c3c3b" />
                <path id="Path_290" data-name="Path 290" d="M1154.842,986.841a2.365,2.365,0,0,0,.784,1.217l.283.216c.1.06.212.112.315.168l.157.082.169.06.336.121a8.667,8.667,0,0,0,2.9.2l.74-.058c.247-.01.492-.073.739-.1l.742-.1c.247-.037.492-.1.739-.137.993-.163,1.971-.411,2.985-.568a18.176,18.176,0,0,1-2.867,1.08c-.247.071-.49.154-.742.2l-.757.153a12.6,12.6,0,0,1-1.538.2,7.326,7.326,0,0,1-3.114-.38,3.489,3.489,0,0,1-1.321-.91,2.176,2.176,0,0,1-.55-1.449" transform="translate(-915.116 -781.991)" fill="#3c3c3b" />
                <path id="Path_291" data-name="Path 291" d="M1078.631,963.559a4.064,4.064,0,0,0,1.094,1.171,5.225,5.225,0,0,0,1.385.689,10.841,10.841,0,0,0,1.543.389c.268.031.538.084.812.125s.552.068.835.131a8.249,8.249,0,0,1-.833.2c-.282.037-.569.055-.857.068a5.316,5.316,0,0,1-1.721-.277,3.77,3.77,0,0,1-1.51-.932,2.509,2.509,0,0,1-.748-1.564" transform="translate(-854.726 -763.542)" fill="#3c3c3b" />
                <path id="Path_292" data-name="Path 292" d="M1131.944,973.64c1.3-.33,2.581-.583,3.885-.793a36.466,36.466,0,0,1,3.93-.418,19.106,19.106,0,0,1,3.947.17,9.611,9.611,0,0,1,1.911.5,5.006,5.006,0,0,1,1.67,1.023,4.939,4.939,0,0,0-1.713-.9,9.416,9.416,0,0,0-1.9-.37,18.746,18.746,0,0,0-3.874.083,35.847,35.847,0,0,0-3.827.659c-1.26.286-2.523.623-3.736,1.016l-.01,0a.506.506,0,0,1-.312-.962l.031-.009" transform="translate(-896.671 -770.547)" fill="#3c3c3b" />
                <path id="Path_293" data-name="Path 293" d="M1066.568,937.19a12.234,12.234,0,0,1,6.343,4.5,12.934,12.934,0,0,1,1.311,2.222,12.806,12.806,0,0,0-1.507-2.063,12.129,12.129,0,0,0-1.872-1.7,11.893,11.893,0,0,0-2.167-1.244,11.692,11.692,0,0,0-2.359-.744.506.506,0,0,1,.2-.992l.05.013" transform="translate(-844.647 -742.628)" fill="#3c3c3b" />
                <path id="Path_294" data-name="Path 294" d="M1100.861,1065.5a7.644,7.644,0,0,0,1.876,2.944,5.234,5.234,0,0,0,3.036,1.362,7,7,0,0,0,3.356-.523,9.768,9.768,0,0,0,2.939-1.938,7.175,7.175,0,0,1-2.719,2.416,6.88,6.88,0,0,1-1.763.62,6.787,6.787,0,0,1-1.884.095,5.6,5.6,0,0,1-1.825-.527,5.039,5.039,0,0,1-1.512-1.136,6.061,6.061,0,0,1-1.5-3.313" transform="translate(-872.342 -844.318)" fill="#3c3c3b" />
                <path id="Path_295" data-name="Path 295" d="M1082.862,735.463c-1.3-.574-3.57,6.777-9.625,8.965-.3.108-5.5,1.907-9.767-.492-.843-.474-9.447-5.5-9.495-5.5l-.046-.009-.022-.006a10.119,10.119,0,0,1-4.138-2.825c-2.2-3.061-.1-8.639,3.1-11.69a1.146,1.146,0,0,0,.108-.1c1.2-1.528,26.179-32.83,41.5-10.007a.522.522,0,0,0,.312.219,19.131,19.131,0,0,1,10.839,7.357c4.555,6.568,5.515,19.6-.577,28.143a21.2,21.2,0,0,1-2.151,2.561c-.591.484-1.195,1.01-1.8,1.582a34.778,34.778,0,0,0-3.722,4.112.943.943,0,0,1-1.2.246c-.029-.016-.058-.032-.087-.05-1.743-1.046-.826-3.61-2.42-5.758-.738-.995-.955-.473-3.164-2.241a24.725,24.725,0,0,1-3.56-3.56c-1.809-2.125-2.714-3.187-3.3-4.665-1.332-3.384,0-5.926-.792-6.278" transform="translate(-831.138 -559.046)" fill="#093f63" />
                <path id="Path_296" data-name="Path 296" d="M1096.005,757.658a1.131,1.131,0,0,1-.54-.138l-.093-.053c-.993-.6-1.181-1.655-1.381-2.778a6.776,6.776,0,0,0-1.089-3.024,2.156,2.156,0,0,0-.959-.774,11.3,11.3,0,0,1-2.175-1.436,24.788,24.788,0,0,1-3.583-3.582c-1.819-2.138-2.732-3.209-3.324-4.713a10.327,10.327,0,0,1-.573-4.861c.054-.712.092-1.226-.13-1.325-.372-.163-1.047.836-1.838,1.987-1.533,2.232-3.849,5.6-7.662,6.983-.223.081-5.523,1.961-9.906-.5-.4-.224-2.565-1.483-4.66-2.7-2.14-1.245-4.558-2.651-4.806-2.786l-.032-.007a10.305,10.305,0,0,1-4.258-2.9c-2.242-3.125-.154-8.785,3.122-11.91l.051-.045a.3.3,0,0,0,.041-.039c.6-.76,14.585-18.374,28.024-18.374.189,0,.376,0,.564.011,5.151.192,9.587,3.007,13.186,8.367a.355.355,0,0,0,.211.148,19.314,19.314,0,0,1,10.939,7.425c4.673,6.737,5.556,19.731-.578,28.336a21.378,21.378,0,0,1-2.168,2.582q-.937.769-1.806,1.587a34.764,34.764,0,0,0-3.7,4.092,1.1,1.1,0,0,1-.873.429m-13.935-23.042a.543.543,0,0,1,.225.049c.441.2.4.778.33,1.659a10.027,10.027,0,0,0,.55,4.711c.571,1.452,1.472,2.509,3.265,4.617a24.573,24.573,0,0,0,3.539,3.539,10.861,10.861,0,0,0,2.118,1.4,2.467,2.467,0,0,1,1.076.874,7.042,7.042,0,0,1,1.15,3.166c.194,1.09.362,2.031,1.223,2.548l.082.047a.77.77,0,0,0,.983-.2,35.1,35.1,0,0,1,3.74-4.131c.584-.55,1.193-1.085,1.811-1.59a21.176,21.176,0,0,0,2.12-2.529c6.051-8.49,5.184-21.306.576-27.949a18.959,18.959,0,0,0-10.739-7.288.684.684,0,0,1-.414-.289c-3.535-5.265-7.881-8.03-12.918-8.218-.184-.006-.37-.01-.554-.01-13.276,0-27.164,17.49-27.756,18.245a.625.625,0,0,1-.087.086l-.037.033c-3.177,3.031-5.223,8.486-3.081,11.47a9.885,9.885,0,0,0,4.057,2.764c.09.014.094.015,4.935,2.83,2.094,1.217,4.258,2.476,4.655,2.7,4.249,2.388,9.409.559,9.627.48,3.711-1.341,5.99-4.66,7.5-6.856.9-1.3,1.479-2.154,2.027-2.154" transform="translate(-830.503 -558.403)" fill="#1d1d1b" />
                <path id="Path_297" data-name="Path 297" d="M1206.669,994.187c.185-.21.441-.485.766-.791a3.736,3.736,0,0,1,.311-.28c.584-.341,5.012,5.218,7.146,9.22,1.874,3.514,5.062,11.6,1.9,26.247a14.157,14.157,0,0,1-.53,1.822.463.463,0,0,1-.863.027c-.832-1.987-2.967-5.652-7.077-4.436a38.006,38.006,0,0,1-9.053,3.56,38.6,38.6,0,0,1-16.316.495c11.706-1.331,21.337-8.533,24.534-18.424a26.252,26.252,0,0,0-.818-17.438" transform="translate(-937.394 -786.951)" fill="#c95dff" />
                <path id="Path_298" data-name="Path 298" d="M1212.538,1030.374a.551.551,0,0,1-.514-.349c-.637-1.587-2.1-4.307-4.756-4.7a4.567,4.567,0,0,0-2.808.526,37.68,37.68,0,0,1-24.567,3.689l-1.092-.2,1.1-.132c11.521-1.381,20.994-8.555,24.133-18.277a26.121,26.121,0,0,0-.815-17.325l-.037-.1.068-.077c.243-.276.505-.546.777-.8a2.762,2.762,0,0,1,.343-.3.328.328,0,0,1,.258-.021c1.068.3,5.194,5.7,7.121,9.308,3.65,6.844,4.24,16.281,1.707,27.292l-.4,1.1a.553.553,0,0,1-.515.369Zm-5.874-5.429a4.48,4.48,0,0,1,.653.047c2.82.417,4.355,3.253,5.019,4.907a.219.219,0,0,0,.409-.009l.39-1.08c2.509-10.911,1.929-20.268-1.682-27.038-2.224-4.17-6.353-9.146-6.935-9.146h0c0,.008-.1.1-.227.221-.267.251-.5.489-.718.731a26.435,26.435,0,0,1,.785,17.455c-3.08,9.536-12.166,16.651-23.32,18.358a37.31,37.31,0,0,0,23.265-3.839,5.068,5.068,0,0,1,2.362-.609" transform="translate(-934.102 -786.309)" fill="#3c3c3b" />
                <path id="Path_299" data-name="Path 299" d="M806.63,1339.643a30.576,30.576,0,0,0-3.861,6.93,31.594,31.594,0,0,0-1.881,15.675l17.093-11.337-5.553-13.888Z" transform="translate(-634.42 -1059.481)" fill="#fff" />
                <path id="Path_300" data-name="Path 300" d="M800.12,1361.675l-.034-.268a31.788,31.788,0,0,1,1.891-15.759,30.815,30.815,0,0,1,3.883-6.968l.026-.035.04-.018,5.958-2.693,5.67,14.178Zm5.984-22.759a30.467,30.467,0,0,0-3.814,6.856,31.41,31.41,0,0,0-1.9,15.322l16.752-11.111-5.436-13.6Z" transform="translate(-633.786 -1058.618)" fill="#3c3c3b" />
                <rect id="Rectangle_839" data-name="Rectangle 839" width="37.576" height="50.334" transform="translate(162.509 126.316)" fill="#fff" />
                <path id="Path_301" data-name="Path 301" d="M819.839,658.245h-38V607.484h38Zm-37.576-.428h37.149V607.912H782.263Z" transform="translate(-619.54 -481.382)" fill="#1d1d1b" />
                <path id="Path_302" data-name="Path 302" d="M919.715,601.678l-13.745-7.489,2.074-3.592,14.59,8.424Z" transform="translate(-717.907 -467.999)" fill="#c95dff" />
                <path id="Path_303" data-name="Path 303" d="M919.02,601.135l-.085-.046-13.867-7.556,2.212-3.83,14.868,8.584Zm-13.577-7.708L918.98,600.8l2.711-2.468-14.312-8.263Z" transform="translate(-717.192 -467.291)" fill="#c95dff" />
                <rect id="Rectangle_840" data-name="Rectangle 840" width="19.08" height="0.428" transform="translate(165.522 133.652)" fill="#1d1d1b" />
                <rect id="Rectangle_841" data-name="Rectangle 841" width="16.403" height="0.428" transform="translate(175.061 140.515)" fill="#1d1d1b" />
                <rect id="Rectangle_842" data-name="Rectangle 842" width="20.293" height="0.428" transform="translate(172.175 145.703)" fill="#1d1d1b" />
                <rect id="Rectangle_843" data-name="Rectangle 843" width="19.289" height="0.428" transform="translate(172.175 151.342)" fill="#1d1d1b" />
                <rect id="Rectangle_844" data-name="Rectangle 844" width="13.724" height="0.428" transform="translate(180.585 161.938)" fill="#1d1d1b" />
                <rect id="Rectangle_845" data-name="Rectangle 845" width="14.227" height="0.428" transform="translate(170.375 167.294)" fill="#1d1d1b" />
                <rect id="Rectangle_846" data-name="Rectangle 846" width="48.601" height="65.659" transform="translate(93.045 149.1)" fill="#fff" />
                <path id="Path_304" data-name="Path 304" d="M496.149,783.247H447.064V717.1h49.085Zm-48.6-.484h48.118V717.589H447.548Z" transform="translate(-354.261 -568.247)" fill="#1d1d1b" />
                <path id="Path_305" data-name="Path 305" d="M536.243,713.534l-20.623.818v-5.486l20.623.818Z" transform="translate(-408.587 -561.719)" fill="#c95dff" />
                <path id="Path_306" data-name="Path 306" d="M514.905,713.917v-5.795l20.92.83v4.135l-.143.006Zm.3-5.486v5.177l20.327-.806v-3.564Z" transform="translate(-408.02 -561.129)" fill="#1d1d1b" />
                <rect id="Rectangle_847" data-name="Rectangle 847" width="35.192" height="0.484" transform="translate(100.424 163.768)" fill="#1d1d1b" />
                <rect id="Rectangle_848" data-name="Rectangle 848" width="35.192" height="0.484" transform="translate(100.424 170.768)" fill="#1d1d1b" />
                <rect id="Rectangle_849" data-name="Rectangle 849" width="16.165" height="0.484" transform="translate(101.181 176.978)" fill="#1d1d1b" />
                <rect id="Rectangle_850" data-name="Rectangle 850" width="34.435" height="0.483" transform="translate(101.181 182.052)" fill="#1d1d1b" />
                <rect id="Rectangle_851" data-name="Rectangle 851" width="25.72" height="0.483" transform="translate(101.937 187.164)" fill="#1d1d1b" />
                <rect id="Rectangle_852" data-name="Rectangle 852" width="20.623" height="0.484" transform="translate(102.694 196.783)" fill="#1d1d1b" />
                <rect id="Rectangle_853" data-name="Rectangle 853" width="13.244" height="0.484" transform="translate(118.019 202.932)" fill="#1d1d1b" />
                <path id="Path_307" data-name="Path 307" d="M1306.8,946.261a.169.169,0,0,1-.133-.272c1.636-2.109,1.666-3.99,1.062-4.484-.474-.388-1.6-.163-2.8.56a.168.168,0,1,1-.174-.288c1.067-.645,2.465-1.122,3.185-.533.837.684.631,2.837-1.009,4.952a.168.168,0,0,1-.133.065" transform="translate(-1033.844 -745.647)" fill="#3c3c3b" />
                <path id="Path_308" data-name="Path 308" d="M1001.174,989.932a1.285,1.285,0,1,1-1.285-1.286,1.285,1.285,0,0,1,1.285,1.286" transform="translate(-791.311 -783.422)" />
                <path id="Path_309" data-name="Path 309" d="M998.96,990.532a1.529,1.529,0,1,1,1.529-1.529,1.531,1.531,0,0,1-1.529,1.529m0-2.572A1.042,1.042,0,1,0,1000,989a1.044,1.044,0,0,0-1.042-1.042" transform="translate(-790.382 -782.492)" />
                <path id="Path_310" data-name="Path 310" d="M1172.563,231.874v0Z" transform="translate(-929.16 -183.742)" fill="#093f63" />
                <path id="Path_311" data-name="Path 311" d="M1168.765,238.932a1,1,0,0,1-.995-.995v-9.86a.995.995,0,1,1,1.989,0v9.86a1,1,0,0,1-.995.995" transform="translate(-925.362 -179.944)" fill="#093f63" />
                <path id="Path_312" data-name="Path 312" d="M1261.742,280.122l-7.238,6.7Z" transform="translate(-994.091 -221.974)" fill="#093f63" />
                <path id="Path_313" data-name="Path 313" d="M1250.708,284.014a.995.995,0,0,1-.676-1.725l7.238-6.7a.995.995,0,0,1,1.352,1.46l-7.238,6.7a.991.991,0,0,1-.675.265" transform="translate(-990.294 -218.176)" fill="#093f63" />
                <path id="Path_314" data-name="Path 314" d="M1297.961,395.631h0Z" transform="translate(-1020.714 -313.506)" fill="#093f63" />
                <path id="Path_315" data-name="Path 315" d="M1294.163,392.828h-9.86a.995.995,0,1,1,0-1.989h9.86a.995.995,0,0,1,0,1.989" transform="translate(-1016.916 -309.708)" fill="#093f63" />
                <path id="Path_316" data-name="Path 316" d="M1261.484,481.779l-6.972-6.972Z" transform="translate(-994.098 -376.246)" fill="#093f63" />
                <path id="Path_317" data-name="Path 317" d="M1257.688,478.977a.992.992,0,0,1-.7-.291l-6.972-6.972a.995.995,0,0,1,1.407-1.407l6.972,6.972a.995.995,0,0,1-.7,1.7" transform="translate(-990.302 -372.449)" fill="#093f63" />
                <path id="Path_318" data-name="Path 318" d="M1169.689,520.322l.18-9.859Z" transform="translate(-926.882 -404.501)" fill="#093f63" />
                <path id="Path_319" data-name="Path 319" d="M1165.894,517.52h-.019a.994.994,0,0,1-.976-1.013l.18-9.859a.994.994,0,0,1,.994-.976h.019a1,1,0,0,1,.976,1.013l-.18,9.859a.994.994,0,0,1-.994.976" transform="translate(-923.087 -400.704)" fill="#093f63" />
                <path id="Path_320" data-name="Path 320" d="M1053.777,482.534l7.359-6.562Z" transform="translate(-835.031 -377.169)" fill="#093f63" />
                <path id="Path_321" data-name="Path 321" d="M1049.98,479.733a.995.995,0,0,1-.663-1.737l7.359-6.562a.994.994,0,1,1,1.324,1.484l-7.359,6.563a.99.99,0,0,1-.662.252" transform="translate(-831.234 -373.373)" fill="#093f63" />
                <path id="Path_322" data-name="Path 322" d="M1009.664,391.254l9.859.18Z" transform="translate(-800.076 -310.037)" fill="#093f63" />
                <path id="Path_323" data-name="Path 323" d="M1015.726,388.632h-.019l-9.859-.18a1,1,0,0,1-.976-1.013,1,1,0,0,1,1.013-.976l9.859.18a.995.995,0,0,1-.018,1.989" transform="translate(-796.278 -306.241)" fill="#093f63" />
                <path id="Path_324" data-name="Path 324" d="M1059.213,279.375l6.844,7.1Z" transform="translate(-839.339 -221.382)" fill="#093f63" />
                <path id="Path_325" data-name="Path 325" d="M1062.26,283.672a.992.992,0,0,1-.716-.3l-6.844-7.1a.995.995,0,0,1,1.432-1.381l6.844,7.1a.995.995,0,0,1-.716,1.685" transform="translate(-835.542 -217.586)" fill="#093f63" />
                <path id="Path_326" data-name="Path 326" d="M1187.771,345.839l8.39-8.13Z" transform="translate(-941.211 -267.607)" fill="#093f63" />
                <path id="Path_327" data-name="Path 327" d="M1185.24,343.972a.663.663,0,0,1-.462-1.139l8.39-8.13a.663.663,0,1,1,.923.952l-8.39,8.131a.66.66,0,0,1-.461.187" transform="translate(-938.68 -265.076)" fill="#093f63" />
                <path id="Path_328" data-name="Path 328" d="M1193.6,395.631h0Z" transform="translate(-945.834 -313.506)" fill="#093f63" />
                <path id="Path_329" data-name="Path 329" d="M1197.332,392.828h-7.525a.995.995,0,1,1,0-1.989h7.525a.995.995,0,1,1,0,1.989" transform="translate(-942.036 -309.708)" fill="#093f63" />
                <path id="Path_330" data-name="Path 330" d="M1167.169,388.374a1.914,1.914,0,1,1-1.914-1.914,1.914,1.914,0,0,1,1.914,1.914" transform="translate(-921.852 -306.238)" fill="#093f63" />
                <path id="Path_331" data-name="Path 331" d="M1164.418,389.669a2.134,2.134,0,1,1,2.134-2.134,2.136,2.136,0,0,1-2.134,2.134m0-3.828a1.695,1.695,0,1,0,1.695,1.694,1.7,1.7,0,0,0-1.695-1.694" transform="translate(-921.014 -305.4)" fill="#093f63" />
                <path id="Path_332" data-name="Path 332" d="M1401.283,1201.526a53.691,53.691,0,0,0-5.367,20.73,54.643,54.643,0,0,0,7.249,29.778c.639.171,5.032,1.269,8.551-1.455a8.811,8.811,0,0,0,2.535-3.18,38.84,38.84,0,0,1-5.844-7.262,41.123,41.123,0,0,1-3.708-7.738,62.511,62.511,0,0,1-3.466-14.4,66.666,66.666,0,0,1,.049-16.47" transform="translate(-1106.094 -952.111)" fill="#10d7eb" />
                <path id="Path_333" data-name="Path 333" d="M1431.119,1244.887a.169.169,0,0,1-.13-.062,49.4,49.4,0,0,1-8.673-15.549,57.929,57.929,0,0,1-2.7-15.8,79.3,79.3,0,0,1,.209-12.613.162.162,0,0,1,.184-.152.169.169,0,0,1,.152.184,78.985,78.985,0,0,0-.209,12.559,57.691,57.691,0,0,0,2.683,15.712,49.064,49.064,0,0,0,8.615,15.443.168.168,0,0,1-.13.275" transform="translate(-1124.804 -951.466)" fill="#3c3c3b" />
                <path id="Path_334" data-name="Path 334" d="M988.327,1161.323a63.36,63.36,0,0,1,2.415,22.749s-1.082,13.782-7.83,25.8a48.646,48.646,0,0,1-2.719,4.459c-1.584,2.143-2.393,2.606-3.187,4.5-.469,1.117-.418,1.506-1.106,3.3a29.5,29.5,0,0,1-1.463,3.224l12.574,1.24c7.74-24.229,9.846-43.295,8.314-49.548a55.544,55.544,0,0,0-2.2-6.835,46.671,46.671,0,0,0-4.8-8.885" transform="translate(-772.161 -920.254)" fill="#10d7eb" />
                <path id="Path_335" data-name="Path 335" d="M920.379,1336.883a22.326,22.326,0,0,1,8.6,2,24.675,24.675,0,0,1,10.906,10.164,45.806,45.806,0,0,1-2.415,4.228,44.954,44.954,0,0,1-3.523,4.752,19.229,19.229,0,0,0-.905-8.093,19.432,19.432,0,0,0-4.427-7.083,24.529,24.529,0,0,0-8.239-5.963" transform="translate(-729.325 -1059.37)" fill="#10d7eb" />
                <path id="Path_336" data-name="Path 336" d="M931.027,1364.488a.2.2,0,0,1-.174-.307,17.4,17.4,0,0,0,2.527-8.441,18.7,18.7,0,0,0-4.056-11.639,21.672,21.672,0,0,0-9.321-7.434.2.2,0,1,1,.156-.374,22.07,22.07,0,0,1,9.493,7.568,19.078,19.078,0,0,1,4.134,11.89,17.8,17.8,0,0,1-2.585,8.638.2.2,0,0,1-.174.1" transform="translate(-728.928 -1058.891)" fill="#3c3c3b" />
                <path id="Path_337" data-name="Path 337" d="M984.285,1218.51a.2.2,0,0,1-.156-.332,62.247,62.247,0,0,0,13.633-31,63.45,63.45,0,0,0-1.986-26.578.2.2,0,0,1,.137-.252.2.2,0,0,1,.252.136,63.859,63.859,0,0,1,2,26.75,62.64,62.64,0,0,1-13.721,31.2.2.2,0,0,1-.156.074" transform="translate(-779.804 -919.478)" fill="#3c3c3b" />
                <path id="Path_338" data-name="Path 338" d="M912.978,1364.684a23.531,23.531,0,0,1,6.158,5,24.056,24.056,0,0,1,5.382,10.967,10.692,10.692,0,0,1,.22,2.127l.017,5.006-4.6-.734-2.922-.295a22.21,22.21,0,0,0,1.249-8.042,23.4,23.4,0,0,0-5.5-14.031" transform="translate(-723.46 -1081.4)" fill="#10d7eb" />
                <path id="Path_339" data-name="Path 339" d="M922.178,1385.694l-4.8-.765-3.125-.315.071-.2a21.96,21.96,0,0,0,1.239-7.981A23.279,23.279,0,0,0,910.1,1362.5l-.59-.708.8.453a23.632,23.632,0,0,1,6.2,5.036,24.283,24.283,0,0,1,5.42,11.044,10.848,10.848,0,0,1,.224,2.161Zm-7.466-1.372,2.71.274,4.418.7-.016-4.808a10.554,10.554,0,0,0-.217-2.094,23.956,23.956,0,0,0-5.343-10.89,23.225,23.225,0,0,0-5.324-4.5,23.457,23.457,0,0,1,4.962,13.413,22.28,22.28,0,0,1-1.188,7.9" transform="translate(-720.714 -1079.111)" fill="#3c3c3b" />
                <path id="Path_340" data-name="Path 340" d="M89.724,1472.013l47.734-27.595,362.876,13.568,25.715,56.882Z" transform="translate(-71.099 -1144.583)" fill="#fff" />
                <path id="Path_341" data-name="Path 341" d="M525.374,1514.045,499.72,1457.3l-362.659-13.561L89.386,1471.3l-.24-.415,47.795-27.629.069,0,363.024,13.574,12.919,28.576,12.857,28.441Z" transform="translate(-70.641 -1143.661)" fill="#3c3c3b" />
                <path id="Path_342" data-name="Path 342" d="M885.187,1397.936c.372-.174.994,1.116,2.541,2.373a11.484,11.484,0,0,0,6.07,2.373s5.116.062,5.746,3.176a2.974,2.974,0,0,1-.785,2.591c-1.6,1.722-5.506,5.94-4.96,5.66.684-.352-4.048.441-4.326-3.516a40.668,40.668,0,0,1-2.373-4.878c-1.3-3.191-2.565-7.473-1.912-7.779" transform="translate(-701.297 -1107.737)" fill="#fff" />
                <path id="Path_343" data-name="Path 343" d="M893.167,1413.641a.184.184,0,0,1-.144-.071.139.139,0,0,1-.033-.069l-.137-.015c-1.068-.112-3.9-.41-4.137-3.493a41.076,41.076,0,0,1-2.364-4.866c-.784-1.928-2.8-7.537-1.827-7.995.307-.142.592.186,1.065.735a12.787,12.787,0,0,0,1.653,1.66,11.234,11.234,0,0,0,5.982,2.337c.2,0,5.244.1,5.892,3.31a3.139,3.139,0,0,1-.827,2.739c-3.047,3.27-4.471,4.893-4.861,5.414a.257.257,0,0,1,.01.04c.018.1-.034.178-.156.241a.259.259,0,0,1-.117.031m-8.5-16.2h0c-.4.187.46,3.786,2,7.563a40.628,40.628,0,0,0,2.363,4.859l.022.072c.2,2.838,2.75,3.106,3.84,3.22.1.011.18.019.248.029.359-.525,1.513-1.851,4.908-5.5a2.8,2.8,0,0,0,.743-2.443c-.595-2.944-5.533-3.04-5.583-3.041a11.578,11.578,0,0,1-6.174-2.41,13.068,13.068,0,0,1-1.7-1.7c-.254-.3-.579-.649-.667-.65" transform="translate(-700.706 -1107.088)" fill="#3c3c3b" />
                <path id="Path_344" data-name="Path 344" d="M849.156,1350.191a17.69,17.69,0,0,1-4.508-1.039,13.327,13.327,0,0,1-6.279-4.417,5.559,5.559,0,0,1-.535-1.028,5.019,5.019,0,0,0-.283-.474,19.791,19.791,0,0,0-4.323-4.958,11.745,11.745,0,0,0-7.383-1.846,11.516,11.516,0,0,1,.594-1.361,11.975,11.975,0,0,1,3.1-3.787,23.385,23.385,0,0,1,9.75,3.3,35.36,35.36,0,0,1,4.087,3.164c3.738,3.132,4.48,4.45,4.878,5.406a13.2,13.2,0,0,1,.823,3.31,16.108,16.108,0,0,1,.076,3.728" transform="translate(-654.413 -1054.932)" fill="#c95dff" />
                <path id="Path_345" data-name="Path 345" d="M848.352,1349.539l-.168-.016a17.9,17.9,0,0,1-4.551-1.048,13.059,13.059,0,0,1-6.359-4.479,3.663,3.663,0,0,1-.416-.761c-.038-.089-.077-.179-.129-.284l0-.008a5.066,5.066,0,0,0-.271-.452,19.9,19.9,0,0,0-4.28-4.914,11.619,11.619,0,0,0-7.276-1.816l-.261.016.093-.244c.178-.468.38-.931.6-1.376a15.546,15.546,0,0,1,2.744-3.872l.057-.059.081.008a23.645,23.645,0,0,1,10.212,3.369,33.754,33.754,0,0,1,3.883,2.992l.223.186c3.751,3.143,4.509,4.472,4.926,5.47a13.318,13.318,0,0,1,.833,3.351,16.281,16.281,0,0,1,.077,3.768Zm-11.373-6.836h0l.047.092c.057.114.1.212.14.308a3.375,3.375,0,0,0,.383.7,12.729,12.729,0,0,0,6.2,4.355,17.527,17.527,0,0,0,4.3,1.012,15.93,15.93,0,0,0-.09-3.52,12.993,12.993,0,0,0-.811-3.268c-.4-.962-1.138-2.247-4.831-5.341l-.223-.187a33,33,0,0,0-3.845-2.964,23.283,23.283,0,0,0-9.986-3.312,15.179,15.179,0,0,0-2.628,3.729c-.179.359-.344.729-.494,1.1a11.817,11.817,0,0,1,7.229,1.89,19.812,19.812,0,0,1,4.367,5c.089.133.173.272.244.4" transform="translate(-653.458 -1054.096)" fill="#3c3c3b" />
                <path id="Path_346" data-name="Path 346" d="M718.275,1514.61l50.48,6.775a2,2,0,0,1,.263,3.978l-43.348,10.586a2.349,2.349,0,0,1-2.742-1.263l-7.132-17.361a2.116,2.116,0,0,1,2.48-2.715" transform="translate(-567.096 -1200.186)" fill="#b2b2b2" />
                <path id="Path_347" data-name="Path 347" d="M724.411,1535.545a2.436,2.436,0,0,1-2.286-1.441l-7.132-17.361a1.994,1.994,0,0,1,.283-2.021,2.544,2.544,0,0,1,2.374-.924l50.48,6.775a2.251,2.251,0,0,1,2.085,2.077,2.2,2.2,0,0,1-1.8,2.231l-43.348,10.586a2.733,2.733,0,0,1-.652.079m-7.129-21.436a2.183,2.183,0,0,0-1.739.818,1.665,1.665,0,0,0-.239,1.687l7.133,17.361a2.194,2.194,0,0,0,2.546,1.163l43.347-10.586a1.845,1.845,0,0,0,1.548-1.886,1.924,1.924,0,0,0-1.793-1.761l-50.48-6.775a2.531,2.531,0,0,0-.324-.022" transform="translate(-566.449 -1199.54)" fill="#3c3c3b" />
                <path id="Path_348" data-name="Path 348" d="M440.567,1319.024l-70.35-11.829a2.036,2.036,0,0,1-1.677-1.709l-9.253-62.361a2.036,2.036,0,0,1,2.209-2.326l70.685,6.8a2.036,2.036,0,0,1,1.823,1.76l8.919,67.387a2.036,2.036,0,0,1-2.356,2.275" transform="translate(-284.687 -983.224)" fill="#b2b2b2" />
                <path id="Path_349" data-name="Path 349" d="M440.27,1318.579a2.255,2.255,0,0,1-.374-.031l-70.35-11.829a2.2,2.2,0,0,1-1.816-1.851l-9.253-62.36a2.205,2.205,0,0,1,2.392-2.519l70.686,6.8a2.2,2.2,0,0,1,1.974,1.905l8.919,67.387a2.205,2.205,0,0,1-2.177,2.495m-.318-.364a1.867,1.867,0,0,0,2.161-2.087l-8.919-67.387a1.86,1.86,0,0,0-1.673-1.614l-70.685-6.8a1.868,1.868,0,0,0-2.027,2.133l9.254,62.36a1.862,1.862,0,0,0,1.538,1.568Z" transform="translate(-284.044 -982.582)" fill="#3c3c3b" />
                <rect id="Rectangle_854" data-name="Rectangle 854" width="0.337" height="75.532" transform="matrix(0.164, -0.986, 0.986, 0.164, 83.863, 320.756)" fill="#3c3c3b" />
                <rect id="Rectangle_855" data-name="Rectangle 855" width="45.525" height="0.337" transform="matrix(0.971, -0.238, 0.238, 0.971, 158.554, 332.738)" fill="#3c3c3b" />
                <path id="Path_350" data-name="Path 350" d="M803.726,1476.934l-4.63,12.142,46.248,1.826,2.637-14.929Z" transform="translate(-633.218 -1169.587)" fill="#fff" />
                <path id="Path_351" data-name="Path 351" d="M844.567,1490.415l-46.629-1.841,4.753-12.467.113,0,44.461-.966Zm-46.148-2.159,45.867,1.81,2.576-14.583-43.937.955Z" transform="translate(-632.3 -1168.927)" fill="#3c3c3b" />
                <path id="Path_352" data-name="Path 352" d="M839.182,1291.617a1.2,1.2,0,0,1,.56-.657,1.224,1.224,0,0,1,1.016-.033l16.767,43.078c.083.334.647,2.639.273,2.78s-1.5-1.977-1.66-2.278l-16.956-42.89" transform="translate(-664.983 -1022.878)" fill="#3c3c3b" />
                <path id="Path_353" data-name="Path 353" d="M800.7,1402.682s-2.461,9.141,15.646,8.087l6.427.072a1.941,1.941,0,0,0,1.7-.966l.046-.079a2.018,2.018,0,0,0-.649-2.709.313.313,0,0,1,.046-.551l1.455-.625a1.249,1.249,0,0,0,.705-.59c.523-1.141-1.812-2.566-3.667-5.671a36.232,36.232,0,0,1-2.256-5.464,18.381,18.381,0,0,0-2.249-4.776,15.37,15.37,0,0,0-1.787-1.958c-.042-.037-.592-.511-.969-.791a4.912,4.912,0,0,0-4.435-.7l-2.9.937a1.4,1.4,0,0,0-.966,1.327v.3a1.427,1.427,0,0,1-.9,1.325l-2.524,1.01a1.959,1.959,0,0,0-1.19,1.416l-.487,2.314-1.493,2.545a2.764,2.764,0,0,0-.32,1.975Z" transform="translate(-633.839 -1098.068)" fill="#fff" />
                <path id="Path_354" data-name="Path 354" d="M812.876,1410.381c-5.864,0-9.832-1.226-11.811-3.657a5.605,5.605,0,0,1-1.184-4.687l-.751-3.528a2.927,2.927,0,0,1,.339-2.1l1.479-2.521.482-2.287a2.122,2.122,0,0,1,1.292-1.537l2.523-1.01a1.252,1.252,0,0,0,.791-1.169v-.3a1.56,1.56,0,0,1,1.083-1.488l2.9-.937a5.082,5.082,0,0,1,4.587.724c.388.288.944.767.981.8a15.3,15.3,0,0,1,1.81,1.982,16.959,16.959,0,0,1,2.119,4.4l.153.418a36.2,36.2,0,0,0,2.242,5.435,21.939,21.939,0,0,0,2.347,3.127c1.008,1.172,1.674,1.946,1.328,2.7a1.381,1.381,0,0,1-.8.676l-1.451.623a.143.143,0,0,0-.087.121.141.141,0,0,0,.066.133,2.185,2.185,0,0,1,.7,2.935l-.046.079a2.148,2.148,0,0,1-1.848,1.05l-6.428-.072q-1.476.086-2.822.086m-1.261-25.136a4.848,4.848,0,0,0-1.495.236l-2.9.937a1.224,1.224,0,0,0-.849,1.167v.3a1.588,1.588,0,0,1-1,1.481l-2.524,1.01a1.786,1.786,0,0,0-1.088,1.294l-.507,2.365-1.494,2.545a2.59,2.59,0,0,0-.3,1.854l.767,3.606-.011.039a5.35,5.35,0,0,0,1.115,4.433c1.519,1.863,5.248,3.975,14.358,3.442l6.44.072h.018a1.778,1.778,0,0,0,1.535-.882l.046-.079a1.849,1.849,0,0,0-.595-2.483.481.481,0,0,1,.071-.847l1.456-.624a1.069,1.069,0,0,0,.618-.506c.257-.559-.353-1.268-1.276-2.341a22.219,22.219,0,0,1-2.381-3.174,36.22,36.22,0,0,1-2.268-5.49l-.154-.421a16.456,16.456,0,0,0-2.073-4.315,15.334,15.334,0,0,0-1.765-1.933c-.035-.031-.586-.505-.957-.781a4.685,4.685,0,0,0-2.788-.91" transform="translate(-633.194 -1097.426)" fill="#3c3c3b" />
                <path id="Path_355" data-name="Path 355" d="M860.779,1434.39a.184.184,0,0,1-.052-.008,20.666,20.666,0,0,1-3.147-1.305c-6.026-3.109-9.274-8.586-10.938-12.633a.168.168,0,0,1,.311-.128c1.643,3.995,4.847,9.4,10.781,12.461a20.29,20.29,0,0,0,3.1,1.284.168.168,0,0,1-.052.329" transform="translate(-670.883 -1125.401)" fill="#3c3c3b" />
                <path id="Path_356" data-name="Path 356" d="M839.894,1454.695a.171.171,0,0,1-.055-.009,42.506,42.506,0,0,1-19.216-13.4.168.168,0,1,1,.262-.212,42.168,42.168,0,0,0,19.063,13.293.168.168,0,0,1-.055.328" transform="translate(-650.247 -1141.884)" fill="#3c3c3b" />
                <path id="Path_357" data-name="Path 357" d="M834.442,1479.817a.174.174,0,0,1-.042-.005,21.431,21.431,0,0,1-11.021-6.926.169.169,0,1,1,.258-.218,21.087,21.087,0,0,0,10.848,6.817.168.168,0,0,1-.042.332" transform="translate(-652.428 -1166.922)" fill="#3c3c3b" />
                <path id="Path_358" data-name="Path 358" d="M912.766,1436.015a.145.145,0,0,1-.03,0,.168.168,0,0,1-.136-.2c.659-3.656,2.962-3.7,3.059-3.7a.168.168,0,0,1,0,.337c-.086,0-2.121.056-2.728,3.422a.169.169,0,0,1-.166.138" transform="translate(-723.158 -1134.836)" fill="#3c3c3b" />
                <path id="Path_359" data-name="Path 359" d="M1055.465,1526.927l12.917-.72,36.455-.461a22.423,22.423,0,0,0,13.184-5.8l12.393,17.8s-8.438,9.1-17.008,7.383c-1.974-.395-3.448-.544-3.987-.7-5.364-1.548-16.187-2.54-39.373-.882l-4.467.687-10.115-17.3" transform="translate(-836.369 -1204.431)" fill="#fff" />
                <path id="Path_360" data-name="Path 360" d="M1114.5,1544.538a11.269,11.269,0,0,1-2.212-.215c-1.034-.207-1.918-.344-2.628-.455-.643-.1-1.107-.172-1.373-.248-6.793-1.961-20.019-2.255-39.314-.876l-4.566.7-.058-.1-10.254-17.543,13.193-.735,36.462-.461a22.257,22.257,0,0,0,13.073-5.758l.142-.129,12.581,18.068-.092.1c-.078.084-7.194,7.648-14.952,7.649m-24.786-2.984c8.4,0,14.647.581,18.667,1.741.245.071.725.146,1.331.24.714.111,1.6.249,2.643.457,7.9,1.578,15.811-6.261,16.757-7.235l-12.205-17.529a22.591,22.591,0,0,1-13.141,5.716l-36.467.462-12.635.7,9.918,16.968,4.353-.67q11.948-.855,20.779-.855" transform="translate(-835.283 -1203.462)" fill="#3c3c3b" />
                <path id="Path_361" data-name="Path 361" d="M1308.783,1569.354a99.615,99.615,0,0,1,13.975.339c7.107.672,10.28,1.74,17.664,2.643,6.247.764,7.629.425,15.957.917,5.184.306,12.564.891,21.557,2.123l-15.844,15.413a102.312,102.312,0,0,0-21.535-3.823c-7.589-.5-10.947.173-19.381-1.187-5.583-.9-7.034-1.668-12.629-2.509a88.147,88.147,0,0,0-16.509-.919l16.744-13" transform="translate(-1023.835 -1243.501)" fill="#fff" />
                <path id="Path_362" data-name="Path 362" d="M1360.163,1590.334l-.094-.027a102.985,102.985,0,0,0-21.5-3.817c-2.753-.182-4.93-.209-7.034-.235a74.138,74.138,0,0,1-12.363-.953c-2.7-.435-4.444-.842-6.133-1.235-1.854-.432-3.6-.839-6.494-1.274a88.179,88.179,0,0,0-16.477-.917l-.524.02,17.2-13.351.053,0a99.86,99.86,0,0,1,14,.34c3.879.367,6.583.85,9.446,1.363,2.392.428,4.867.871,8.222,1.281a79.2,79.2,0,0,0,8.6.6c1.808.053,4.058.119,7.348.313,7.078.418,14.335,1.133,21.57,2.125l.342.047Zm-66.735-8.86a88.674,88.674,0,0,1,13.167.985c2.9.437,4.661.846,6.521,1.279,1.683.392,3.423.8,6.11,1.23a73.92,73.92,0,0,0,12.313.949c2.109.026,4.29.053,7.052.236a103.211,103.211,0,0,1,21.476,3.8l15.526-15.1c-7.113-.966-14.245-1.664-21.2-2.074-3.286-.194-5.532-.26-7.338-.313a79.641,79.641,0,0,1-8.629-.605c-3.365-.411-5.844-.854-8.241-1.284-2.855-.51-5.552-.993-9.418-1.358a99.653,99.653,0,0,0-13.9-.342l-16.29,12.644q1.422-.047,2.85-.047" transform="translate(-1021.858 -1242.858)" fill="#3c3c3b" />
                <path id="Path_363" data-name="Path 363" d="M1308.783,1565.4a99.54,99.54,0,0,1,13.975.339c7.107.672,10.28,1.74,17.664,2.643,6.247.764,7.629.425,15.957.917,5.184.306,12.564.891,21.557,2.123l-15.844,15.413a102.318,102.318,0,0,0-21.535-3.823c-7.589-.5-10.947.173-19.381-1.187-5.583-.9-7.034-1.668-12.629-2.509a88.17,88.17,0,0,0-16.509-.919l16.744-13" transform="translate(-1023.835 -1240.366)" fill="#fff" />
                <path id="Path_364" data-name="Path 364" d="M1360.164,1586.381l-.094-.027a102.942,102.942,0,0,0-21.5-3.817c-2.753-.182-4.93-.209-7.035-.235a74.127,74.127,0,0,1-12.363-.953c-2.7-.435-4.444-.841-6.133-1.235-1.854-.432-3.6-.839-6.495-1.274a88.068,88.068,0,0,0-16.477-.917l-.524.02,17.2-13.35.053,0a100.028,100.028,0,0,1,14,.34c3.879.367,6.583.85,9.446,1.363,2.393.428,4.867.87,8.222,1.281a79.02,79.02,0,0,0,8.594.6c1.809.053,4.06.119,7.353.314,7.077.418,14.334,1.133,21.57,2.124l.342.047Zm-66.741-8.86a88.778,88.778,0,0,1,13.173.986c2.9.437,4.661.846,6.521,1.279,1.683.392,3.423.8,6.11,1.231a73.879,73.879,0,0,0,12.313.949c2.109.026,4.29.053,7.052.236a103.254,103.254,0,0,1,21.476,3.8l15.526-15.1c-7.114-.965-14.245-1.663-21.2-2.074-3.288-.194-5.536-.26-7.342-.314a79.42,79.42,0,0,1-8.625-.6c-3.364-.411-5.843-.855-8.241-1.284-2.855-.511-5.552-.993-9.418-1.359a99.505,99.505,0,0,0-13.9-.341l-16.29,12.643q1.42-.046,2.844-.047" transform="translate(-1021.859 -1239.726)" fill="#3c3c3b" />
                <path id="Path_365" data-name="Path 365" d="M1308.783,1561.444a99.615,99.615,0,0,1,13.975.339c7.107.672,10.28,1.74,17.664,2.643,6.247.764,7.629.425,15.957.917,5.184.306,12.564.891,21.557,2.123l-15.844,15.413a102.32,102.32,0,0,0-21.535-3.823c-7.589-.5-10.947.173-19.381-1.187-5.583-.9-7.034-1.668-12.629-2.509a88.147,88.147,0,0,0-16.509-.919l16.744-13" transform="translate(-1023.835 -1237.233)" fill="#fff" />
                <path id="Path_366" data-name="Path 366" d="M1360.164,1582.425l-.094-.027a102.95,102.95,0,0,0-21.5-3.817c-2.754-.182-4.932-.209-7.037-.235a74.178,74.178,0,0,1-12.36-.953c-2.7-.435-4.444-.841-6.133-1.235-1.854-.432-3.6-.839-6.495-1.274a88.037,88.037,0,0,0-16.477-.918l-.524.02,17.2-13.35.053,0a99.972,99.972,0,0,1,14,.34c3.879.367,6.583.85,9.446,1.363,2.393.428,4.867.87,8.222,1.281a78.989,78.989,0,0,0,8.594.6c1.809.053,4.06.12,7.353.314,7.077.418,14.334,1.133,21.57,2.124l.342.047Zm-66.741-8.86a88.8,88.8,0,0,1,13.173.985c2.9.437,4.661.846,6.521,1.279,1.683.392,3.423.8,6.11,1.23a73.913,73.913,0,0,0,12.31.949c2.11.026,4.292.053,7.055.236a103.262,103.262,0,0,1,21.476,3.8l15.526-15.1c-7.114-.965-14.245-1.663-21.2-2.074-3.288-.194-5.536-.26-7.342-.314a79.513,79.513,0,0,1-8.625-.6c-3.364-.411-5.843-.855-8.241-1.284-2.855-.51-5.552-.993-9.418-1.358a99.524,99.524,0,0,0-13.9-.342l-16.29,12.643q1.42-.046,2.844-.046" transform="translate(-1021.859 -1236.591)" fill="#3c3c3b" />
                <path id="Path_367" data-name="Path 367" d="M1306.454,1557.49a99.56,99.56,0,0,1,13.976.339c7.107.672,10.28,1.74,17.664,2.643,6.247.764,7.629.425,15.957.917,5.184.306,12.564.891,21.557,2.123l-15.844,15.413a102.316,102.316,0,0,0-21.535-3.823c-7.589-.5-10.948.173-19.381-1.187-5.583-.9-7.034-1.668-12.629-2.509a88.167,88.167,0,0,0-16.509-.919l16.744-13" transform="translate(-1021.989 -1234.099)" fill="#fff" />
                <path id="Path_368" data-name="Path 368" d="M1357.835,1578.472l-.094-.027a102.962,102.962,0,0,0-21.5-3.817c-2.754-.182-4.932-.209-7.037-.235a74.2,74.2,0,0,1-12.36-.953c-2.7-.435-4.445-.841-6.133-1.235-1.853-.432-3.6-.84-6.493-1.274a88.043,88.043,0,0,0-16.478-.917l-.524.02,17.2-13.35.053,0a100.148,100.148,0,0,1,14,.339c3.879.367,6.582.85,9.444,1.363,2.393.428,4.868.871,8.225,1.281a79.055,79.055,0,0,0,8.594.6c1.808.053,4.059.119,7.352.313,7.067.417,14.324,1.131,21.57,2.124l.342.047Zm-66.741-8.86a88.793,88.793,0,0,1,13.174.986c2.9.437,4.661.846,6.52,1.279,1.683.392,3.424.8,6.111,1.231a73.91,73.91,0,0,0,12.31.949c2.11.026,4.292.053,7.055.236a103.232,103.232,0,0,1,21.476,3.8l15.526-15.1c-7.124-.967-14.255-1.665-21.2-2.074-3.287-.194-5.536-.26-7.342-.314a79.523,79.523,0,0,1-8.625-.6c-3.365-.412-5.845-.855-8.243-1.285-2.855-.51-5.551-.993-9.416-1.358a99.335,99.335,0,0,0-13.9-.341l-16.29,12.643q1.42-.046,2.844-.046" transform="translate(-1020.013 -1233.458)" fill="#3c3c3b" />
                <path id="Path_369" data-name="Path 369" d="M1453.572,1587.625a.168.168,0,0,1-.1-.3l18.568-13.567a.168.168,0,1,1,.2.272l-18.568,13.567a.168.168,0,0,1-.1.032" transform="translate(-1151.703 -1247.045)" fill="#3c3c3b" />
                <path id="Path_370" data-name="Path 370" d="M1453.573,1641.877a.169.169,0,0,1-.168-.168v-2.463a.168.168,0,1,1,.337,0v2.463a.168.168,0,0,1-.168.168" transform="translate(-1151.704 -1298.834)" fill="#3c3c3b" />
                <path id="Path_371" data-name="Path 371" d="M1494.094,1630.874a.168.168,0,0,1-.072-.016c-1.615-.765-14.908-.469-15.042-.467h0a.168.168,0,0,1,0-.337c.55-.012,13.507-.3,15.194.5a.168.168,0,0,1-.072.32" transform="translate(-1171.834 -1291.636)" fill="#3c3c3b" />
                <path id="Path_372" data-name="Path 372" d="M1585.016,1634.79a.166.166,0,0,1-.119-.05c-.488-.492-4.628-1.342-7.292-1.793a.169.169,0,1,1,.056-.333c.69.117,6.755,1.163,7.475,1.888a.169.169,0,0,1-.119.287" transform="translate(-1250.01 -1293.712)" fill="#3c3c3b" />
                <path id="Path_373" data-name="Path 373" d="M1532.65,1601.531a.164.164,0,0,1-.072-.016c-1.615-.764-14.908-.469-15.042-.467h0a.168.168,0,0,1,0-.337c.551-.013,13.506-.3,15.194.5a.169.169,0,0,1-.073.321" transform="translate(-1202.386 -1268.384)" fill="#3c3c3b" />
                <path id="Path_374" data-name="Path 374" d="M1581,1587.351a.164.164,0,0,1-.083-.022c-1.552-.886-14.829-1.609-14.963-1.616a.17.17,0,0,1-.159-.177.178.178,0,0,1,.177-.159c.55.03,13.491.735,15.111,1.66a.168.168,0,0,1-.083.315" transform="translate(-1240.763 -1256.281)" fill="#3c3c3b" />
                <path id="Path_375" data-name="Path 375" d="M1623.573,1605.446a.166.166,0,0,1-.119-.05c-.488-.491-4.628-1.342-7.292-1.793a.169.169,0,0,1,.056-.333c.689.117,6.755,1.163,7.475,1.888a.168.168,0,0,1-.119.287" transform="translate(-1280.564 -1270.459)" fill="#3c3c3b" />
                <path id="Path_376" data-name="Path 376" d="M1515.232,1613.242a.167.167,0,0,1-.094-.028c-.549-.366-5.977-.486-9.487-.474h0a.168.168,0,0,1,0-.337c.9-.009,8.864-.01,9.675.53a.169.169,0,0,1-.093.309" transform="translate(-1192.971 -1277.696)" fill="#3c3c3b" />
                <path id="Path_377" data-name="Path 377" d="M1584.912,1617.525l-.03,0-4.527-.821a.169.169,0,0,1-.136-.2.172.172,0,0,1,.2-.135l4.527.821a.168.168,0,0,1-.03.334" transform="translate(-1252.192 -1280.84)" fill="#3c3c3b" />
                <path id="Path_378" data-name="Path 378" d="M1616.454,1623.49a.169.169,0,0,1-.119-.049,11.958,11.958,0,0,0-3.153-.655.168.168,0,0,1-.147-.187.166.166,0,0,1,.188-.147c.494.06,2.977.377,3.351.751a.168.168,0,0,1-.119.288" transform="translate(-1278.196 -1285.658)" fill="#3c3c3b" />
                <path id="Path_379" data-name="Path 379" d="M1360.239,1583.562a.165.165,0,0,1-.072-.016c-1.615-.765-14.908-.469-15.042-.467a.169.169,0,0,1-.007-.337c.55-.012,13.506-.3,15.194.5a.168.168,0,0,1-.072.32" transform="translate(-1065.764 -1254.146)" fill="#3c3c3b" />
                <path id="Path_380" data-name="Path 380" d="M1412.868,1619.076a.167.167,0,0,1-.119-.05c-.488-.492-4.628-1.342-7.292-1.794a.169.169,0,0,1,.056-.333c.69.117,6.755,1.164,7.475,1.889a.168.168,0,0,1-.119.287" transform="translate(-1113.597 -1281.259)" fill="#3c3c3b" />
                <path id="Path_381" data-name="Path 381" d="M1343.082,1597.526a.168.168,0,0,1-.093-.028c-.549-.366-5.979-.488-9.487-.474h0a.168.168,0,0,1,0-.337c.9-.01,8.864-.01,9.675.53a.168.168,0,0,1-.094.309" transform="translate(-1056.557 -1265.242)" fill="#3c3c3b" />
                <path id="Path_382" data-name="Path 382" d="M1451.057,1570.213l-.03,0-4.527-.821a.169.169,0,0,1-.136-.2.173.173,0,0,1,.2-.135l4.527.821a.168.168,0,0,1-.03.334" transform="translate(-1146.123 -1243.348)" fill="#3c3c3b" />
                <path id="Path_383" data-name="Path 383" d="M1482.6,1576.178a.17.17,0,0,1-.12-.049,11.945,11.945,0,0,0-3.152-.655.168.168,0,0,1-.147-.187.165.165,0,0,1,.187-.147c.494.06,2.977.377,3.351.751a.168.168,0,0,1-.119.288" transform="translate(-1172.127 -1248.168)" fill="#3c3c3b" />
                <path id="Path_384" data-name="Path 384" d="M839.182,1512.323h0Z" transform="translate(-664.983 -1198.392)" fill="#fff" />
                <path id="Path_385" data-name="Path 385" d="M852.735,1511.848h-14.2a.168.168,0,0,1,0-.337h14.2a.168.168,0,0,1,0,.337" transform="translate(-664.34 -1197.749)" fill="#3c3c3b" />
                <path id="Path_386" data-name="Path 386" d="M944.206,1511.907h0Z" transform="translate(-748.206 -1198.063)" fill="#fff" />
                <path id="Path_387" data-name="Path 387" d="M954.544,1511.434H943.563a.168.168,0,1,1,0-.337h10.982a.168.168,0,1,1,0,.337" transform="translate(-747.562 -1197.421)" fill="#3c3c3b" />
                <path id="Path_388" data-name="Path 388" d="M829.232,1519.945h0Z" transform="translate(-657.098 -1204.432)" fill="#fff" />
                <path id="Path_389" data-name="Path 389" d="M862.253,1519.471H828.588a.168.168,0,0,1,0-.337h33.664a.168.168,0,0,1,0,.337" transform="translate(-656.455 -1203.789)" fill="#3c3c3b" />
                <path id="Path_390" data-name="Path 390" d="M825.844,1529.26h0Z" transform="translate(-654.413 -1211.813)" fill="#fff" />
                <path id="Path_391" data-name="Path 391" d="M852.07,1528.785H825.2a.168.168,0,1,1,0-.337H852.07a.168.168,0,0,1,0,.337" transform="translate(-653.77 -1211.17)" fill="#3c3c3b" />
                <path id="Path_392" data-name="Path 392" d="M970.657,1529.26h0Z" transform="translate(-769.166 -1211.813)" fill="#fff" />
                <path id="Path_393" data-name="Path 393" d="M974.321,1528.785h-4.307a.168.168,0,0,1,0-.337h4.307a.168.168,0,0,1,0,.337" transform="translate(-768.523 -1211.17)" fill="#3c3c3b" />
                <path id="Path_394" data-name="Path 394" d="M1100.775,1565.742h-11a.168.168,0,1,1,0-.337h11a.168.168,0,0,1,0,.337" transform="translate(-863.422 -1240.455)" fill="#3c3c3b" />
                <path id="Path_395" data-name="Path 395" d="M1143,1597.034h-6.152a.168.168,0,1,1,0-.337H1143a.168.168,0,1,1,0,.337" transform="translate(-900.723 -1265.252)" fill="#3c3c3b" />
                <path id="Path_396" data-name="Path 396" d="M1263,1564.82h-8.438a.168.168,0,1,1,0-.337H1263a.168.168,0,1,1,0,.337" transform="translate(-994 -1239.724)" fill="#3c3c3b" />
                <path id="Path_397" data-name="Path 397" d="M1169.544,1583.023h-36.085a.168.168,0,1,1,0-.337h36.085a.168.168,0,1,1,0,.337" transform="translate(-898.04 -1254.149)" fill="#3c3c3b" />
                <path id="Path_398" data-name="Path 398" d="M1294.113,1599.353h-5.046a.168.168,0,1,1,0-.337h5.046a.168.168,0,1,1,0,.337" transform="translate(-1021.346 -1267.089)" fill="#3c3c3b" />
                <path id="Path_399" data-name="Path 399" d="M1197.571,1561.962h-11.115a.844.844,0,0,1-.8-.84c-.666-6.529-.992-10.664-.888-11.15a2.635,2.635,0,0,1,.145-.438c.16-.362.426-.72.51-.69.012,0,.027.019.03.074l1,.005,8.385.041a.787.787,0,0,1,.755.6,43.462,43.462,0,0,0,2.539,10.449q.135.364.276.728a3.01,3.01,0,0,1-.168.63.976.976,0,0,1-.295.487.585.585,0,0,1-.376.105" transform="translate(-938.818 -1227.332)" fill="#ededed" />
                <path id="Path_400" data-name="Path 400" d="M1196.964,1561.492h-11.149a1,1,0,0,1-.965-.995c-.318-3.119-1.042-10.463-.885-11.2a2.811,2.811,0,0,1,.155-.471c.041-.092.409-.895.723-.779a.2.2,0,0,1,.088.064l9.27.045h.006a.949.949,0,0,1,.575.2.963.963,0,0,1,.337.523,43.617,43.617,0,0,0,2.534,10.43c.09.243.181.484.275.726l.016.042-.008.045a3.2,3.2,0,0,1-.177.666,1.124,1.124,0,0,1-.352.562.745.745,0,0,1-.442.138m-12.228-13.044a2.45,2.45,0,0,0-.308.516,2.488,2.488,0,0,0-.134.4c-.079.369.115,3.478.891,11.1a.68.68,0,0,0,.63.688h11.123a.4.4,0,0,0,.269-.073c.1-.074.149-.186.237-.412a2.863,2.863,0,0,0,.151-.552q-.133-.343-.26-.687a43.825,43.825,0,0,1-2.549-10.49.622.622,0,0,0-.215-.316.652.652,0,0,0-.372-.131Z" transform="translate(-938.177 -1226.693)" fill="#3c3c3b" />
                <path id="Path_401" data-name="Path 401" d="M1199.209,1560.4h-10.816a.831.831,0,0,1-.779-.828l-.922-11.161a.793.793,0,0,1,.774-.842h9.044a.772.772,0,0,1,.737.59l2.686,11.069a.873.873,0,0,1-.725,1.171" transform="translate(-940.354 -1226.325)" fill="#dadada" />
                <path id="Path_402" data-name="Path 402" d="M1198.566,1559.929H1187.75a.993.993,0,0,1-.947-.982l-.922-11.161a.961.961,0,0,1,.942-1.024h9.044a.943.943,0,0,1,.9.719l2.686,11.069a1.218,1.218,0,0,1-.2,1.036.869.869,0,0,1-.693.343m-11.742-12.83a.625.625,0,0,0-.607.659l.922,11.161a.665.665,0,0,0,.611.673h10.816a.538.538,0,0,0,.428-.215.88.88,0,0,0,.134-.748l-2.686-11.069a.6.6,0,0,0-.574-.462Z" transform="translate(-939.711 -1225.682)" fill="#3c3c3b" />
                <path id="Path_403" data-name="Path 403" d="M525.87,1385.05a5.125,5.125,0,1,1-5.125-5.125,5.125,5.125,0,0,1,5.125,5.125" transform="translate(-408.586 -1093.478)" fill="#fff" />
                <path id="Path_404" data-name="Path 404" d="M519.712,1389.413a5.395,5.395,0,1,1,5.4-5.395,5.4,5.4,0,0,1-5.4,5.395m0-10.249a4.854,4.854,0,1,0,4.855,4.855,4.86,4.86,0,0,0-4.855-4.855" transform="translate(-407.554 -1092.446)" fill="#3c3c3b" />
                <path id="Path_405" data-name="Path 405" d="M1052.783,1482.97s-4.423,5.425,7.777,6.814a1.834,1.834,0,0,0,1.167-.235c.547-.337.977-1.061-.273-2.581a1.946,1.946,0,0,0-1.092-.661,4.526,4.526,0,0,1-3.8-4.128c-.352-3.955-3.78.791-3.78.791" transform="translate(-833.624 -1173.258)" fill="#fff" />
                <path id="Path_406" data-name="Path 406" d="M1060.144,1489.325a2.172,2.172,0,0,1-.255-.015c-4.856-.553-7.716-1.807-8.5-3.729a3.571,3.571,0,0,1,.606-3.355c.216-.3,2.015-2.728,3.2-2.4.5.138.788.693.877,1.7a4.323,4.323,0,0,0,3.667,3.979,2.114,2.114,0,0,1,1.187.718,2.7,2.7,0,0,1,.833,1.993,1.221,1.221,0,0,1-.6.839,1.946,1.946,0,0,1-1.019.274m-5.183-9.194c-.844,0-2.211,1.628-2.694,2.3l-.006.008a3.3,3.3,0,0,0-.558,3.022c.724,1.772,3.567,2.989,8.223,3.519a1.666,1.666,0,0,0,1.06-.212.881.881,0,0,0,.447-.607,2.418,2.418,0,0,0-.761-1.723,1.775,1.775,0,0,0-1-.6,4.709,4.709,0,0,1-3.932-4.278c-.051-.574-.2-1.284-.63-1.4a.565.565,0,0,0-.151-.02" transform="translate(-832.972 -1172.616)" fill="#3c3c3b" />
                <path id="Path_407" data-name="Path 407" d="M1012.514,1460.553q-.5.843-1,1.773c-.528,1-.989,1.973-1.39,2.909a8.44,8.44,0,0,1-.989,1.7c-.714.963-1.575,2.678.915,3.114a13.371,13.371,0,0,0,4.7-4.175,13.106,13.106,0,0,0,1.626-3.252l-2.373-3.648Z" transform="translate(-799.069 -1156.115)" fill="#fff" />
                <path id="Path_408" data-name="Path 408" d="M1009.44,1469.185l-.057-.01c-.921-.161-1.495-.513-1.708-1.046a2.669,2.669,0,0,1,.687-2.334,8.369,8.369,0,0,0,.969-1.663c.423-.987.893-1.97,1.4-2.922.315-.6.652-1.2,1-1.781l.022-.029,1.641-1.738,2.535,3.9-.026.077a13.275,13.275,0,0,1-1.646,3.294,13.58,13.58,0,0,1-4.762,4.228Zm2.568-9.566c-.343.575-.674,1.164-.983,1.75-.5.943-.964,1.918-1.385,2.9a8.664,8.664,0,0,1-1.008,1.73c-.351.474-.9,1.364-.644,2.009.162.407.632.685,1.4.828a13.235,13.235,0,0,0,4.592-4.095,12.937,12.937,0,0,0,1.579-3.133l-2.212-3.4Z" transform="translate(-798.427 -1155.079)" fill="#3c3c3b" />
                <path id="Path_409" data-name="Path 409" d="M1109.658,1411.086l-.34.063c-4.823.9-59.444,10.995-63.861,8.726l-17.165-11.507a4.317,4.317,0,0,0-4.571-.147l-12.419,7.214s-2.35,1.279-.945,3.254a1.191,1.191,0,0,1,.177.943c-.175.81.017,2.782,1.734,2.146a.26.26,0,0,1,.346.282c-.127.832-.185,2.484,1.324,2.555,2.022.1-5.449,4.807-5.8,4.736-.316-.063-.632,2.843,3.714,1.961a5.315,5.315,0,0,0,2.528-1.3c2.106-1.931,7.494-6.3,10.707-3.723,0,0,5.992,8.877,18.736,7.823s73.745-.527,75.239.352c0,0,14.679,3.428,13.36-8.438,0,0-.879-13.536-22.765-14.942" transform="translate(-798.735 -1115.437)" fill="#fff" />
                <path id="Path_410" data-name="Path 410" d="M1122.834,1434.479a21.436,21.436,0,0,1-4.448-.474l-.047-.019c-1.5-.834-61.761-1.436-75.141-.329a21.185,21.185,0,0,1-18.874-7.874c-3.1-2.453-8.352,1.79-10.469,3.73a5.475,5.475,0,0,1-2.609,1.339c-2.384.482-3.38-.15-3.795-.769a1.446,1.446,0,0,1-.175-1.4.247.247,0,0,1,.256-.122c.421-.079,5.132-3.033,5.869-4.179.083-.13.076-.18.076-.183a.349.349,0,0,0-.185-.04,1.473,1.473,0,0,1-1.125-.519,2.95,2.95,0,0,1-.358-2.23.087.087,0,0,0-.033-.083.094.094,0,0,0-.088-.016,1.342,1.342,0,0,1-1.439-.14,2.509,2.509,0,0,1-.518-2.2,1.026,1.026,0,0,0-.15-.81,2.145,2.145,0,0,1-.431-1.762,3.066,3.066,0,0,1,1.433-1.737L1023,1407.45a4.511,4.511,0,0,1,4.75.153l17.165,11.507c3.51,1.8,41.717-4.652,63.737-8.752l.359-.067.021,0c21.782,1.4,22.914,14.963,22.922,15.1.343,3.084-.362,5.431-2.1,6.971-1.9,1.685-4.675,2.117-7.022,2.117m-4.354-.8c.4.09,7.562,1.619,11.153-1.571,1.646-1.462,2.314-3.713,1.983-6.689-.009-.141-1.134-13.4-22.587-14.792l-.319.06c-6.079,1.132-59.523,10.989-63.969,8.711l-17.181-11.517a4.173,4.173,0,0,0-4.393-.142l-12.419,7.214a2.776,2.776,0,0,0-1.27,1.521,1.826,1.826,0,0,0,.378,1.489,1.361,1.361,0,0,1,.2,1.076,2.192,2.192,0,0,0,.409,1.874,1.046,1.046,0,0,0,1.1.079.429.429,0,0,1,.571.465,2.726,2.726,0,0,0,.287,1.967,1.133,1.133,0,0,0,.879.395c.25.012.41.092.477.238.1.223-.07.48-.208.654a24.656,24.656,0,0,1-6.03,4.173,1.185,1.185,0,0,0,.147.952c.278.463,1.1,1.169,3.486.684a5.14,5.14,0,0,0,2.447-1.257c2.185-2,7.622-6.378,10.926-3.73l.034.037c.06.089,6.09,8.782,18.583,7.749,11.572-.958,72.993-.658,75.309.359m-111.014-4.79a.1.1,0,0,0,.032,0,.116.116,0,0,1-.032,0" transform="translate(-798.097 -1114.812)" fill="#3c3c3b" />
                <path id="Path_411" data-name="Path 411" d="M1020.615,1436.8a.168.168,0,0,1-.114-.293,49.695,49.695,0,0,1,8.974-6.483.169.169,0,0,1,.166.294,49.248,49.248,0,0,0-8.913,6.438.168.168,0,0,1-.114.044" transform="translate(-808.62 -1133.158)" fill="#3c3c3b" />
                <path id="Path_412" data-name="Path 412" d="M1028.791,1437.483a.169.169,0,0,1-.124-.282c1.171-1.271,2.4-2.512,3.662-3.687a68.934,68.934,0,0,1,7.733-6.234.168.168,0,0,1,.192.277,68.678,68.678,0,0,0-7.695,6.2c-1.253,1.17-2.479,2.4-3.644,3.669a.167.167,0,0,1-.124.054" transform="translate(-815.099 -1130.978)" fill="#3c3c3b" />
                <path id="Path_413" data-name="Path 413" d="M1037.47,1458.864a.168.168,0,0,1-.1-.305,45.479,45.479,0,0,0,8.511-7.961.168.168,0,1,1,.26.214,45.806,45.806,0,0,1-8.574,8.02.165.165,0,0,1-.1.032" transform="translate(-821.976 -1149.431)" fill="#3c3c3b" />
                <path id="Path_414" data-name="Path 414" d="M1488.177,1389.66c3.565,2.2,10.571,6.2,12.728,13.76a16.9,16.9,0,0,1,.389,1.692,17.047,17.047,0,0,0,6.528-21.084c-1.386-1.666-9.761-11.449-20.619-10.4-1.863.179-9.064.908-11.352,6.017a8.911,8.911,0,0,0-.5,5.262,35.067,35.067,0,0,1,12.828,4.757" transform="translate(-1168.948 -1088.423)" fill="#c95dff" />
                <path id="Path_415" data-name="Path 415" d="M1500.525,1404.746l-.044-.248a16.783,16.783,0,0,0-.386-1.675c-2.041-7.152-8.367-11.033-12.147-13.352l-.508-.312a34.7,34.7,0,0,0-12.766-4.734l-.117-.019-.021-.117a8.937,8.937,0,0,1,.514-5.361c1.069-2.388,3.93-5.388,11.489-6.116,10.364-1,18.513,7.756,20.764,10.463l.026.042a17.57,17.57,0,0,1,.532,12.116,17.345,17.345,0,0,1-7.124,9.176Zm-12.907-15.873.507.312c3.821,2.344,10.218,6.268,12.295,13.546.135.476.252.966.347,1.459a17,17,0,0,0,6.775-8.86,17.23,17.23,0,0,0-.512-11.857c-2.247-2.7-10.295-11.3-20.457-10.324-7.4.713-10.182,3.611-11.214,5.918a8.562,8.562,0,0,0-.511,5.046,35.038,35.038,0,0,1,12.771,4.76" transform="translate(-1168.301 -1087.78)" fill="#3c3c3b" />
                <path id="Path_416" data-name="Path 416" d="M1532.339,1426.786a.168.168,0,0,1-.148-.088,30.353,30.353,0,0,0-9.986-10.817,29.938,29.938,0,0,0-11.079-4.392.168.168,0,0,1-.136-.2.164.164,0,0,1,.2-.136,30.254,30.254,0,0,1,11.2,4.442,30.676,30.676,0,0,1,10.1,10.938.168.168,0,0,1-.067.229.162.162,0,0,1-.081.021" transform="translate(-1197.333 -1118.224)" fill="#3c3c3b" />
                <path id="Path_417" data-name="Path 417" d="M1474.991,1392.141a.168.168,0,0,1-.127-.279c.838-.961,5.375-5.733,12.376-5.292a15.342,15.342,0,0,1,9.749,4.519.169.169,0,0,1-.24.237,15,15,0,0,0-9.53-4.42,15.378,15.378,0,0,0-12.1,5.178.17.17,0,0,1-.127.057" transform="translate(-1168.676 -1098.72)" fill="#3c3c3b" />
                <path id="Path_418" data-name="Path 418" d="M885.508,1364.155a.219.219,0,0,1-.219-.205c-.332-5.084-9.319-10.208-9.41-10.259a.219.219,0,1,1,.215-.382c.379.213,9.285,5.292,9.633,10.612a.219.219,0,0,1-.2.233h-.014" transform="translate(-693.974 -1072.363)" fill="#1d1d1b" />
                <path id="Path_419" data-name="Path 419" d="M1773.7,1461.975a31.694,31.694,0,0,1-24.859-.031,12.408,12.408,0,0,1-.135-1.935,10.143,10.143,0,0,1,.135-1.566,31.694,31.694,0,0,0,24.891,0,8.551,8.551,0,0,1,.147,1.661,10.842,10.842,0,0,1-.178,1.867" transform="translate(-1385.704 -1155.696)" fill="#f4a804" />
                <path id="Path_420" data-name="Path 420" d="M1760.47,1463.515a31.956,31.956,0,0,1-12.555-2.559l-.113-.049-.018-.121a12.586,12.586,0,0,1-.137-1.97,10.4,10.4,0,0,1,.138-1.6l.046-.275.256.109a31.613,31.613,0,0,0,24.719,0l.25-.107.052.268a8.875,8.875,0,0,1,.151,1.7,11.1,11.1,0,0,1-.182,1.905l-.021.117-.109.047a31.942,31.942,0,0,1-12.477,2.527M1748.2,1460.6a31.628,31.628,0,0,0,24.464.03,10.61,10.61,0,0,0,.155-1.713,8.572,8.572,0,0,0-.1-1.35,32.076,32.076,0,0,1-24.547,0,10.077,10.077,0,0,0-.09,1.256,12.058,12.058,0,0,0,.116,1.78" transform="translate(-1384.866 -1154.507)" fill="#3c3c3b" />
                <path id="Path_421" data-name="Path 421" d="M1774.241,1446.027a.659.659,0,0,1,.021.2c-.14,2.18-11.867,2.724-12.486,2.75-3.495.149-10.843.4-12.251-2.364a.974.974,0,0,1-.137-.559c.194-1.975,7.711-2.8,12.413-2.857,5.206-.063,11.967.758,12.44,2.825" transform="translate(-1386.244 -1143.617)" fill="#c95dff" />
                <path id="Path_422" data-name="Path 422" d="M1757.65,1448.449c-3.585,0-8.057-.392-9.164-2.569a1.2,1.2,0,0,1-.16-.68c.283-2.874,12.506-3.055,12.63-3.057,4.133-.04,12.091.513,12.657,3h0a.854.854,0,0,1,.027.267c-.148,2.3-10.6,2.867-12.7,2.956-.859.037-2.02.086-3.293.086m3.872-5.869q-.281,0-.562,0c-5.746.07-12.043,1.106-12.2,2.658a.764.764,0,0,0,.114.438c1.373,2.7,9.127,2.366,12.045,2.243,4.7-.2,12.18-1.069,12.275-2.544a.454.454,0,0,0-.016-.141c-.388-1.69-6.133-2.657-11.661-2.657" transform="translate(-1385.401 -1142.778)" fill="#3c3c3b" />
                <path id="Path_423" data-name="Path 423" d="M1780.941,1443.8h-5.227v-2.764h2.865l2.362,2.764" transform="translate(-1407.107 -1141.904)" fill="#18eaff" />
                <path id="Path_424" data-name="Path 424" d="M1780.662,1443.326h-5.76v-3.1h3.111Zm-5.424-.337h4.693l-2.074-2.428h-2.619Z" transform="translate(-1406.464 -1141.26)" fill="#3c3c3b" />
                <path id="Path_425" data-name="Path 425" d="M1774.264,1475.031q-1.828,15.181-3.725,30.119a31.327,31.327,0,0,1-17.428,0q-1.893-14.938-3.725-30.119a31.322,31.322,0,0,0,24.879,0" transform="translate(-1386.244 -1168.841)" fill="#fff" />
                <path id="Path_426" data-name="Path 426" d="M1760.816,1505.257a31.519,31.519,0,0,1-8.775-1.247l-.139-.04-.018-.144c-1.306-10.307-2.559-20.441-3.726-30.12l-.046-.38.351.152a31.214,31.214,0,0,0,24.705,0l.351-.152-.046.38c-1.166,9.679-2.42,19.813-3.725,30.12l-.018.144-.138.04a31.514,31.514,0,0,1-8.775,1.247m-8.515-1.629a31.043,31.043,0,0,0,17.029,0c1.282-10.123,2.514-20.078,3.661-29.6a31.67,31.67,0,0,1-24.352,0c1.148,9.519,2.379,19.474,3.662,29.6" transform="translate(-1385.235 -1167.49)" fill="#3c3c3b" />
                <path id="Path_427" data-name="Path 427" d="M1773.7,1461.975a31.694,31.694,0,0,1-24.859-.031,12.408,12.408,0,0,1-.135-1.935,10.143,10.143,0,0,1,.135-1.566,31.694,31.694,0,0,0,24.891,0,8.551,8.551,0,0,1,.147,1.661,10.842,10.842,0,0,1-.178,1.867" transform="translate(-1385.704 -1155.696)" fill="#18eaff" />
                <path id="Path_428" data-name="Path 428" d="M1760.47,1463.515a31.956,31.956,0,0,1-12.555-2.559l-.113-.049-.018-.121a12.586,12.586,0,0,1-.137-1.97,10.4,10.4,0,0,1,.138-1.6l.046-.275.256.109a31.613,31.613,0,0,0,24.719,0l.25-.107.052.268a8.875,8.875,0,0,1,.151,1.7,11.1,11.1,0,0,1-.182,1.905l-.021.117-.109.047a31.942,31.942,0,0,1-12.477,2.527M1748.2,1460.6a31.628,31.628,0,0,0,24.464.03,10.61,10.61,0,0,0,.155-1.713,8.572,8.572,0,0,0-.1-1.35,32.076,32.076,0,0,1-24.547,0,10.077,10.077,0,0,0-.09,1.256,12.058,12.058,0,0,0,.116,1.78" transform="translate(-1384.866 -1154.507)" fill="#3c3c3b" />
                <path id="Path_430" data-name="Path 430" d="M1793.914,1516.922a4.649,4.649,0,1,1-4.649-4.649,4.649,4.649,0,0,1,4.649,4.649" transform="translate(-1414.161 -1198.353)" fill="#c95dff" />
                <path id="Path_431" data-name="Path 431" d="M1788.426,1520.951a4.869,4.869,0,1,1,4.869-4.869,4.874,4.874,0,0,1-4.869,4.869m0-9.3a4.429,4.429,0,1,0,4.43,4.429,4.434,4.434,0,0,0-4.43-4.429" transform="translate(-1413.323 -1197.513)" fill="#3c3c3b" />
                <g id="Group_600" data-name="Group 600" transform="translate(363.321 306.444)" opacity="0.37">
                    <g id="Group_599" data-name="Group 599">
                        <g id="Group_598" data-name="Group 598" clip-path="url(#clip-path-3)">
                            <path id="Path_432" data-name="Path 432" d="M1774.728,1476.282q-1.879,14.813-3.759,29.627a9.03,9.03,0,0,1-2.4.614l-18.314-30.268a31,31,0,0,0,24.478.027" transform="translate(-1750.25 -1476.255)" fill="none" />
                        </g>
                    </g>
                </g>
                <path id="Path_433" data-name="Path 433" d="M110.083,186.371c0,15.012-11.321,27.182-25.286,27.182s-25.285-12.17-25.285-27.182,11.32-27.182,25.285-27.182,25.286,12.17,25.286,27.182" transform="translate(-47.158 -126.145)" fill="#fff" />
                <path id="Path_434" data-name="Path 434" d="M722.332,14.215A14.211,14.211,0,1,1,708.122,0a14.211,14.211,0,0,1,14.211,14.211" transform="translate(-549.867 -0.004)" fill="#fff" />
                <path id="Path_435" data-name="Path 435" d="M891.558,397.46a7.824,7.824,0,1,1-7.824-7.824,7.824,7.824,0,0,1,7.824,7.824" transform="translate(-694.087 -308.755)" fill="#fff" />
                <path id="Path_436" data-name="Path 436" d="M1584.578,24.927c0,9.142-7.8,16.553-17.422,16.553s-17.422-7.411-17.422-16.553,7.8-16.553,17.422-16.553,17.422,7.411,17.422,16.553" transform="translate(-1228.037 -6.636)" fill="#fff" />
                <path id="Path_437" data-name="Path 437" d="M2059.976,699.488c-3.171,0-5.75-2.315-5.75-5.161s2.58-5.161,5.75-5.161,5.75,2.315,5.75,5.161-2.58,5.161-5.75,5.161m0-9.692c-2.824,0-5.121,2.033-5.121,4.531s2.3,4.532,5.121,4.532,5.121-2.033,5.121-4.532-2.3-4.531-5.121-4.531" transform="translate(-1627.805 -546.108)" fill="#3c3c3b" />
                <path id="Path_438" data-name="Path 438" d="M597.484,487.805c-2.482,0-4.5-1.507-4.5-3.36s2.02-3.36,4.5-3.36,4.5,1.507,4.5,3.36-2.02,3.36-4.5,3.36m0-6.272c-2.235,0-4.053,1.306-4.053,2.912s1.818,2.911,4.053,2.911,4.053-1.306,4.053-2.911-1.818-2.912-4.053-2.912" transform="translate(-469.889 -381.221)" fill="#3c3c3b" />
                <path id="Path_439" data-name="Path 439" d="M34.1,1111.943a6.656,6.656,0,1,1,6.656-6.656,6.664,6.664,0,0,1-6.656,6.656m0-12.543a5.887,5.887,0,1,0,5.887,5.887A5.894,5.894,0,0,0,34.1,1099.4" transform="translate(1.25 -874.952)" fill="#3c3c3b" />
                <path id="Path_440" data-name="Path 440" d="M725.6,1012.014a5.463,5.463,0,1,1,5.462-5.462,5.469,5.469,0,0,1-5.462,5.462m0-10.294a4.831,4.831,0,1,0,4.831,4.831,4.837,4.837,0,0,0-4.831-4.831" transform="translate(-570.65 -793.281)" fill="#3c3c3b" />
                <path id="Path_441" data-name="Path 441" d="M1873.48,813.1c-2.563,0-4.648-1.637-4.648-3.649s2.085-3.65,4.648-3.65,4.648,1.637,4.648,3.65-2.085,3.649-4.648,3.649m0-6.823c-2.3,0-4.173,1.424-4.173,3.174s1.872,3.174,4.173,3.174,4.172-1.424,4.172-3.174-1.872-3.174-4.172-3.174" transform="translate(-1480.896 -638.534)" fill="#3c3c3b" />
                <path id="Path_442" data-name="Path 442" d="M1316.31,1076.352a.27.27,0,0,1-.158-.49c4.232-3.058.884-16.276.85-16.409a.27.27,0,0,1,.524-.135c.144.559,3.472,13.71-1.057,16.982a.271.271,0,0,1-.158.051" transform="translate(-1042.853 -839.263)" fill="#3c3c3b" />
            </g>
        </g>
    </g>
</svg>