<svg xmlns="http://www.w3.org/2000/svg" width="70.258" height="68.446" viewBox="0 0 70.258 68.446">
    <g id="Group_38" data-name="Group 38" transform="translate(-648.53 -829.309)">
        <path id="Path_129" data-name="Path 129" d="M1092.664,165.539h2.17v13.533l.125.036c.127-.274.253-.55.382-.824,1.543-3.287,3.061-6.585,4.635-9.857a5.756,5.756,0,0,1,10.054-.763c1.652,2.414,3.257,4.86,4.869,7.3a1.216,1.216,0,0,0,.968.625c1.452.166,2.9.4,4.343.621a3.423,3.423,0,0,1,3.063,4.368c-.018.087-.02.177-.032.3h9.043a10.6,10.6,0,0,1,.022-2.018,3.307,3.307,0,0,1,2.9-2.625c1.539-.217,3.079-.424,4.61-.685a1.336,1.336,0,0,0,.8-.509q2.411-3.542,4.764-7.123a5.822,5.822,0,0,1,10.376.781q2.363,5.1,4.75,10.18c.035.075.079.145.217.4v-13.7h2.2v.7q0,14.2,0,28.4c0,1.292-.311,1.6-1.631,1.6-5.535,0-11.069.012-16.6-.017a.934.934,0,0,0-1.056.752c-.871,2.425-1.8,4.831-2.732,7.323l-2.047-.757c.209-.566.4-1.074.586-1.581.865-2.309,1.746-4.612,2.589-6.929a1.342,1.342,0,0,1,1.436-.995c4.528.017,9.057.009,13.585.008a3.319,3.319,0,0,0,3.672-3.7,28.3,28.3,0,0,0-2.7-11.662c-1.415-3.019-2.851-6.028-4.252-9.053a3.634,3.634,0,0,0-6.588-.5c-1.682,2.559-3.4,5.095-5.086,7.652a1.721,1.721,0,0,1-1.319.843c-1.722.219-3.439.482-5.154.749a1.255,1.255,0,1,0,.192,2.5c2.47.008,4.94.016,7.41-.016a1.076,1.076,0,0,0,.733-.44c1.215-1.772,2.4-3.564,3.582-5.357.307-.466.651-.853,1.265-.752.638.105.859.575.992,1.158,1.048,4.585,2.114,9.167,3.17,13.75.223.97-.239,1.536-1.262,1.538q-4.974.01-9.948,0c-1.01,0-1.22.139-1.6,1.056q-2.211,5.312-4.421,10.623c-.1.251-.22.5-.355.8l-2.009-.832,1.386-3.325c1.142-2.74,2.294-5.475,3.42-8.221a3.4,3.4,0,0,1,3.448-2.3c2.948.014,5.9,0,8.936,0l-2.386-10.344a4.726,4.726,0,0,0-.37.42c-.816,1.214-1.641,2.422-2.43,3.654a1.581,1.581,0,0,1-1.475.79q-16.123-.019-32.246,0a1.532,1.532,0,0,1-1.423-.757c-.879-1.359-1.789-2.7-2.8-4.206l-2.414,10.445h2.313c2.287,0,4.574-.012,6.861.005a3.075,3.075,0,0,1,3.015,1.888c1.692,3.942,3.324,7.911,5.014,11.951l-2,.839c-.127-.274-.246-.513-.349-.758q-2.214-5.31-4.424-10.621c-.41-.985-.59-1.109-1.633-1.109q-4.905,0-9.811,0c-1.2,0-1.611-.521-1.343-1.687q1.567-6.809,3.135-13.618c.127-.557.336-1.01.935-1.133.645-.132,1,.266,1.326.755,1.181,1.795,2.364,3.588,3.584,5.356a1.147,1.147,0,0,0,.807.429c2.424.033,4.848.023,7.272.017.884,0,1.441-.458,1.481-1.187.038-.691-.421-1.191-1.283-1.324-1.716-.266-3.433-.527-5.155-.747a1.659,1.659,0,0,1-1.26-.819c-1.752-2.65-3.5-5.3-5.29-7.926a3.548,3.548,0,0,0-5.663-.423,4.5,4.5,0,0,0-.658,1.036c-1.505,3.178-3.018,6.353-4.484,9.549a27.873,27.873,0,0,0-2.542,11.49,3.289,3.289,0,0,0,3.509,3.525q6.827.008,13.653,0c.993,0,1.218.154,1.569,1.089q1.471,3.91,2.934,7.823c.063.167.111.34.191.59l-2.028.761c-.771-2.051-1.511-4.038-2.265-6.019-.257-.677-.373-1.585-.871-1.941-.474-.339-1.364-.106-2.071-.106-5.077,0-10.154-.012-15.231.011a1.721,1.721,0,0,1-1.589-.7Z" transform="translate(-444.134 693.411)"/>
        <path id="Path_130" data-name="Path 130" d="M1226.4,19.245l-.831,1.916a12.047,12.047,0,0,0-10.106.238,11.743,11.743,0,0,0-5.541,5.5,12.069,12.069,0,0,0,17.453,15.429,12.192,12.192,0,0,0,4.376-15.116l1.906-.878a14.3,14.3,0,1,1-7.256-7.086" transform="translate(-537.073 813.524)"/>
        <path id="Path_131" data-name="Path 131" d="M1251.169,53.846l1.819-.878c1.454,2.225,1.512,6.975-1.806,10.086a8.775,8.775,0,0,1-13.051-11.642,8.616,8.616,0,0,1,10.752-2.6l-.9,1.89a6.7,6.7,0,0,0-5.774.1,6.416,6.416,0,0,0-2.951,2.953,6.582,6.582,0,0,0,9.261,8.585c2.829-1.687,3.7-4.432,2.649-8.491" transform="translate(-561.493 789.092)"/>
        <path id="Path_132" data-name="Path 132" d="M1292.551,9.28c.741,0,1.379.008,2.017,0a1.131,1.131,0,0,1,1.171.662,1.086,1.086,0,0,1-.305,1.3c-1.4,1.408-2.8,2.826-4.231,4.206a2.894,2.894,0,0,1-.97.413.4.4,0,0,1-.2,0,4.391,4.391,0,0,0-4.364,1.8c-1.609,1.835-3.429,3.485-5.159,5.213a4.1,4.1,0,0,1-.45.421,1.085,1.085,0,0,1-1.5-1.551c.277-.332.6-.625.909-.932,2.035-2.037,4.08-4.066,6.1-6.123a1.3,1.3,0,0,0,.384-.933,4.7,4.7,0,0,1,1.988-4.741,30.818,30.818,0,0,0,2.583-2.552,1.133,1.133,0,0,1,2.042.827c-.012.635,0,1.271,0,1.985m-2.244.474c-1,1.24-2.732,1.909-2.03,3.951.554-.042,1.264.109,1.68-.173a15.542,15.542,0,0,0,2.068-2.006c-1.415-.135-1.594-.315-1.718-1.771" transform="translate(-595.719 823.323)"/>
        <path id="Path_133" data-name="Path 133" d="M1157.538,107.329a5.487,5.487,0,1,1-5.4-5.522,5.508,5.508,0,0,1,5.4,5.522M1152.1,104a3.29,3.29,0,1,0,3.247,3.3,3.3,3.3,0,0,0-3.247-3.3" transform="translate(-488.152 745.069)"/>
        <path id="Path_134" data-name="Path 134" d="M1367.61,112.781a5.488,5.488,0,1,1,5.508-5.489,5.5,5.5,0,0,1-5.508,5.489m3.312-5.515a3.29,3.29,0,1,0-3.3,3.316,3.3,3.3,0,0,0,3.3-3.316" transform="translate(-664.212 745.069)"/>
        <path id="Path_135" data-name="Path 135" d="M1267,76.459h2.032c.332,1.971-1.639,4.155-3.91,4.354a4.41,4.41,0,0,1-4.77-4.222,4.33,4.33,0,0,1,4.35-4.5v2.094c-1.492.37-2.233,1.2-2.152,2.4a2.217,2.217,0,0,0,1.977,2.036c1.213.118,2.067-.623,2.473-2.162" transform="translate(-581.081 769.34)"/>
    </g>
</svg>

