<svg id="Group_811" data-name="Group 811"
    xmlns="http://www.w3.org/2000/svg" width="31.433" height="27.327" viewBox="0 0 31.433 27.327">
    <path className="hover:fill-purple-600" id="Path_96" data-name="Path 96" d="M-4451.97,401.6c-.162.725-.334,1.447-.486,2.174q-1.9,9.1-3.787,18.209c-.346,1.67-.72,3.336-1.028,5.013a.923.923,0,0,1-1.552.6c-2.266-1.681-4.561-3.323-6.845-4.981a1.327,1.327,0,0,0-2.018.068q-1.817,1.485-3.638,2.966a.873.873,0,0,1-1.518-.451q-1.334-4.285-2.66-8.571a.57.57,0,0,0-.39-.414q-3.39-1.251-6.771-2.528a1.312,1.312,0,0,1-.6-.435.825.825,0,0,1,.466-1.24c.538-.223,1.084-.424,1.627-.633l27.808-10.724c.72-.277,1.056-.152,1.391.52Zm-21.96,14.536a3.129,3.129,0,0,0,.065.375q.743,2.622,1.493,5.242c.061.216.156.387.414.365s.32-.211.349-.43c.1-.79.234-1.578.308-2.37a3.286,3.286,0,0,1,1.129-2.2q5.482-5.051,10.926-10.142a3.536,3.536,0,0,0,.418-.4c.059-.077.087-.269.041-.311a.482.482,0,0,0-.338-.065c-.083.008-.159.086-.237.134l-8.82,5.434q-2.479,1.527-4.96,3.052A1.532,1.532,0,0,0-4473.93,416.131Z" transform="translate(4483.402 -400.508)" fill="#b8b8b8" />
</svg>