<svg id="Group_812" data-name="Group 812"
    xmlns="http://www.w3.org/2000/svg" width="33.635" height="27.412" viewBox="0 0 33.635 27.412">
    <path className="hover:fill-purple-600" id="Path_97" data-name="Path 97" d="M-4319.472,424.834a14.113,14.113,0,0,0,10.118-2.845,7.131,7.131,0,0,1-6.445-4.827,7.888,7.888,0,0,0,3.052-.126,6.919,6.919,0,0,1-5.412-6.855,6.942,6.942,0,0,0,3.05.812,6.936,6.936,0,0,1-2.984-4.9,6.729,6.729,0,0,1,.891-4.306,19.7,19.7,0,0,0,14.195,7.218c-.025-.7-.083-1.352-.065-2.005a6.893,6.893,0,0,1,5-6.232,6.813,6.813,0,0,1,6.748,1.744.442.442,0,0,0,.466.115,13.911,13.911,0,0,0,3.8-1.442c.076-.042.156-.077.285-.139a5.362,5.362,0,0,1-1.113,2.1c-.515.586-1.107,1.1-1.653,1.641a13.878,13.878,0,0,0,3.631-1l.074.082c-.556.651-1.083,1.329-1.676,1.944-.478.5-1.043.907-1.552,1.373a.621.621,0,0,0-.188.408,19.884,19.884,0,0,1-8.614,17.029,17.83,17.83,0,0,1-8.265,3.111,20.336,20.336,0,0,1-8.348-.607,18.964,18.964,0,0,1-4.846-2.177A1.82,1.82,0,0,1-4319.472,424.834Z" transform="translate(4319.472 -400.508)" fill="#b8b8b8" />
</svg>