<svg xmlns="http://www.w3.org/2000/svg" width="39.061" height="27.416" viewBox="0 0 39.061 27.416">
    <g id="Group_20" data-name="Group 20" transform="translate(0)">
        <path id="Path_92" data-name="Path 92" d="M-3705.688,400.508c4.01.157,8.021.3,12.03.48a21.465,21.465,0,0,1,2.824.336,4.942,4.942,0,0,1,4.141,4.327,46.881,46.881,0,0,1,.594,9.888c-.077,2.313-.3,4.624-.524,6.929a5.172,5.172,0,0,1-2.339,4.085,6.573,6.573,0,0,1-2.975.865,109.955,109.955,0,0,1-12.107.5c-4.094-.02-8.188-.144-12.281-.276a34.869,34.869,0,0,1-3.921-.4,4.9,4.9,0,0,1-4.21-4.157,41.338,41.338,0,0,1-.635-6.958,58.95,58.95,0,0,1,.4-9.176,16.6,16.6,0,0,1,.375-2.036,4.989,4.989,0,0,1,4.413-3.7,106.509,106.509,0,0,1,11.491-.583c.908-.015,1.817,0,2.726,0Zm-3.768,7.93v11.678l10.137-5.84Z" transform="translate(3725.123 -400.508)" fill="#b8b8b8" />
    </g>
</svg>